<?xml version="1.0" encoding="UTF-8"?>
<svg id="badevaerelse" xmlns="http://www.w3.org/2000/svg" viewBox="0 0 595.28 841.89">
  <defs>
    <style>
      .cls-1 {
        fill: #bab1ad;
      }

      .cls-2 {
        fill: #7e8659;
      }

      .cls-3 {
        fill: #d9dfe8;
      }

      .cls-4 {
        fill: #e6d3dd;
      }

      .cls-5 {
        fill: #9e9f9d;
      }

      .cls-6 {
        fill: #45251d;
      }

      .cls-7 {
        fill: #e76aa8;
      }

      .cls-8 {
        fill: #e9e9ea;
      }

      .cls-9 {
        fill: #cfceca;
      }

      .cls-10 {
        fill: #f6f6f6;
      }

      .cls-11 {
        fill: #b5d2cd;
      }

      .cls-12 {
        fill: #eff8f8;
      }

      .cls-13 {
        fill: #d4256e;
      }

      .cls-14 {
        fill: none;
        stroke: #cfd1d2;
        stroke-miterlimit: 10;
        stroke-width: .5px;
      }

      .cls-15 {
        fill: #cacbcd;
      }

      .cls-16 {
        fill: #90c5dd;
      }

      .cls-17 {
        fill: #e82a78;
      }

      .cls-18 {
        fill: #ebebec;
      }

      .cls-19 {
        fill: #f1f2f2;
      }

      .cls-20 {
        fill: #784940;
      }

      .cls-21 {
        fill: #afcbc6;
      }

      .cls-22 {
        fill: #8f594e;
      }

      .cls-23 {
        fill: #3a2515;
      }

      .cls-24 {
        fill: #ededee;
      }

      .cls-25 {
        fill: #fff;
      }

      .cls-26 {
        fill: #5f6743;
      }

      .cls-27 {
        fill: #d7639d;
      }

      .cls-28 {
        fill: #e2e3e4;
      }

      .cls-29 {
        fill: #f3f4f4;
      }

      .cls-30 {
        fill: #c4c4c1;
      }

      .cls-31 {
        fill: #1e77a3;
      }

      .cls-32 {
        fill: #d4d6d7;
      }

      .cls-33 {
        fill: #b9b9b6;
      }

      .cls-34 {
        opacity: .1;
      }

      .cls-35 {
        fill: #d0b37c;
      }

      .cls-36 {
        fill: #e8f5f5;
      }

      .cls-37 {
        fill: #485568;
      }

      .cls-38 {
        fill: #f0accd;
      }

      .cls-39 {
        fill: #764b42;
      }

      .cls-40 {
        fill: #e1c9d5;
      }

      .cls-41 {
        fill: #64748b;
      }

      .cls-42 {
        fill: #945b51;
      }

      .cls-43 {
        fill: #e8c487;
      }

      .cls-44 {
        fill: #dcd7d0;
      }

      .cls-45 {
        fill: #f7e9af;
      }

      .cls-46 {
        fill: #cfd1d2;
      }

      .cls-47 {
        fill: #7f4e44;
      }

      .cls-48 {
        fill: #e0e1e2;
      }

      .cls-49 {
        fill: #beb5b0;
      }

      .cls-50 {
        fill: #fbfdff;
      }

      .cls-51 {
        fill: #1a6c95;
      }

      .cls-52 {
        fill: #c7e7e0;
      }

      .cls-53 {
        fill: #633b33;
      }

      .cls-54 {
        fill: #727a51;
      }

      .cls-55 {
        fill: #a59d9a;
      }
    </style>
  </defs>
  <g id="baggrund">
    <g id="sidevaeg_venstre">
      <g>
        <polygon class="cls-49" points="110.75 141.53 57.41 181.3 59.19 510.91 111.78 430.17 110.75 141.53"/>
        <path class="cls-44" d="M58.7,512.58l-1.79-331.52,54.34-40.51,1.03,289.78-.08.12-53.5,82.13ZM57.91,181.55l1.77,327.68,51.59-79.21-1.02-287.5-52.35,39.03Z"/>
      </g>
      <g>
        <line class="cls-55" x1="111.69" y1="403.78" x2="58.77" y2="478.87"/>
        <rect class="cls-44" x="39.3" y="440.95" width="91.86" height=".75" transform="translate(-324.73 257.01) rotate(-54.86)"/>
      </g>
      <g>
        <line class="cls-55" x1="111.69" y1="377.2" x2="58.69" y2="448.32"/>
        <rect class="cls-44" x="40.84" y="412.39" width="88.69" height=".75" transform="translate(-296.88 234.85) rotate(-53.37)"/>
      </g>
      <g>
        <line class="cls-55" x1="111.69" y1="350.62" x2="58.69" y2="418.84"/>
        <rect class="cls-44" x="42" y="384.35" width="86.39" height=".75" transform="translate(-270.99 216.18) rotate(-52.19)"/>
      </g>
      <g>
        <line class="cls-55" x1="111.69" y1="324.03" x2="58.77" y2="390.51"/>
        <rect class="cls-44" x="42.75" y="356.9" width="84.96" height=".75" transform="translate(-247.44 201.58) rotate(-51.5)"/>
      </g>
      <g>
        <line class="cls-55" x1="111.57" y1="297.58" x2="58.38" y2="361.58"/>
        <rect class="cls-44" x="43.37" y="329.2" width="83.22" height=".75" transform="translate(-222.83 184.33) rotate(-50.28)"/>
      </g>
      <g>
        <line class="cls-55" x1="111.78" y1="271.19" x2="58.14" y2="331.29"/>
        <rect class="cls-44" x="44.68" y="300.24" width="80.56" height="2" transform="translate(-196.35 164.01) rotate(-48.25)"/>
      </g>
      <rect class="cls-44" x="70.13" y="318.05" width=".75" height="175.48"/>
      <rect class="cls-44" x="80.13" y="305.74" width=".75" height="172.43"/>
      <rect class="cls-44" x="89.21" y="296.14" width=".75" height="168.09"/>
      <rect class="cls-44" x="97.97" y="285.41" width=".75" height="166.49"/>
      <rect class="cls-44" x="104.72" y="277.67" width=".75" height="162.76"/>
    </g>
    <g id="bagvaeg">
      <g>
        <rect class="cls-49" x="111.78" y="140.94" width="365.65" height="290.37"/>
        <path class="cls-44" d="M477.92,431.81H111.28V140.44h366.65v291.37ZM112.28,430.81h364.65V141.44H112.28v289.37Z"/>
      </g>
      <rect class="cls-44" x="111.55" y="270.6" width="365.88" height="2"/>
      <rect class="cls-44" x="111.66" y="297.84" width="365.88" height=".75"/>
      <rect class="cls-44" x="111.66" y="324.46" width="365.88" height=".75"/>
      <rect class="cls-44" x="111.55" y="351.08" width="365.88" height=".75"/>
      <rect class="cls-44" x="111.55" y="377.7" width="365.88" height=".75"/>
      <rect class="cls-44" x="111.55" y="404.32" width="365.88" height=".75"/>
      <rect class="cls-44" x="136.58" y="271.6" width=".75" height="159.71"/>
      <rect class="cls-44" x="164.96" y="271.6" width=".75" height="159.71"/>
      <rect class="cls-44" x="193.33" y="271.6" width=".75" height="159.71"/>
      <rect class="cls-44" x="221.7" y="271.6" width=".75" height="159.71"/>
      <rect class="cls-44" x="250.07" y="271.6" width=".75" height="159.71"/>
      <rect class="cls-44" x="278.44" y="271.6" width=".75" height="159.71"/>
      <rect class="cls-44" x="306.82" y="271.6" width=".75" height="159.71"/>
      <rect class="cls-44" x="335.19" y="271.6" width=".75" height="159.71"/>
      <rect class="cls-44" x="363.56" y="271.6" width=".75" height="159.71"/>
      <rect class="cls-44" x="391.93" y="271.6" width=".75" height="159.71"/>
      <rect class="cls-44" x="420.3" y="271.6" width=".75" height="159.71"/>
      <rect class="cls-44" x="448.68" y="271.6" width=".75" height="159.71"/>
    </g>
    <g id="sidevaeg_hoejre">
      <g>
        <polygon class="cls-49" points="478.43 140.94 531.17 180.78 529.41 510.95 477.42 430.08 478.43 140.94"/>
        <path class="cls-44" d="M529.9,512.64l-52.98-82.41v-.15s1.02-290.14,1.02-290.14l53.73,40.59v.25s-1.77,331.86-1.77,331.86ZM477.92,429.93l51,79.33,1.75-328.24-51.74-39.09-1.01,287.99Z"/>
      </g>
      <g>
        <line class="cls-55" x1="477.51" y1="403.64" x2="529.83" y2="478.86"/>
        <rect class="cls-44" x="503.29" y="395.44" width=".75" height="91.62" transform="translate(-161.77 366.55) rotate(-34.82)"/>
      </g>
      <g>
        <line class="cls-55" x1="477.51" y1="377.01" x2="529.9" y2="448.26"/>
        <rect class="cls-44" x="503.33" y="368.42" width=".75" height="88.43" transform="translate(-146.55 378.6) rotate(-36.33)"/>
      </g>
      <g>
        <line class="cls-55" x1="477.51" y1="350.38" x2="529.9" y2="418.72"/>
        <rect class="cls-44" x="503.33" y="341.5" width=".75" height="86.11" transform="translate(-130.01 385.8) rotate(-37.47)"/>
      </g>
      <g>
        <line class="cls-55" x1="477.51" y1="323.75" x2="529.83" y2="390.34"/>
        <rect class="cls-44" x="503.29" y="314.71" width=".75" height="84.68" transform="translate(-112.97 387.43) rotate(-38.15)"/>
      </g>
      <g>
        <line class="cls-55" x1="477.63" y1="297.25" x2="530.21" y2="361.36"/>
        <rect class="cls-44" x="503.54" y="287.85" width=".75" height="82.92" transform="translate(-94.55 394.25) rotate(-39.36)"/>
      </g>
      <g>
        <line class="cls-55" x1="477.55" y1="270.87" x2="530.45" y2="331.02"/>
        <rect class="cls-44" x="503" y="260.89" width="2" height="80.11" transform="translate(-73.21 407.78) rotate(-41.33)"/>
      </g>
      <g>
        <line class="cls-55" x1="518.22" y1="493.55" x2="518.22" y2="317.76"/>
        <rect class="cls-44" x="517.85" y="317.76" width=".75" height="175.78"/>
      </g>
      <g>
        <line class="cls-55" x1="508.33" y1="478.16" x2="508.33" y2="305.43"/>
        <rect class="cls-44" x="507.96" y="305.43" width=".75" height="172.73"/>
      </g>
      <g>
        <line class="cls-55" x1="499.36" y1="464.2" x2="499.36" y2="295.82"/>
        <rect class="cls-44" x="498.98" y="295.82" width=".75" height="168.38"/>
      </g>
      <g>
        <line class="cls-55" x1="490.7" y1="451.84" x2="490.7" y2="285.06"/>
        <rect class="cls-44" x="490.32" y="285.06" width=".75" height="166.78"/>
      </g>
      <g>
        <line class="cls-55" x1="484.03" y1="440.36" x2="484.03" y2="277.31"/>
        <rect class="cls-44" x="483.66" y="277.31" width=".75" height="163.05"/>
      </g>
    </g>
    <g id="gulv">
      <g>
        <polygon class="cls-1" points="59.57 511.99 112.35 431.31 477.67 431.89 529.11 511.99 59.57 511.99"/>
        <path class="cls-44" d="M530.03,512.49H58.65l53.44-81.68h.27l365.59.58,52.08,81.1ZM60.5,511.49h467.7l-50.8-79.1-364.77-.58-52.13,79.68Z"/>
      </g>
      <g>
        <line class="cls-55" x1="94.14" y1="511.7" x2="137.3" y2="431.6"/>
        <rect class="cls-44" x="70.23" y="471.27" width="90.99" height=".75" transform="translate(-354.42 349.93) rotate(-61.7)"/>
      </g>
      <g>
        <line class="cls-55" x1="125.54" y1="511.99" x2="165.67" y2="431.89"/>
        <rect class="cls-44" x="100.81" y="471.56" width="89.59" height=".75" transform="translate(-341.58 390.83) rotate(-63.4)"/>
      </g>
      <g>
        <line class="cls-55" x1="160.88" y1="511.77" x2="194.04" y2="431.67"/>
        <rect class="cls-44" x="134.12" y="471.34" width="86.69" height=".75" transform="translate(-326.26 455.21) rotate(-67.51)"/>
      </g>
      <g>
        <line class="cls-55" x1="195.85" y1="511.99" x2="222.41" y2="431.89"/>
        <rect class="cls-44" x="166.94" y="471.56" width="84.39" height=".75" transform="translate(-304.66 521.73) rotate(-71.64)"/>
      </g>
      <g>
        <line class="cls-55" x1="272.34" y1="511.7" x2="279.16" y2="431.6"/>
        <polygon class="cls-44" points="272.71 511.73 271.96 511.67 278.79 431.57 279.53 431.63 272.71 511.73"/>
      </g>
      <g>
        <line class="cls-55" x1="314.43" y1="511.77" x2="307.61" y2="431.67"/>
        <rect class="cls-44" x="310.64" y="431.52" width=".75" height="80.39" transform="translate(-38.9 28.09) rotate(-4.87)"/>
      </g>
      <g>
        <line class="cls-55" x1="233.05" y1="511.77" x2="250.79" y2="431.67"/>
        <rect class="cls-44" x="200.9" y="471.34" width="82.04" height=".75" transform="translate(-270.93 605.98) rotate(-77.52)"/>
      </g>
      <g>
        <line class="cls-55" x1="492.55" y1="511.91" x2="449.39" y2="431.81"/>
        <rect class="cls-44" x="470.59" y="426.37" width=".75" height="90.99" transform="translate(-167.46 279.84) rotate(-28.31)"/>
      </g>
      <g>
        <line class="cls-55" x1="461.15" y1="512.06" x2="421.02" y2="431.96"/>
        <rect class="cls-44" x="440.71" y="427.22" width=".75" height="89.59" transform="translate(-164.71 247.58) rotate(-26.61)"/>
      </g>
      <g>
        <line class="cls-55" x1="425.81" y1="512.06" x2="392.65" y2="431.96"/>
        <rect class="cls-44" x="408.85" y="428.67" width=".75" height="86.69" transform="translate(-149.43 192.44) rotate(-22.49)"/>
      </g>
      <g>
        <line class="cls-55" x1="390.84" y1="511.91" x2="364.27" y2="431.81"/>
        <rect class="cls-44" x="377.18" y="429.67" width=".75" height="84.39" transform="translate(-129.33 142.82) rotate(-18.35)"/>
      </g>
      <g>
        <line class="cls-55" x1="353.64" y1="511.91" x2="335.9" y2="431.81"/>
        <rect class="cls-44" x="344.4" y="430.84" width=".75" height="82.04" transform="translate(-93.87 85.7) rotate(-12.49)"/>
      </g>
      <rect class="cls-44" x="105.45" y="441.49" width="378.63" height=".75"/>
      <rect class="cls-44" x="98.18" y="452.6" width="393.04" height=".75"/>
      <rect class="cls-44" x="90.09" y="464.96" width="409.06" height=".75"/>
      <rect class="cls-44" x="80.96" y="478.92" width="427.15" height=".75"/>
      <rect class="cls-44" x="70.9" y="494.29" width="447.09" height=".75"/>
    </g>
    <rect class="cls-47" x="370.16" y="283.21" width="94.35" height="3.7"/>
    <polygon class="cls-20" points="370.16 283.21 377.85 279.11 457.64 279.11 464.51 283.21 370.16 283.21"/>
    <path class="cls-37" d="M448.1,261.38c-10.11-1.26-19.22,0-19.22,0l9.48,1.17,9.74-1.17Z"/>
  </g>
  <g id="spejl">
    <rect class="cls-9" x="242.75" y="207" width="97.89" height="123.95"/>
    <rect class="cls-36" x="249.84" y="213.91" width="83.82" height="110.7"/>
    <polygon class="cls-12" points="249.84 244.47 281.54 213.91 289.07 213.91 249.84 251.36 249.84 244.47"/>
    <polygon class="cls-12" points="249.84 271.33 307.14 213.91 333.65 213.91 333.65 229.52 249.84 317.07 249.84 271.33"/>
    <polygon class="cls-12" points="307.91 324.6 333.65 294.5 333.65 290.26 303.86 324.6 307.91 324.6"/>
    <polygon class="cls-12" points="333.65 281.79 295.43 324.6 282.81 324.6 333.65 269.25 333.65 281.79"/>
    <polygon class="cls-50" points="249.84 283.6 318.76 213.91 333.65 213.91 333.65 218.49 249.84 302.37 249.84 283.6"/>
  </g>
  <g id="taeppe">
    <g>
      <ellipse class="cls-52" cx="298.51" cy="471.65" rx="164.5" ry="31.37"/>
      <path class="cls-11" d="M298.51,504.52c-81.6,0-166-12.3-166-32.87s84.4-32.87,166-32.87,165.99,12.3,165.99,32.87-84.4,32.87-165.99,32.87ZM298.51,441.78c-97.5,0-163,15.45-163,29.87s65.5,29.87,163,29.87,162.99-15.45,162.99-29.87-65.5-29.87-162.99-29.87Z"/>
    </g>
  </g>
  <g id="skab">
    <polyline class="cls-53" points="293.26 350.59 293.26 460.49 226.24 460.49 226.24 351.81"/>
    <polygon class="cls-53" points="242.51 340.66 341.07 340.66 360.2 351.25 226.24 351.81 242.51 340.66"/>
    <polygon class="cls-39" points="293.22 351.25 293.26 460.49 360.2 460.49 360.2 351.25 293.22 351.25"/>
    <ellipse class="cls-23" cx="284.5" cy="405.54" rx="4.74" ry="2.31"/>
    <path class="cls-23" d="M407.9,414.59s3.16,3.34,0,7.28"/>
    <rect class="cls-53" x="285.65" y="395.19" width="109.57" height=".5" transform="translate(-56.34 734.33) rotate(-89.78)"/>
    <polygon class="cls-42" points="360.2 406.96 293.26 406.96 293.26 395.44 340.41 395.44 360.2 404.45 360.2 406.96"/>
    <polygon class="cls-42" points="360.2 460.49 293.24 460.49 293.24 448.51 340.4 448.51 360.2 457.88 360.2 460.49"/>
    <polyline class="cls-53" points="360.2 351.25 407.9 361.58 407.9 475.06 360.2 460.43"/>
    <path class="cls-18" d="M327.92,343.76c0,.91-15.52,4.25-34.66,4.25s-34.66-3.33-34.66-4.25,15.52-1.65,34.66-1.65,34.66.74,34.66,1.65Z"/>
    <path class="cls-28" d="M289.32,342.11v-29.6s3.71-3.82,7.89,0v29.6h-7.89Z"/>
    <path class="cls-32" d="M297.21,335.1h4.91s2.46,3.02,0,5.03h-4.91v-5.03Z"/>
    <path class="cls-32" d="M289.32,340.13h-5.32s-2.67-3.02,0-5.03h5.32v5.03Z"/>
    <path class="cls-32" d="M289.33,312.01s3.62-2.7,7.89,0c0,0,2.19,7.94.87,7.94h-9.69s-1.33.37.93-7.94Z"/>
    <path class="cls-15" d="M291.77,319.96h2.98v.44s-1.31.68-2.98,0v-.44Z"/>
    <path class="cls-5" d="M322.26,351.25s-12.73,9.77-29.04,10.37v-10.37h29.04Z"/>
    <path class="cls-21" d="M226.24,460.49s65.68,5.5,133.96,0h-133.96Z"/>
    <path class="cls-21" d="M360.2,460.49s25.24,10.59,47.7,14.57l-47.7-14.57Z"/>
  </g>
  <g id="toilet">
    <path class="cls-18" d="M107.78,470.41s38.17,9.84,74.49,0c0,0-16.31-24.41-14.45-39.37,0,0,17.42-16.93,19.64-35.04,0,0,6.3,1.57,5.19-9.84h-97.84s-3.71,9.06,7.78,10.63c11.49,1.57,5.19,73.63,5.19,73.63Z"/>
    <path class="cls-18" d="M94.31,386.15s-2.73-1.3-3.76-5.9,0-65.94,0-65.94c0,0,.1-4.16,3.76-4.6,2.29-.27,13.99.51,20.97.51,4.7,0,4.61,4.68,4.55,6.72-.13,4.73.15,66.16.15,66.16,0,0,0,3.06-3.04,3.05h-22.63Z"/>
    <path class="cls-18" d="M119.98,307.02l6.7,78.66h65.01s-.9-4.21-2.37-4.33-58.95.12-58.95.12l-6.55-74.45s-1.77-2.18-3.83,0Z"/>
    <g>
      <line class="cls-18" x1="90.5" y1="317.37" x2="119.81" y2="318.06"/>
      <rect class="cls-28" x="104.66" y="303.05" width="1" height="29.32" transform="translate(-214.96 415.31) rotate(-88.64)"/>
    </g>
    <g>
      <line class="cls-18" x1="103.94" y1="397.13" x2="187.15" y2="396.33"/>
      <rect class="cls-28" x="103.94" y="396.23" width="83.21" height="1" transform="translate(-3.87 1.44) rotate(-.56)"/>
    </g>
    <path class="cls-28" d="M155.28,434.56c-5.3,0-12.27-1.19-20.98-5.05l.4-.91c11.43,5.06,19.74,5.33,24.7,4.66,5.36-.72,8.06-2.65,8.09-2.67l.59.81c-.28.2-4.47,3.17-12.81,3.17Z"/>
    <rect class="cls-28" x="126.68" y="385.17" width="65.01" height="1"/>
    <g>
      <path class="cls-18" d="M92.52,384.44s.03,1.51,4.9,1.43l19.81-.04s2.33.03,2.33-2.2"/>
      <path class="cls-28" d="M97.01,386.37c-4.71,0-4.99-1.59-4.99-1.92l1-.07s.37,1.06,4.39.98l19.82-.04h0s.89,0,1.41-.53c.28-.28.42-.67.42-1.17h1c0,.78-.24,1.41-.72,1.89-.83.82-2.05.82-2.11.81l-19.8.04c-.14,0-.27,0-.4,0Z"/>
    </g>
    <path class="cls-19" d="M116.83,384.2l.89-58.73c0-.48-.19-2.64-.4-3.07-1.81-3.7-8.41-2.18-17.94-2.42,0,0,14.23,3.09,15.06,22.76l2.39,41.46Z"/>
    <path class="cls-19" d="M140.93,426.96s24.36,2.24,41.08-25.25c0,0-10.03,42.19-41.08,25.25Z"/>
    <path class="cls-19" d="M165.37,471.82s10.49-2.23,10.95-8.6c0,0,1.28,3.48,2.97,5.49s-13.92,3.11-13.92,3.11Z"/>
  </g>
  <g id="lampe">
    <polygon class="cls-6" points="282.4 174.59 284.06 169.99 299.78 169.99 301 174.59 282.4 174.59"/>
    <path class="cls-43" d="M270.57,188.93s20.67,5.44,42.26,0"/>
    <g class="cls-34">
      <polygon class="cls-45" points="291.43 171.37 167.34 478.32 431.35 478.66 291.43 171.37"/>
    </g>
    <polygon class="cls-35" points="270.57 188.93 312.83 188.93 297.11 172.7 286.28 172.7 270.57 188.93"/>
    <path class="cls-53" d="M286.25,172.73s5.12,1.08,10.9,0c0,0-5.02-3.04-10.9,0Z"/>
  </g>
  <g id="skraldespand">
    <path class="cls-10" d="M458.46,437.38s22.5,12.37,44.99,0v53.82c0,.93-.49,1.79-1.3,2.25-4.94,2.79-23.28,11.4-43.69-.79v-55.29Z"/>
    <path class="cls-48" d="M458.46,437.38l.32-5.15s21.01-11.17,44.67,0v5.15s-18.23,13.19-44.99,0Z"/>
    <path class="cls-46" d="M458.78,432.23s20.69-6.29,44.67,0c0,0-21.92-12.64-44.67,0Z"/>
    <path class="cls-14" d="M503.45,432.23c-24.01,12.65-44.67,0-44.67,0"/>
    <path class="cls-14" d="M503.71,437.47c-24.32,12.65-45.25,0-45.25,0"/>
    <path class="cls-8" d="M465.9,493.11s-3.09,9.26-12.78,4.85,7.49-7.27,7.49-7.27l5.29,2.42Z"/>
    <path class="cls-46" d="M465.9,493.11v1.81s-3.58,7.92-13.01,3.63c-.11-.05-.72-.37-.83-.45-.64-.44-1.96-2.09-1.9-2.73,0,0,8.57,8.09,15.75-2.25Z"/>
    <path class="cls-25" d="M490.32,496.46s9.46-2.51,12.05-13.88c0,0-.13,8.38-.44,8.93s-3.03,2.41-11.61,4.95Z"/>
    <path class="cls-25" d="M459.17,439.26l6.91,3.22s-5.42,2.06-6.9,7.81v-11.04Z"/>
  </g>
  <g id="reol">
    <path class="cls-26" d="M438.6,265.31s5.11-9.78,3.86-17.43-3.86,17.43-3.86,17.43Z"/>
    <path class="cls-54" d="M436.51,264.8s-7.19-4.47-7.11-12.52,7.11,12.52,7.11,12.52Z"/>
    <path class="cls-26" d="M440.35,265.8s7.59-6.74,7.1-12.78-7.1,12.78-7.1,12.78Z"/>
    <path class="cls-54" d="M440.63,268.08s-7.25-8.16-6.11-21.78c1.14-13.62,6.11,21.78,6.11,21.78Z"/>
    <path class="cls-2" d="M438.32,263.92s3.77-6.85,1.04-16.61c-2.73-9.75-1.04,16.61-1.04,16.61Z"/>
    <path class="cls-2" d="M438.62,265.31s6.06-4.7,7.86-14.84c1.8-10.14-7.86,14.84-7.86,14.84Z"/>
    <path class="cls-54" d="M439.08,267.66s4.57-7.25,5.57-20.88c1-13.63-5.57,20.88-5.57,20.88Z"/>
    <path class="cls-26" d="M437.76,265.8s-6.51-10.07-5.61-18.29,5.61,18.29,5.61,18.29Z"/>
    <path class="cls-41" d="M427.95,262.78l3.16,17.48c.1.53.48.9.93.9h12.67c.44,0,.83-.37.93-.89l3.39-17.48c.14-.72-.31-1.41-.93-1.41,0,0-7.08.82-9.48.82s-9.74-.82-9.74-.82c-.61,0-1.06.68-.93,1.39Z"/>
  </g>
  <g id="hotspots">
    <g id="bind">
      <path class="cls-22" d="M307.24,454.27s16.98,1.95,33.92,0h-33.92Z"/>
      <g>
        <path class="cls-13" d="M341.81,422.13c.96.2.73.89.73.89-18.01,1.31-36.03-.14-36.7-.19.08-.68.38-.7.38-.7l3.65-.98h27.73c.07,0,.13,0,.19.03.53.13,3.16.78,4.02.95Z"/>
        <path class="cls-17" d="M342.53,423.01v5.15s-.02,0-.02,0c0-3.07.02-5.16.02-5.16Z"/>
        <path class="cls-17" d="M342.53,423.01s0,2.09-.02,5.16l-18.34,8.08-18.35-7.69c0-2.92,0-4.99,0-5.26v-.13c0-.14,0-.25.02-.35.67.05,18.69,1.5,36.7.19Z"/>
        <path class="cls-38" d="M324.18,436.25l18.34-8.08c-.03,8.19-.11,23.35-.28,24.37-.23,1.41-1.77,1.57-1.77,1.57,0,0-30.39.33-32.4,0s-2.24-1.57-2.24-1.57c0,0,.02-15.55,0-23.98l18.35,7.69Z"/>
        <path class="cls-17" d="M305.82,422.82h.02c0,.1-.02.22-.02.35v-.35Z"/>
        <path class="cls-17" d="M305.83,428.56h0v-5.26c0,.27.02,2.34,0,5.26Z"/>
      </g>
      <g>
        <path class="cls-25" d="M317.59,428.76c-.04.17-.1.32-.19.45-.09.13-.21.23-.35.3-.14.07-.32.11-.53.11s-.39-.04-.53-.11c-.14-.07-.26-.18-.35-.3-.09-.13-.15-.28-.19-.45-.04-.17-.06-.35-.06-.55v-2.52h.48v2.47c0,.13,0,.26.03.38s.05.23.1.32c.05.09.11.17.2.23.08.06.19.08.32.08s.23-.03.32-.08c.08-.06.15-.13.2-.23.05-.09.08-.2.1-.32s.03-.25.03-.38v-2.47h.48v2.52c0,.2-.02.38-.06.55Z"/>
        <path class="cls-25" d="M318.41,429.53v-4.1h.46v4.1h-.46Z"/>
        <path class="cls-25" d="M320.46,429.58c-.06.01-.13.02-.19.02-.21,0-.35-.07-.44-.2s-.13-.32-.13-.56v-1.66h-.34v-.37h.34v-.73h.45v.73h.48v.37h-.48v1.56c0,.16.02.27.07.34.05.07.12.11.21.11.03,0,.07,0,.1-.01s.07-.02.09-.03v.37s-.08.04-.14.05Z"/>
        <path class="cls-25" d="M321.76,426.88c.1-.1.22-.16.36-.16.03,0,.05,0,.06,0l-.02.48s-.03,0-.04,0c-.01,0-.03,0-.05,0-.09,0-.16.03-.23.08-.07.06-.12.13-.17.22-.04.09-.08.19-.1.31-.02.11-.04.23-.04.35v1.38h-.46v-2.03c0-.11,0-.23,0-.35,0-.12,0-.24-.02-.34h.43c.01.09.02.18.02.28,0,.1,0,.19,0,.28h.01c.05-.23.12-.39.23-.5Z"/>
        <path class="cls-25" d="M323.72,429.53c-.01-.08-.03-.17-.03-.25,0-.08-.01-.15-.01-.2h-.01c-.04.16-.11.29-.21.38-.1.09-.24.14-.42.14-.07,0-.15-.01-.23-.04-.08-.03-.15-.08-.21-.14-.06-.07-.11-.15-.16-.25-.04-.1-.06-.23-.06-.37,0-.2.03-.36.1-.48.07-.12.16-.22.26-.29s.22-.12.35-.14c.13-.03.25-.04.37-.04h.18v-.12c0-.21-.04-.37-.12-.46-.08-.1-.19-.14-.33-.14-.1,0-.19.02-.28.08-.09.05-.16.12-.22.2l-.23-.29c.09-.12.21-.22.35-.28.14-.07.28-.1.42-.1.15,0,.28.03.39.08s.19.12.25.22c.06.1.11.22.14.36.03.14.04.3.04.49v1.1c0,.09,0,.2.01.31,0,.11.02.2.03.26h-.38ZM323.65,428.19h-.2c-.08,0-.16,0-.24.02-.08.01-.15.04-.21.08s-.11.1-.15.17c-.04.07-.06.16-.06.28,0,.17.04.29.11.37s.15.12.25.12.17-.03.23-.08c.06-.06.11-.13.15-.21.04-.09.07-.18.08-.28.02-.1.02-.2.02-.3v-.16Z"/>
        <path class="cls-25" d="M326.88,427.33c-.05-.07-.11-.13-.18-.17s-.16-.07-.26-.07-.19.04-.26.11-.1.17-.1.3.03.22.1.28c.07.06.18.11.32.17.08.03.15.06.22.11.07.04.14.09.2.16.06.07.11.14.14.23.04.09.05.19.05.32,0,.14-.02.27-.06.37-.04.11-.1.2-.17.27-.07.07-.16.13-.26.17s-.21.06-.33.06c-.16,0-.31-.03-.44-.1-.13-.07-.24-.16-.33-.27l.27-.3c.06.08.13.14.21.2s.18.08.31.08.21-.04.27-.12c.07-.08.1-.19.1-.33,0-.08-.01-.14-.04-.2-.03-.05-.06-.1-.1-.14s-.09-.07-.15-.1c-.06-.03-.12-.05-.19-.08s-.13-.06-.2-.09-.13-.08-.18-.14c-.05-.06-.1-.13-.13-.22s-.05-.19-.05-.31.02-.23.06-.33.1-.18.17-.25c.07-.07.16-.12.25-.16s.2-.06.31-.06c.16,0,.3.03.42.08.12.06.21.13.29.22l-.26.3Z"/>
        <path class="cls-25" d="M329.51,428.18c0,.22-.02.41-.07.59-.04.18-.11.33-.19.46-.08.13-.19.23-.31.3-.12.07-.26.11-.41.11s-.29-.04-.41-.11c-.12-.07-.22-.17-.31-.3-.08-.13-.15-.28-.19-.46s-.07-.37-.07-.59.02-.42.07-.6c.04-.18.11-.33.19-.46.08-.13.18-.23.31-.3.12-.07.26-.11.41-.11s.29.04.41.11c.12.07.22.17.31.3.08.13.15.28.19.46.04.18.07.38.07.6ZM329.04,428.18c0-.15,0-.29-.03-.41-.02-.13-.05-.24-.09-.33s-.1-.17-.16-.22-.14-.08-.23-.08-.16.03-.23.08-.12.13-.16.22-.07.2-.09.33c-.02.13-.03.27-.03.41s0,.29.03.41c.02.13.05.24.09.33s.09.17.16.22.14.08.23.08.17-.03.23-.08.12-.13.16-.22.07-.2.09-.33c.02-.13.03-.26.03-.41Z"/>
        <path class="cls-25" d="M331.14,425.75s-.1-.03-.16-.03c-.07,0-.13.02-.18.05-.05.03-.08.08-.11.13-.03.05-.05.12-.06.19-.01.07-.02.14-.02.22v.49h.44v.37h-.43v2.35h-.45v-2.35h-.35v-.37h.35v-.5c0-.14.01-.27.04-.39.03-.12.07-.22.13-.31.06-.09.14-.15.23-.2s.21-.07.34-.07c.04,0,.08,0,.12,0s.08.02.12.03l-.03.38Z"/>
        <path class="cls-25" d="M332.23,429.58c-.06.01-.13.02-.19.02-.21,0-.35-.07-.44-.2s-.13-.32-.13-.56v-1.66h-.34v-.37h.34v-.73h.45v.73h.48v.37h-.48v1.56c0,.16.02.27.07.34.05.07.12.11.21.11.03,0,.07,0,.1-.01s.07-.02.09-.03v.37s-.08.04-.14.05Z"/>
      </g>
      <path class="cls-29" d="M333.75,438.35s.06-3.09,3.8-2.34,2.06,3.84,2.06,3.84c0,0,.2,1.18,1.63,2.65.15.15.18.4.05.58-.87,1.25-4.12,5.83-4.66,5.77,0,0-.41.1-1.87,0,0,0-2.65,1.7-4.41,2,0,0-1.97.49-4-.93,0,0-2.08-1.17-.03-1.82,0,0,2.03-.69,2.01-1.47,0,0,.11-.38-.52-1.49-.02-.03-.04-.12-.02-.15.12-.26,3.89-5.54,4.27-5.37,0,0,1.62-.24,1.68-1.26Z"/>
      <g>
        <path class="cls-29" d="M327.28,448.1s2.69-.41,4.25-1.66,3.01-5.5,2.71-5.87-.44-4.43,2.85-3.68,1.04,4.24,1.04,4.24c0,0-3.88,5.63-4.11,6.97,0,0-1.64,2.56-4.71,2.02,0,0-4.43-1.53-2.03-2.02Z"/>
        <path class="cls-4" d="M330.13,450.39c-.27,0-.56-.02-.86-.08-.91-.31-2.95-1.09-2.91-1.81.02-.38.51-.53.88-.6h0s2.66-.42,4.16-1.62c1.52-1.21,2.81-5.2,2.67-5.61-.24-.28-.34-1.93.34-3.03.39-.63,1.18-1.3,2.72-.95.92.21,1.53.65,1.79,1.31.56,1.37-.58,3.16-.63,3.23-1.34,1.94-3.91,5.87-4.08,6.89l-.03.07s-1.44,2.19-4.05,2.19ZM327.31,448.3c-.52.11-.55.23-.55.23-.02.26,1.23.92,2.61,1.4,2.71.47,4.26-1.62,4.46-1.91.3-1.43,3.98-6.77,4.14-7,0-.01,1.07-1.68.59-2.86-.22-.53-.72-.89-1.51-1.07-1.01-.23-1.76,0-2.23.68-.67.97-.54,2.5-.42,2.68.08.09.1.24.07.48-.11,1.08-1.36,4.51-2.81,5.67-1.57,1.25-4.17,1.67-4.34,1.7Z"/>
      </g>
      <g>
        <path class="cls-29" d="M328.34,446.62s4.98-4.23,5.06-7.59"/>
        <path class="cls-4" d="M328.43,446.72l-.16-.19s4.94-4.23,5.02-7.5h.25c-.07,3.39-4.9,7.52-5.1,7.69Z"/>
      </g>
      <g>
        <path class="cls-29" d="M334.77,448.85s4.49-4.91,4.85-9"/>
        <path class="cls-4" d="M334.86,448.94l-.18-.17s4.46-4.93,4.82-8.93l.25.02c-.36,4.09-4.7,8.88-4.88,9.08Z"/>
      </g>
      <path class="cls-40" d="M331.36,447.07s2.48-1.16,3.29-5.05c0,0,.25-1.87,1.26-1.65s0,2.04,0,2.04c0,0-1.61,3.13-2.76,4.66,0,0-.67,1.08-1.79.99,0,0-1.29-.32,0-.99Z"/>
      <g>
        <ellipse class="cls-7" cx="314.99" cy="441.68" rx="7.92" ry="6.39"/>
        <path class="cls-27" d="M314.99,448.19c-4.43,0-8.04-2.92-8.04-6.51s3.61-6.51,8.04-6.51,8.04,2.92,8.04,6.51-3.61,6.51-8.04,6.51ZM314.99,435.41c-4.3,0-7.79,2.81-7.79,6.26s3.5,6.26,7.79,6.26,7.79-2.81,7.79-6.26-3.5-6.26-7.79-6.26Z"/>
      </g>
      <path class="cls-25" d="M311.54,449.28s-1.82,2.58,0,2.58,0-2.58,0-2.58Z"/>
      <path class="cls-25" d="M313.87,449.28s-1.82,2.58,0,2.58,0-2.58,0-2.58Z"/>
      <path class="cls-25" d="M316.23,449.28s-1.82,2.58,0,2.58,0-2.58,0-2.58Z"/>
      <path class="cls-25" d="M318.45,449.28s-1.82,2.58,0,2.58,0-2.58,0-2.58Z"/>
      <g>
        <path class="cls-25" d="M314.66,440.99c0,.23-.04.43-.11.6s-.17.32-.3.44-.27.21-.44.27c-.17.06-.35.09-.55.09-.36,0-.67-.09-.93-.28-.26-.19-.43-.47-.51-.86l.88-.23c.03.15.09.27.18.36.08.09.2.14.34.14.08,0,.15-.02.21-.05.06-.03.11-.08.15-.13.04-.05.07-.12.09-.19.02-.07.03-.14.03-.21,0-.19-.06-.34-.17-.43s-.26-.14-.44-.14h-.22v-.75h.25c.17,0,.29-.05.38-.15s.13-.24.13-.41c0-.11-.03-.22-.1-.32-.07-.1-.17-.15-.31-.15-.12,0-.21.04-.28.12-.07.08-.12.18-.15.3l-.86-.22c.05-.19.12-.36.22-.49s.2-.25.32-.33c.12-.09.25-.15.39-.19.14-.04.29-.06.43-.06.16,0,.32.03.47.08.15.05.29.13.41.23.12.1.22.23.29.38.07.15.11.33.11.53,0,.26-.06.48-.17.66-.11.18-.26.3-.44.36v.02c.21.06.38.18.51.37.12.19.19.4.19.65Z"/>
        <path class="cls-25" d="M315.72,440.57l-.73-1.58h1.05l.37,1.02.39-1.02h1.04l-.75,1.58.8,1.73h-1.07l-.41-1.05-.39,1.05h-1.08l.79-1.73Z"/>
      </g>
      <g>
        <path class="cls-25" d="M310.85,443.67v.21h0c.02-.07.06-.14.1-.18.05-.05.12-.07.21-.07.07,0,.13.02.18.06s.1.09.14.15c.04.06.06.14.08.23s.03.19.03.29,0,.2-.03.29c-.02.09-.04.16-.08.23-.04.06-.08.11-.14.15s-.12.05-.19.05c-.08,0-.14-.02-.2-.07-.05-.05-.09-.1-.11-.18h0v.85h-.23v-2.01h.22ZM310.85,444.35c0,.07,0,.14.02.21.01.06.03.12.05.17s.05.08.08.11c.03.03.07.04.11.04s.08-.01.11-.04c.03-.03.06-.06.08-.11s.04-.1.05-.17c0-.06.01-.13.01-.21s0-.14-.01-.2-.03-.12-.05-.17-.05-.08-.08-.11-.07-.04-.11-.04-.08.01-.11.04-.06.06-.08.11-.04.1-.05.17-.02.13-.02.2Z"/>
        <path class="cls-25" d="M312.26,443.7c.05-.05.11-.08.18-.08.01,0,.03,0,.03,0v.24s-.03,0-.03,0-.02,0-.02,0c-.04,0-.08.01-.11.04-.03.03-.06.06-.08.11-.02.05-.04.1-.05.15-.01.06-.02.12-.02.18v.69h-.23v-1.02c0-.05,0-.11,0-.17s0-.12,0-.17h.22s0,.09.01.14,0,.1,0,.14h0c.02-.11.06-.2.11-.25Z"/>
        <path class="cls-25" d="M313.57,444.35c0,.11-.01.21-.03.3-.02.09-.05.16-.1.23-.04.06-.09.11-.15.15s-.13.05-.21.05-.14-.02-.2-.05c-.06-.04-.11-.08-.15-.15-.04-.06-.07-.14-.1-.23-.02-.09-.03-.19-.03-.3s.01-.21.03-.3c.02-.09.05-.17.09-.23.04-.06.09-.11.15-.15.06-.04.13-.05.21-.05s.15.02.21.05c.06.04.11.08.15.15.04.06.07.14.1.23.02.09.03.19.03.3ZM313.33,444.35c0-.07,0-.14-.01-.21s-.03-.12-.05-.17-.05-.08-.08-.11-.07-.04-.11-.04-.08.01-.11.04-.06.06-.08.11-.04.1-.05.17-.01.13-.01.21,0,.14.01.21c0,.06.03.12.05.17s.05.08.08.11c.03.03.07.04.11.04s.08-.01.12-.04c.03-.03.06-.06.08-.11s.04-.1.04-.17c0-.06.01-.13.01-.21Z"/>
        <path class="cls-25" d="M314.29,445.05s-.06.01-.1.01c-.1,0-.18-.03-.22-.1s-.07-.16-.07-.28v-.83h-.17v-.19h.17v-.36h.22v.36h.24v.19h-.24v.78c0,.08.01.14.04.17.02.04.06.05.1.05.02,0,.03,0,.05,0,.02,0,.03,0,.05-.01v.18s-.04.02-.07.03Z"/>
        <path class="cls-25" d="M314.75,444.41c0,.07,0,.13.02.18.01.06.03.11.05.15s.05.07.08.1c.03.02.07.04.12.04.06,0,.11-.02.15-.06.04-.04.06-.08.08-.14l.17.1c-.04.09-.09.16-.15.21-.07.06-.15.08-.26.08-.15,0-.27-.06-.36-.19s-.13-.31-.13-.53c0-.11.01-.21.03-.3.02-.09.06-.17.1-.23.04-.06.09-.11.16-.15.06-.04.13-.05.2-.05.08,0,.15.02.21.05.06.04.1.08.14.14.04.06.06.13.08.21.02.08.02.17.02.26v.11h-.71ZM315.23,444.22c0-.12-.02-.21-.05-.29-.04-.07-.09-.11-.17-.11-.05,0-.09.01-.12.04-.03.03-.06.06-.08.1s-.03.08-.04.13-.01.09-.01.12h.48Z"/>
        <path class="cls-25" d="M316.18,445.07c-.08,0-.15-.02-.21-.05-.06-.04-.11-.08-.15-.15-.04-.06-.07-.14-.09-.23-.02-.09-.03-.19-.03-.3s0-.21.03-.3c.02-.09.05-.17.09-.23.04-.06.09-.11.15-.15.06-.04.13-.05.21-.05.07,0,.13.01.18.04s.09.05.12.08l-.12.17s-.05-.05-.08-.06c-.03-.02-.06-.02-.1-.02s-.08.01-.11.04-.06.06-.08.11c-.02.05-.04.1-.05.16s-.02.13-.02.21,0,.15.01.21.03.12.05.16c.02.05.05.08.08.11.03.03.08.04.12.04.04,0,.08,0,.11-.02.03-.02.06-.04.08-.06l.1.18c-.07.08-.17.12-.3.12Z"/>
        <path class="cls-25" d="M317.1,445.05s-.06.01-.1.01c-.1,0-.18-.03-.22-.1s-.07-.16-.07-.28v-.83h-.17v-.19h.17v-.36h.22v.36h.24v.19h-.24v.78c0,.08.01.14.04.17.02.04.06.05.1.05.02,0,.03,0,.05,0,.02,0,.03,0,.05-.01v.18s-.04.02-.07.03Z"/>
        <path class="cls-25" d="M317.66,443.26s-.01.08-.04.11c-.03.03-.06.04-.1.04-.04,0-.08-.01-.1-.04-.03-.03-.04-.07-.04-.11s.01-.08.04-.11c.03-.03.06-.04.1-.04s.08.02.1.04.04.07.04.11ZM317.4,445.03v-1.36h.23v1.36h-.23Z"/>
        <path class="cls-25" d="M318.93,444.35c0,.11-.01.21-.03.3-.02.09-.05.16-.1.23-.04.06-.09.11-.15.15s-.13.05-.21.05-.14-.02-.2-.05c-.06-.04-.11-.08-.15-.15-.04-.06-.07-.14-.1-.23-.02-.09-.03-.19-.03-.3s.01-.21.03-.3c.02-.09.05-.17.09-.23.04-.06.09-.11.15-.15.06-.04.13-.05.21-.05s.15.02.21.05c.06.04.11.08.15.15.04.06.07.14.1.23.02.09.03.19.03.3ZM318.69,444.35c0-.07,0-.14-.01-.21s-.03-.12-.05-.17-.05-.08-.08-.11-.07-.04-.11-.04-.08.01-.11.04-.06.06-.08.11-.04.1-.05.17-.01.13-.01.21,0,.14.01.21c0,.06.03.12.05.17s.05.08.08.11c.03.03.07.04.11.04s.08-.01.12-.04c.03-.03.06-.06.08-.11s.04-.1.04-.17c0-.06.01-.13.01-.21Z"/>
        <path class="cls-25" d="M319.93,445.03v-.87s0-.08,0-.12c0-.04-.01-.08-.03-.11-.01-.03-.03-.06-.06-.08-.02-.02-.06-.03-.1-.03-.04,0-.07.01-.1.03s-.06.05-.08.09c-.02.04-.04.08-.05.13-.01.05-.02.11-.02.17v.78h-.23v-1.02c0-.05,0-.11,0-.17s0-.12,0-.17h.22s0,.09.01.14c0,.05,0,.08,0,.1h0c.03-.08.07-.15.12-.2.06-.05.13-.08.21-.08.07,0,.13.02.17.05.05.03.08.07.11.12.02.05.04.11.05.17,0,.07.01.13.01.2v.87h-.23Z"/>
      </g>
    </g>
    <g id="tamponer">
      <rect class="cls-16" x="298.2" y="380.22" width="47.96" height="20.39"/>
      <polyline class="cls-51" points="346.16 380.22 342.6 378.41 302.11 378.41 298.2 380.22"/>
      <path class="cls-3" d="M335.67,398.08c-.48-.31-.86-.28-1.35-.25-.75.04-1.68.1-3.22-.99-2.38-1.69-4.74-1.71-4.77-1.71h0v-.5c.06.02,2.53,0,5.06,1.8,1.39.99,2.19.94,2.9.9.54-.03,1.04-.06,1.65.33l-.27.42Z"/>
      <path class="cls-25" d="M326.07,396.16s1.7-1.26,1.07-2.77l-15.23-6.09s-3.9.22-1.18,3.05l15.34,5.81Z"/>
      <path class="cls-31" d="M298.2,383.6s15.98-.34,21.6,3.2,15.68,6.04,26.36,6.3v-12.88h-47.96v3.38Z"/>
      <g>
        <path class="cls-25" d="M303.52,393.45c0,.12-.02.24-.05.35-.04.11-.08.22-.14.32-.06.1-.13.21-.21.31-.08.1-.17.21-.26.33l-.95,1.18h1.55v.44h-2.16v-.46l1.21-1.48c.14-.17.25-.34.33-.49.08-.15.12-.31.12-.46,0-.18-.04-.33-.13-.46-.09-.13-.23-.19-.41-.19-.16,0-.3.05-.4.15s-.17.25-.21.44l-.52-.05c.06-.32.19-.56.39-.73.2-.16.46-.25.77-.25.17,0,.33.03.46.08s.25.13.33.22c.09.09.16.21.2.33s.07.27.07.41Z"/>
        <path class="cls-25" d="M306.63,394.42c0,.15,0,.31-.02.46-.01.16-.04.31-.07.46s-.08.29-.14.43c-.06.13-.13.25-.23.35-.09.1-.2.18-.33.24-.13.06-.27.09-.44.09s-.31-.03-.44-.09c-.13-.06-.23-.14-.33-.24-.09-.1-.17-.22-.22-.35-.06-.13-.11-.27-.14-.43s-.06-.31-.07-.46c-.01-.16-.02-.31-.02-.46,0-.22.02-.46.05-.7.03-.24.09-.46.19-.65.09-.2.22-.36.37-.48s.36-.19.62-.19.46.06.62.19.28.29.38.48c.09.19.15.41.19.65.03.24.05.47.05.7ZM306.07,394.42c0-.14,0-.3-.02-.48s-.04-.35-.09-.52c-.04-.16-.11-.3-.2-.42-.09-.11-.21-.17-.36-.17s-.27.06-.36.17c-.09.11-.15.25-.2.42-.05.16-.08.34-.09.52s-.02.34-.02.48c0,.09,0,.2,0,.31,0,.11.02.23.03.35.01.12.04.23.07.34.03.11.07.21.12.3s.11.16.18.21.16.08.26.08.18-.03.26-.08.13-.12.18-.21.09-.19.12-.3.05-.22.07-.34c.01-.12.02-.23.03-.35,0-.11,0-.22,0-.31Z"/>
        <path class="cls-25" d="M307.77,394.92l-.74-1.31h.57l.48.97.47-.97h.55l-.74,1.31.82,1.46h-.58l-.54-1.08-.54,1.08h-.56l.81-1.46Z"/>
      </g>
      <path class="cls-25" d="M333.01,386.39s-2.39,3.1,0,3.1,0-3.1,0-3.1Z"/>
      <path class="cls-25" d="M336.12,386.39s-2.39,3.1,0,3.1,0-3.1,0-3.1Z"/>
      <path class="cls-25" d="M339.23,386.39s-2.39,3.1,0,3.1,0-3.1,0-3.1Z"/>
      <path class="cls-25" d="M342.35,386.39s-2.39,3.1,0,3.1,0-3.1,0-3.1Z"/>
      <g>
        <path class="cls-25" d="M333.9,383.04c-.11-.11-.24-.17-.41-.17-.05,0-.09,0-.14.02-.04.01-.08.03-.12.06s-.06.07-.09.11c-.02.05-.03.1-.03.16,0,.11.04.19.11.25.07.06.17.11.3.17.07.03.15.07.22.11.08.04.14.09.21.15.06.06.11.13.15.21.04.08.06.17.06.28,0,.12-.02.24-.07.33-.05.1-.11.18-.18.24-.08.07-.17.12-.27.15-.1.03-.21.05-.33.05-.16,0-.32-.03-.46-.08-.14-.06-.25-.12-.33-.21l.27-.32c.06.07.14.12.23.16.09.04.18.06.28.06.11,0,.19-.03.26-.09.07-.06.1-.15.1-.26s-.04-.2-.12-.26c-.08-.06-.19-.12-.32-.18-.08-.03-.16-.07-.23-.11-.07-.04-.13-.09-.19-.15-.05-.06-.1-.12-.13-.2s-.05-.17-.05-.27c0-.13.02-.25.07-.34.05-.09.11-.17.19-.24.08-.06.17-.11.27-.14.1-.03.2-.05.3-.05.15,0,.28.02.4.06.12.04.22.1.3.19l-.28.31Z"/>
        <path class="cls-25" d="M336.38,384.58c-.03.12-.09.22-.16.31-.08.09-.17.16-.29.21s-.26.08-.43.08-.31-.03-.43-.08c-.12-.05-.21-.12-.29-.21-.07-.09-.13-.19-.16-.31-.03-.12-.05-.24-.05-.38v-1.65h.5v1.61c0,.08,0,.16.02.23.01.07.03.14.07.19.03.06.08.1.13.13.05.03.13.05.21.05s.16-.02.21-.05c.06-.03.1-.08.13-.13.03-.06.05-.12.07-.19s.02-.15.02-.23v-1.61h.5v1.65c0,.13-.02.26-.05.38Z"/>
        <path class="cls-25" d="M338.63,383.3c0,.13-.02.24-.07.34s-.11.18-.18.24-.16.11-.26.14-.2.05-.3.05h-.35v1.02h-.49v-2.55h.82c.09,0,.19.01.29.04.1.02.19.07.27.12.08.06.14.14.2.23.05.1.08.22.08.36ZM338.16,383.31c0-.14-.04-.24-.11-.3-.08-.06-.17-.09-.29-.09h-.28v.81h.28c.12,0,.21-.04.29-.11.08-.07.11-.17.11-.31Z"/>
        <path class="cls-25" d="M339.05,385.1v-2.55h1.32v.38h-.84v.68h.78v.35h-.78v.75h.88v.39h-1.36Z"/>
        <path class="cls-25" d="M342.09,385.1l-.46-1.09h-.28v1.09h-.48v-2.55h.84c.12,0,.23.01.34.04.1.03.19.07.26.13.07.06.13.14.17.23.04.09.06.2.06.33,0,.1-.01.19-.04.26s-.07.14-.11.19c-.04.05-.09.1-.15.13-.05.03-.11.05-.16.07l.53,1.17h-.53ZM342.06,383.3c0-.08-.01-.14-.04-.19-.03-.05-.06-.09-.1-.12-.04-.03-.08-.05-.13-.06-.05-.01-.1-.02-.15-.02h-.28v.79h.28c.12,0,.22-.03.3-.1.08-.07.12-.17.12-.3Z"/>
      </g>
      <path class="cls-22" d="M298.2,400.61s24.02,1.95,47.96,0h-47.96Z"/>
    </g>
    <g id="toiletpapir">
      <path class="cls-24" d="M179.37,332.22s-1.22,8.9,0,15.96v-15.96Z"/>
      <path class="cls-24" d="M200.19,332.26s1.22,8.88,0,15.92v-15.92Z"/>
      <rect class="cls-9" x="170.73" y="340.37" width="38.11" height="3.02"/>
      <path class="cls-29" d="M179.37,332.22v31.58s0,0,0,0h20.81s0,0,0,0v-31.53s-.02-.06-.05-.06h-20.76s0,0,0,0Z"/>
      <path class="cls-24" d="M200.19,348.25c-9.8,1.03-20.82,0-20.82,0"/>
      <polygon class="cls-30" points="170.73 340.38 174.2 339.54 175.33 339.54 172.03 340.38 170.73 340.38"/>
      <polygon class="cls-30" points="208.84 340.37 205.37 339.53 204.24 339.53 207.53 340.37 208.84 340.37"/>
      <polygon class="cls-33" points="175.33 339.54 175.33 340.38 172.03 340.38 175.33 339.54"/>
      <polygon class="cls-33" points="204.24 339.53 204.24 340.37 207.53 340.37 204.24 339.53"/>
    </g>
  </g>
</svg>