<svg id="badevaerelse" xmlns="http://www.w3.org/2000/svg" viewBox="0 0 474.76 372.7">
  <defs>
    <style>
      .cls-1 {
        fill: #bab1ad;
      }

      .cls-2 {
        fill: #7e8659;
      }

      .cls-3 {
        fill: #d9dfe8;
      }

      .cls-4 {
        fill: #e6d3dd;
      }

      .cls-5 {
        fill: #9e9f9d;
      }

      .cls-6 {
        fill: #45251d;
      }

      .cls-7 {
        fill: #e76aa8;
      }

      .cls-8 {
        fill: #e9e9ea;
      }

      .cls-9 {
        fill: #cfceca;
      }

      .cls-10 {
        fill: #f6f6f6;
      }

      .cls-11 {
        fill: #b5d2cd;
      }

      .cls-12 {
        fill: #eff8f8;
      }

      .cls-13 {
        fill: #d4256e;
      }

      .cls-14 {
        fill: none;
        stroke: #cfd1d2;
        stroke-miterlimit: 10;
        stroke-width: .5px;
      }

      .cls-15 {
        fill: #cacbcd;
      }

      .cls-16 {
        fill: #90c5dd;
      }

      .cls-17 {
        fill: #e82a78;
      }

      .cls-18 {
        fill: #ebebec;
      }

      .cls-19 {
        fill: #f1f2f2;
      }

      .cls-20 {
        fill: #784940;
      }

      .cls-21 {
        fill: #afcbc6;
      }

      .cls-22 {
        fill: #8f594e;
      }

      .cls-23 {
        fill: #3a2515;
      }

      .cls-24 {
        fill: #ededee;
      }

      .cls-25 {
        fill: #fff;
      }

      .cls-26 {
        fill: #5f6743;
      }

      .cls-27 {
        fill: #d7639d;
      }

      .cls-28 {
        fill: #e2e3e4;
      }

      .cls-29 {
        fill: #f3f4f4;
      }

      .cls-30 {
        fill: #c4c4c1;
      }

      .cls-31 {
        fill: #1e77a3;
      }

      .cls-32 {
        fill: #d4d6d7;
      }

      .cls-33 {
        fill: #b9b9b6;
      }

      .cls-34 {
        opacity: .1;
      }

      .cls-35 {
        fill: #d0b37c;
      }

      .cls-36 {
        fill: #e8f5f5;
      }

      .cls-37 {
        fill: #485568;
      }

      .cls-38 {
        fill: #f0accd;
      }

      .cls-39 {
        fill: #764b42;
      }

      .cls-40 {
        fill: #e1c9d5;
      }

      .cls-41 {
        fill: #64748b;
      }

      .cls-42 {
        fill: #945b51;
      }

      .cls-43 {
        fill: #e8c487;
      }

      .cls-44 {
        fill: #dcd7d0;
      }

      .cls-45 {
        fill: #f7e9af;
      }

      .cls-46 {
        fill: #cfd1d2;
      }

      .cls-47 {
        fill: #7f4e44;
      }

      .cls-48 {
        fill: #e0e1e2;
      }

      .cls-49 {
        fill: #beb5b0;
      }

      .cls-50 {
        fill: #fbfdff;
      }

      .cls-51 {
        fill: #1a6c95;
      }

      .cls-52 {
        fill: #c7e7e0;
      }

      .cls-53 {
        fill: #633b33;
      }

      .cls-54 {
        fill: #727a51;
      }

      .cls-55 {
        fill: #a59d9a;
      }
    </style>
  </defs>
  <g id="baggrund">
    <g id="sidevaeg_venstre">
      <g>
        <polygon class="cls-49" points="53.85 1.6 .5 41.37 2.28 370.97 54.87 290.24 53.85 1.6"/>
        <path class="cls-44" d="M1.79,372.64L0,41.12,54.34.6l1.03,289.78-.08.12L1.79,372.64ZM1,41.62l1.77,327.68,51.59-79.21L53.35,2.59,1,41.62Z"/>
      </g>
      <g>
        <line class="cls-55" x1="54.78" y1="263.85" x2="1.86" y2="338.94"/>
        <rect class="cls-44" x="-17.61" y="301.02" width="91.86" height=".75" transform="translate(-234.45 151.08) rotate(-54.86)"/>
      </g>
      <g>
        <line class="cls-55" x1="54.78" y1="237.27" x2="1.78" y2="308.39"/>
        <rect class="cls-44" x="-16.07" y="272.45" width="88.69" height=".75" transform="translate(-207.54 132.74) rotate(-53.37)"/>
      </g>
      <g>
        <line class="cls-55" x1="54.78" y1="210.68" x2="1.78" y2="278.91"/>
        <rect class="cls-44" x="-14.91" y="244.42" width="86.39" height=".75" transform="translate(-182.46 117.07) rotate(-52.19)"/>
      </g>
      <g>
        <line class="cls-55" x1="54.78" y1="184.1" x2="1.86" y2="250.57"/>
        <rect class="cls-44" x="-14.16" y="216.96" width="84.96" height=".75" transform="translate(-159.41 104.22) rotate(-51.5)"/>
      </g>
      <g>
        <line class="cls-55" x1="54.66" y1="157.65" x2="1.48" y2="221.65"/>
        <rect class="cls-44" x="-13.54" y="189.27" width="83.22" height=".75" transform="translate(-135.74 90.05) rotate(-50.28)"/>
      </g>
      <g>
        <line class="cls-55" x1="54.87" y1="131.25" x2="1.23" y2="191.36"/>
        <rect class="cls-44" x="-12.23" y="160.31" width="80.56" height="2" transform="translate(-110.97 74.81) rotate(-48.25)"/>
      </g>
      <rect class="cls-44" x="13.22" y="178.12" width=".75" height="175.48"/>
      <rect class="cls-44" x="23.23" y="165.81" width=".75" height="172.43"/>
      <rect class="cls-44" x="32.3" y="156.21" width=".75" height="168.09"/>
      <rect class="cls-44" x="41.06" y="145.47" width=".75" height="166.49"/>
      <rect class="cls-44" x="47.81" y="137.74" width=".75" height="162.76"/>
    </g>
    <g id="bagvaeg">
      <g>
        <rect class="cls-49" x="54.87" y="1" width="365.65" height="290.37"/>
        <path class="cls-44" d="M421.01,291.88H54.37V.5h366.65v291.37ZM55.37,290.88h364.65V1.5H55.37v289.37Z"/>
      </g>
      <rect class="cls-44" x="54.64" y="130.67" width="365.88" height="2"/>
      <rect class="cls-44" x="54.75" y="157.91" width="365.88" height=".75"/>
      <rect class="cls-44" x="54.75" y="184.53" width="365.88" height=".75"/>
      <rect class="cls-44" x="54.64" y="211.15" width="365.88" height=".75"/>
      <rect class="cls-44" x="54.64" y="237.76" width="365.88" height=".75"/>
      <rect class="cls-44" x="54.64" y="264.38" width="365.88" height=".75"/>
      <rect class="cls-44" x="79.67" y="131.67" width=".75" height="159.71"/>
      <rect class="cls-44" x="108.05" y="131.67" width=".75" height="159.71"/>
      <rect class="cls-44" x="136.42" y="131.67" width=".75" height="159.71"/>
      <rect class="cls-44" x="164.79" y="131.67" width=".75" height="159.71"/>
      <rect class="cls-44" x="193.16" y="131.67" width=".75" height="159.71"/>
      <rect class="cls-44" x="221.54" y="131.67" width=".75" height="159.71"/>
      <rect class="cls-44" x="249.91" y="131.67" width=".75" height="159.71"/>
      <rect class="cls-44" x="278.28" y="131.67" width=".75" height="159.71"/>
      <rect class="cls-44" x="306.65" y="131.67" width=".75" height="159.71"/>
      <rect class="cls-44" x="335.02" y="131.67" width=".75" height="159.71"/>
      <rect class="cls-44" x="363.4" y="131.67" width=".75" height="159.71"/>
      <rect class="cls-44" x="391.77" y="131.67" width=".75" height="159.71"/>
    </g>
    <g id="sidevaeg_hoejre">
      <g>
        <polygon class="cls-49" points="421.52 1 474.26 40.84 472.5 371.01 420.51 290.14 421.52 1"/>
        <path class="cls-44" d="M472.99,372.7l-52.98-82.41v-.15S421.03,0,421.03,0l53.73,40.59v.25s-1.77,331.86-1.77,331.86ZM421.02,290l51,79.33,1.75-328.24L422.02,2l-1.01,287.99Z"/>
      </g>
      <g>
        <line class="cls-55" x1="420.6" y1="263.71" x2="472.92" y2="338.93"/>
        <rect class="cls-44" x="446.39" y="255.51" width=".75" height="91.62" transform="translate(-92.06 309.01) rotate(-34.82)"/>
      </g>
      <g>
        <line class="cls-55" x1="420.6" y1="237.08" x2="472.99" y2="308.32"/>
        <rect class="cls-44" x="446.42" y="228.48" width=".75" height="88.43" transform="translate(-74.71 317.69) rotate(-36.33)"/>
      </g>
      <g>
        <line class="cls-55" x1="420.6" y1="210.45" x2="472.99" y2="278.79"/>
        <rect class="cls-44" x="446.42" y="201.56" width=".75" height="86.11" transform="translate(-56.62 322.3) rotate(-37.47)"/>
      </g>
      <g>
        <line class="cls-55" x1="420.6" y1="183.82" x2="472.92" y2="250.41"/>
        <rect class="cls-44" x="446.39" y="174.77" width=".75" height="84.68" transform="translate(-38.68 322.38) rotate(-38.15)"/>
      </g>
      <g>
        <line class="cls-55" x1="420.72" y1="157.32" x2="473.3" y2="221.43"/>
        <rect class="cls-44" x="446.63" y="147.92" width=".75" height="82.92" transform="translate(-18.71 326.42) rotate(-39.36)"/>
      </g>
      <g>
        <line class="cls-55" x1="420.64" y1="130.93" x2="473.54" y2="191.09"/>
        <rect class="cls-44" x="446.09" y="120.96" width="2" height="80.11" transform="translate(5.02 335.35) rotate(-41.33)"/>
      </g>
      <g>
        <line class="cls-55" x1="461.31" y1="353.61" x2="461.31" y2="177.83"/>
        <rect class="cls-44" x="460.94" y="177.83" width=".75" height="175.78"/>
      </g>
      <g>
        <line class="cls-55" x1="451.42" y1="338.23" x2="451.42" y2="165.5"/>
        <rect class="cls-44" x="451.05" y="165.5" width=".75" height="172.73"/>
      </g>
      <g>
        <line class="cls-55" x1="442.45" y1="324.27" x2="442.45" y2="155.88"/>
        <rect class="cls-44" x="442.07" y="155.88" width=".75" height="168.38"/>
      </g>
      <g>
        <line class="cls-55" x1="433.79" y1="311.91" x2="433.79" y2="145.13"/>
        <rect class="cls-44" x="433.41" y="145.13" width=".75" height="166.78"/>
      </g>
      <g>
        <line class="cls-55" x1="427.12" y1="300.42" x2="427.12" y2="137.38"/>
        <rect class="cls-44" x="426.75" y="137.38" width=".75" height="163.05"/>
      </g>
    </g>
    <g id="gulv">
      <g>
        <polygon class="cls-1" points="2.66 372.06 55.45 291.38 420.76 291.95 472.21 372.06 2.66 372.06"/>
        <path class="cls-44" d="M473.12,372.55H1.74l53.44-81.68h.27l365.59.58,52.08,81.1ZM3.59,371.55h467.7l-50.8-79.1-364.77-.58L3.59,371.55Z"/>
      </g>
      <g>
        <line class="cls-55" x1="37.23" y1="371.77" x2="80.39" y2="291.66"/>
        <rect class="cls-44" x="13.32" y="331.34" width="90.99" height=".75" transform="translate(-261.14 226.23) rotate(-61.7)"/>
      </g>
      <g>
        <line class="cls-55" x1="68.63" y1="372.06" x2="108.76" y2="291.95"/>
        <rect class="cls-44" x="43.9" y="331.63" width="89.59" height=".75" transform="translate(-247.88 262.66) rotate(-63.4)"/>
      </g>
      <g>
        <line class="cls-55" x1="103.97" y1="371.83" x2="137.13" y2="291.73"/>
        <rect class="cls-44" x="77.21" y="331.41" width="86.69" height=".75" transform="translate(-232.11 316.23) rotate(-67.51)"/>
      </g>
      <g>
        <line class="cls-55" x1="138.94" y1="372.06" x2="165.51" y2="291.95"/>
        <rect class="cls-44" x="110.03" y="331.63" width="84.39" height=".75" transform="translate(-210.83 371.88) rotate(-71.64)"/>
      </g>
      <g>
        <line class="cls-55" x1="215.43" y1="371.77" x2="222.25" y2="291.66"/>
        <polygon class="cls-44" points="215.8 371.8 215.05 371.73 221.88 291.63 222.62 291.7 215.8 371.8"/>
      </g>
      <g>
        <line class="cls-55" x1="257.52" y1="371.83" x2="250.7" y2="291.73"/>
        <rect class="cls-44" x="253.74" y="291.59" width=".75" height="80.39" transform="translate(-27.24 22.76) rotate(-4.87)"/>
      </g>
      <g>
        <line class="cls-55" x1="176.14" y1="371.83" x2="193.88" y2="291.73"/>
        <rect class="cls-44" x="143.99" y="331.41" width="82.04" height=".75" transform="translate(-178.91 440.72) rotate(-77.52)"/>
      </g>
      <g>
        <line class="cls-55" x1="435.64" y1="371.98" x2="392.48" y2="291.88"/>
        <rect class="cls-44" x="413.69" y="286.44" width=".75" height="90.99" transform="translate(-107.9 236.11) rotate(-28.31)"/>
      </g>
      <g>
        <line class="cls-55" x1="404.24" y1="372.13" x2="364.11" y2="292.03"/>
        <rect class="cls-44" x="383.8" y="287.28" width=".75" height="89.59" transform="translate(-108.05 207.27) rotate(-26.61)"/>
      </g>
      <g>
        <line class="cls-55" x1="368.9" y1="372.13" x2="335.74" y2="292.03"/>
        <rect class="cls-44" x="351.94" y="288.73" width=".75" height="86.69" transform="translate(-100.23 160.02) rotate(-22.49)"/>
      </g>
      <g>
        <line class="cls-55" x1="333.93" y1="371.98" x2="307.37" y2="291.88"/>
        <rect class="cls-44" x="320.27" y="289.74" width=".75" height="84.39" transform="translate(-88.18 117.79) rotate(-18.35)"/>
      </g>
      <g>
        <line class="cls-55" x1="296.73" y1="371.98" x2="278.99" y2="291.88"/>
        <rect class="cls-44" x="287.49" y="290.91" width=".75" height="82.04" transform="translate(-64.96 70.09) rotate(-12.49)"/>
      </g>
      <rect class="cls-44" x="48.54" y="301.56" width="378.63" height=".75"/>
      <rect class="cls-44" x="41.27" y="312.67" width="393.04" height=".75"/>
      <rect class="cls-44" x="33.19" y="325.03" width="409.06" height=".75"/>
      <rect class="cls-44" x="24.05" y="338.98" width="427.15" height=".75"/>
      <rect class="cls-44" x="13.99" y="354.36" width="447.09" height=".75"/>
    </g>
    <rect class="cls-47" x="313.25" y="143.28" width="94.35" height="3.7"/>
    <polygon class="cls-20" points="313.25 143.28 320.94 139.18 400.73 139.18 407.6 143.28 313.25 143.28"/>
    <path class="cls-37" d="M391.19,121.45c-10.11-1.26-19.22,0-19.22,0l9.48,1.17,9.74-1.17Z"/>
  </g>
  <g id="spejl">
    <rect class="cls-9" x="185.84" y="67.06" width="97.89" height="123.95"/>
    <rect class="cls-36" x="192.93" y="73.97" width="83.82" height="110.7"/>
    <polygon class="cls-12" points="192.93 104.54 224.63 73.97 232.16 73.97 192.93 111.42 192.93 104.54"/>
    <polygon class="cls-12" points="192.93 131.4 250.23 73.97 276.74 73.97 276.74 89.59 192.93 177.13 192.93 131.4"/>
    <polygon class="cls-12" points="251.01 184.67 276.74 154.56 276.74 150.32 246.95 184.67 251.01 184.67"/>
    <polygon class="cls-12" points="276.74 141.85 238.53 184.67 225.9 184.67 276.74 129.32 276.74 141.85"/>
    <polygon class="cls-50" points="192.93 143.67 261.85 73.97 276.74 73.97 276.74 78.56 192.93 162.43 192.93 143.67"/>
  </g>
  <g id="taeppe">
    <g>
      <ellipse class="cls-52" cx="241.6" cy="331.72" rx="164.5" ry="31.37"/>
      <path class="cls-11" d="M241.6,364.59c-81.6,0-166-12.3-166-32.87s84.4-32.87,166-32.87,165.99,12.3,165.99,32.87-84.4,32.87-165.99,32.87ZM241.6,301.84c-97.5,0-163,15.45-163,29.87s65.5,29.87,163,29.87,162.99-15.45,162.99-29.87-65.5-29.87-162.99-29.87Z"/>
    </g>
  </g>
  <g id="skab">
    <polyline class="cls-53" points="236.35 210.66 236.35 320.55 169.34 320.55 169.34 211.88"/>
    <polygon class="cls-53" points="185.6 200.73 284.17 200.73 303.29 211.31 169.34 211.88 185.6 200.73"/>
    <polygon class="cls-39" points="236.31 211.31 236.35 320.55 303.29 320.55 303.29 211.31 236.31 211.31"/>
    <ellipse class="cls-23" cx="227.59" cy="265.61" rx="4.74" ry="2.31"/>
    <path class="cls-23" d="M350.99,274.65s3.16,3.34,0,7.28"/>
    <rect class="cls-53" x="228.74" y="255.26" width="109.57" height=".5" transform="translate(26.91 538.04) rotate(-89.78)"/>
    <polygon class="cls-42" points="303.29 267.03 236.35 267.03 236.35 255.51 283.5 255.51 303.29 264.52 303.29 267.03"/>
    <polygon class="cls-42" points="303.29 320.55 236.33 320.55 236.33 308.58 283.49 308.58 303.29 317.94 303.29 320.55"/>
    <polyline class="cls-53" points="303.29 211.31 350.99 221.65 350.99 335.12 303.29 320.5"/>
    <path class="cls-18" d="M271.01,203.83c0,.91-15.52,4.25-34.66,4.25s-34.66-3.33-34.66-4.25,15.52-1.65,34.66-1.65,34.66.74,34.66,1.65Z"/>
    <path class="cls-28" d="M232.41,202.18v-29.6s3.71-3.82,7.89,0v29.6h-7.89Z"/>
    <path class="cls-32" d="M240.3,195.16h4.91s2.46,3.02,0,5.03h-4.91v-5.03Z"/>
    <path class="cls-32" d="M232.41,200.2h-5.32s-2.67-3.02,0-5.03h5.32v5.03Z"/>
    <path class="cls-32" d="M232.42,172.08s3.62-2.7,7.89,0c0,0,2.19,7.94.87,7.94h-9.69s-1.33.37.93-7.94Z"/>
    <path class="cls-15" d="M234.86,180.02h2.98v.44s-1.31.68-2.98,0v-.44Z"/>
    <path class="cls-5" d="M265.35,211.31s-12.73,9.77-29.04,10.37v-10.37h29.04Z"/>
    <path class="cls-21" d="M169.34,320.55s65.68,5.5,133.96,0h-133.96Z"/>
    <path class="cls-21" d="M303.29,320.55s25.24,10.59,47.7,14.57l-47.7-14.57Z"/>
  </g>
  <g id="toilet">
    <path class="cls-18" d="M50.87,330.47s38.17,9.84,74.49,0c0,0-16.31-24.41-14.45-39.37,0,0,17.42-16.93,19.64-35.04,0,0,6.3,1.57,5.19-9.84H37.9s-3.71,9.06,7.78,10.63c11.49,1.57,5.19,73.63,5.19,73.63Z"/>
    <path class="cls-18" d="M37.41,246.21s-2.73-1.3-3.76-5.9,0-65.94,0-65.94c0,0,.1-4.16,3.76-4.6,2.29-.27,13.99.51,20.97.51,4.7,0,4.61,4.68,4.55,6.72-.13,4.73.15,66.16.15,66.16,0,0,0,3.06-3.04,3.05h-22.63Z"/>
    <path class="cls-18" d="M63.07,167.08l6.7,78.66h65.01s-.9-4.21-2.37-4.33-58.95.12-58.95.12l-6.55-74.45s-1.77-2.18-3.83,0Z"/>
    <g>
      <line class="cls-18" x1="33.59" y1="177.43" x2="62.91" y2="178.13"/>
      <rect class="cls-28" x="47.75" y="163.12" width="1" height="29.32" transform="translate(-130.62 221.8) rotate(-88.64)"/>
    </g>
    <g>
      <line class="cls-18" x1="47.04" y1="257.19" x2="130.24" y2="256.4"/>
      <rect class="cls-28" x="47.03" y="256.29" width="83.21" height="1" transform="translate(-2.5 .88) rotate(-.56)"/>
    </g>
    <path class="cls-28" d="M98.37,294.63c-5.3,0-12.27-1.19-20.98-5.05l.4-.91c11.43,5.06,19.74,5.33,24.7,4.66,5.36-.72,8.06-2.65,8.09-2.67l.59.81c-.28.2-4.47,3.17-12.81,3.17Z"/>
    <rect class="cls-28" x="69.77" y="245.24" width="65.01" height="1"/>
    <g>
      <path class="cls-18" d="M35.61,244.5s.03,1.51,4.9,1.43l19.81-.04s2.33.03,2.33-2.2"/>
      <path class="cls-28" d="M40.1,246.43c-4.71,0-4.99-1.59-4.99-1.92l1-.07s.37,1.06,4.39.98l19.82-.04h0s.89,0,1.41-.53c.28-.28.42-.67.42-1.17h1c0,.78-.24,1.41-.72,1.89-.83.82-2.05.82-2.11.81l-19.8.04c-.14,0-.27,0-.4,0Z"/>
    </g>
    <path class="cls-19" d="M59.92,244.27l.89-58.73c0-.48-.19-2.64-.4-3.07-1.81-3.7-8.41-2.18-17.94-2.42,0,0,14.23,3.09,15.06,22.76l2.39,41.46Z"/>
    <path class="cls-19" d="M84.02,287.02s24.36,2.24,41.08-25.25c0,0-10.03,42.19-41.08,25.25Z"/>
    <path class="cls-19" d="M108.46,331.88s10.49-2.23,10.95-8.6c0,0,1.28,3.48,2.97,5.49s-13.92,3.11-13.92,3.11Z"/>
  </g>
  <g id="lampe">
    <polygon class="cls-6" points="225.49 34.65 227.16 30.06 242.87 30.06 244.1 34.65 225.49 34.65"/>
    <path class="cls-43" d="M213.66,49s20.67,5.44,42.26,0"/>
    <g class="cls-34">
      <polygon class="cls-45" points="234.52 31.44 110.43 338.39 374.45 338.72 234.52 31.44"/>
    </g>
    <polygon class="cls-35" points="213.66 49 255.92 49 240.2 32.77 229.37 32.77 213.66 49"/>
    <path class="cls-53" d="M229.34,32.79s5.12,1.08,10.9,0c0,0-5.02-3.04-10.9,0Z"/>
  </g>
  <g id="skraldespand">
    <path class="cls-10" d="M401.55,297.45s22.5,12.37,44.99,0v53.82c0,.93-.49,1.79-1.3,2.25-4.94,2.79-23.28,11.4-43.69-.79v-55.29Z"/>
    <path class="cls-48" d="M401.55,297.45l.32-5.15s21.01-11.17,44.67,0v5.15s-18.23,13.19-44.99,0Z"/>
    <path class="cls-46" d="M401.88,292.3s20.69-6.29,44.67,0c0,0-21.92-12.64-44.67,0Z"/>
    <path class="cls-14" d="M446.54,292.3c-24.01,12.65-44.67,0-44.67,0"/>
    <path class="cls-14" d="M446.8,297.53c-24.32,12.65-45.25,0-45.25,0"/>
    <path class="cls-8" d="M408.99,353.17s-3.09,9.26-12.78,4.85,7.49-7.27,7.49-7.27l5.29,2.42Z"/>
    <path class="cls-46" d="M408.99,353.17v1.81s-3.58,7.92-13.01,3.63c-.11-.05-.72-.37-.83-.45-.64-.44-1.96-2.09-1.9-2.73,0,0,8.57,8.09,15.75-2.25Z"/>
    <path class="cls-25" d="M433.41,356.53s9.46-2.51,12.05-13.88c0,0-.13,8.38-.44,8.93s-3.03,2.41-11.61,4.95Z"/>
    <path class="cls-25" d="M402.26,299.33l6.91,3.22s-5.42,2.06-6.9,7.81v-11.04Z"/>
  </g>
  <g id="reol">
    <path class="cls-26" d="M381.69,125.37s5.11-9.78,3.86-17.43-3.86,17.43-3.86,17.43Z"/>
    <path class="cls-54" d="M379.6,124.86s-7.19-4.47-7.11-12.52,7.11,12.52,7.11,12.52Z"/>
    <path class="cls-26" d="M383.45,125.87s7.59-6.74,7.1-12.78-7.1,12.78-7.1,12.78Z"/>
    <path class="cls-54" d="M383.72,128.15s-7.25-8.16-6.11-21.78c1.14-13.62,6.11,21.78,6.11,21.78Z"/>
    <path class="cls-2" d="M381.42,123.98s3.77-6.85,1.04-16.61c-2.73-9.75-1.04,16.61-1.04,16.61Z"/>
    <path class="cls-2" d="M381.71,125.37s6.06-4.7,7.86-14.84c1.8-10.14-7.86,14.84-7.86,14.84Z"/>
    <path class="cls-54" d="M382.17,127.73s4.57-7.25,5.57-20.88c1-13.63-5.57,20.88-5.57,20.88Z"/>
    <path class="cls-26" d="M380.85,125.87s-6.51-10.07-5.61-18.29,5.61,18.29,5.61,18.29Z"/>
    <path class="cls-41" d="M371.04,122.84l3.16,17.48c.1.53.48.9.93.9h12.67c.44,0,.83-.37.93-.89l3.39-17.48c.14-.72-.31-1.41-.93-1.41,0,0-7.08.82-9.48.82s-9.74-.82-9.74-.82c-.61,0-1.06.68-.93,1.39Z"/>
  </g>
  <g id="hotspots">
    <g id="bind">
      <path class="cls-22" d="M250.33,314.34s16.98,1.95,33.92,0h-33.92Z"/>
      <g>
        <path class="cls-13" d="M284.9,282.19c.96.2.73.89.73.89-18.01,1.31-36.03-.14-36.7-.19.08-.68.38-.7.38-.7l3.65-.98h27.73c.07,0,.13,0,.19.03.53.13,3.16.78,4.02.95Z"/>
        <path class="cls-17" d="M285.62,283.08v5.15s-.02,0-.02,0c0-3.07.02-5.16.02-5.16Z"/>
        <path class="cls-17" d="M285.62,283.08s0,2.09-.02,5.16l-18.34,8.08-18.35-7.69c0-2.92,0-4.99,0-5.26v-.13c0-.14,0-.25.02-.35.67.05,18.69,1.5,36.7.19Z"/>
        <path class="cls-38" d="M267.27,296.32l18.34-8.08c-.03,8.19-.11,23.35-.28,24.37-.23,1.41-1.77,1.57-1.77,1.57,0,0-30.39.33-32.4,0s-2.24-1.57-2.24-1.57c0,0,.02-15.55,0-23.98l18.35,7.69Z"/>
        <path class="cls-17" d="M248.91,282.89h.02c0,.1-.02.22-.02.35v-.35Z"/>
        <path class="cls-17" d="M248.92,288.63h0v-5.26c0,.27.02,2.34,0,5.26Z"/>
      </g>
      <g>
        <path class="cls-25" d="M260.68,288.83c-.04.17-.1.32-.19.45-.09.13-.21.23-.35.3-.14.07-.32.11-.53.11s-.39-.04-.53-.11c-.14-.07-.26-.18-.35-.3-.09-.13-.15-.28-.19-.45-.04-.17-.06-.35-.06-.55v-2.52h.48v2.47c0,.13,0,.26.03.38s.05.23.1.32c.05.09.11.17.2.23.08.06.19.08.32.08s.23-.03.32-.08c.08-.06.15-.13.2-.23.05-.09.08-.2.1-.32s.03-.25.03-.38v-2.47h.48v2.52c0,.2-.02.38-.06.55Z"/>
        <path class="cls-25" d="M261.5,289.6v-4.1h.46v4.1h-.46Z"/>
        <path class="cls-25" d="M263.55,289.65c-.06.01-.13.02-.19.02-.21,0-.35-.07-.44-.2s-.13-.32-.13-.56v-1.66h-.34v-.37h.34v-.73h.45v.73h.48v.37h-.48v1.56c0,.16.02.27.07.34.05.07.12.11.21.11.03,0,.07,0,.1-.01s.07-.02.09-.03v.37s-.08.04-.14.05Z"/>
        <path class="cls-25" d="M264.85,286.94c.1-.1.22-.16.36-.16.03,0,.05,0,.06,0l-.02.48s-.03,0-.04,0c-.01,0-.03,0-.05,0-.09,0-.16.03-.23.08-.07.06-.12.13-.17.22-.04.09-.08.19-.1.31-.02.11-.04.23-.04.35v1.38h-.46v-2.03c0-.11,0-.23,0-.35,0-.12,0-.24-.02-.34h.43c.01.09.02.18.02.28,0,.1,0,.19,0,.28h.01c.05-.23.12-.39.23-.5Z"/>
        <path class="cls-25" d="M266.81,289.6c-.01-.08-.03-.17-.03-.25,0-.08-.01-.15-.01-.2h-.01c-.04.16-.11.29-.21.38-.1.09-.24.14-.42.14-.07,0-.15-.01-.23-.04-.08-.03-.15-.08-.21-.14-.06-.07-.11-.15-.16-.25-.04-.1-.06-.23-.06-.37,0-.2.03-.36.1-.48.07-.12.16-.22.26-.29s.22-.12.35-.14c.13-.03.25-.04.37-.04h.18v-.12c0-.21-.04-.37-.12-.46-.08-.1-.19-.14-.33-.14-.1,0-.19.02-.28.08-.09.05-.16.12-.22.2l-.23-.29c.09-.12.21-.22.35-.28.14-.07.28-.1.42-.1.15,0,.28.03.39.08s.19.12.25.22c.06.1.11.22.14.36.03.14.04.3.04.49v1.1c0,.09,0,.2.01.31,0,.11.02.2.03.26h-.38ZM266.74,288.26h-.2c-.08,0-.16,0-.24.02-.08.01-.15.04-.21.08s-.11.1-.15.17c-.04.07-.06.16-.06.28,0,.17.04.29.11.37s.15.12.25.12.17-.03.23-.08c.06-.06.11-.13.15-.21.04-.09.07-.18.08-.28.02-.1.02-.2.02-.3v-.16Z"/>
        <path class="cls-25" d="M269.97,287.39c-.05-.07-.11-.13-.18-.17s-.16-.07-.26-.07-.19.04-.26.11-.1.17-.1.3.03.22.1.28c.07.06.18.11.32.17.08.03.15.06.22.11.07.04.14.09.2.16.06.07.11.14.14.23.04.09.05.19.05.32,0,.14-.02.27-.06.37-.04.11-.1.2-.17.27-.07.07-.16.13-.26.17s-.21.06-.33.06c-.16,0-.31-.03-.44-.1-.13-.07-.24-.16-.33-.27l.27-.3c.06.08.13.14.21.2s.18.08.31.08.21-.04.27-.12c.07-.08.1-.19.1-.33,0-.08-.01-.14-.04-.2-.03-.05-.06-.1-.1-.14s-.09-.07-.15-.1c-.06-.03-.12-.05-.19-.08s-.13-.06-.2-.09-.13-.08-.18-.14c-.05-.06-.1-.13-.13-.22s-.05-.19-.05-.31.02-.23.06-.33.1-.18.17-.25c.07-.07.16-.12.25-.16s.2-.06.31-.06c.16,0,.3.03.42.08.12.06.21.13.29.22l-.26.3Z"/>
        <path class="cls-25" d="M272.6,288.24c0,.22-.02.41-.07.59-.04.18-.11.33-.19.46-.08.13-.19.23-.31.3-.12.07-.26.11-.41.11s-.29-.04-.41-.11c-.12-.07-.22-.17-.31-.3-.08-.13-.15-.28-.19-.46s-.07-.37-.07-.59.02-.42.07-.6c.04-.18.11-.33.19-.46.08-.13.18-.23.31-.3.12-.07.26-.11.41-.11s.29.04.41.11c.12.07.22.17.31.3.08.13.15.28.19.46.04.18.07.38.07.6ZM272.13,288.24c0-.15,0-.29-.03-.41-.02-.13-.05-.24-.09-.33s-.1-.17-.16-.22-.14-.08-.23-.08-.16.03-.23.08-.12.13-.16.22-.07.2-.09.33c-.02.13-.03.27-.03.41s0,.29.03.41c.02.13.05.24.09.33s.09.17.16.22.14.08.23.08.17-.03.23-.08.12-.13.16-.22.07-.2.09-.33c.02-.13.03-.26.03-.41Z"/>
        <path class="cls-25" d="M274.23,285.82s-.1-.03-.16-.03c-.07,0-.13.02-.18.05-.05.03-.08.08-.11.13-.03.05-.05.12-.06.19-.01.07-.02.14-.02.22v.49h.44v.37h-.43v2.35h-.45v-2.35h-.35v-.37h.35v-.5c0-.14.01-.27.04-.39.03-.12.07-.22.13-.31.06-.09.14-.15.23-.2s.21-.07.34-.07c.04,0,.08,0,.12,0s.08.02.12.03l-.03.38Z"/>
        <path class="cls-25" d="M275.32,289.65c-.06.01-.13.02-.19.02-.21,0-.35-.07-.44-.2s-.13-.32-.13-.56v-1.66h-.34v-.37h.34v-.73h.45v.73h.48v.37h-.48v1.56c0,.16.02.27.07.34.05.07.12.11.21.11.03,0,.07,0,.1-.01s.07-.02.09-.03v.37s-.08.04-.14.05Z"/>
      </g>
      <path class="cls-29" d="M276.84,298.42s.06-3.09,3.8-2.34,2.06,3.84,2.06,3.84c0,0,.2,1.18,1.63,2.65.15.15.18.4.05.58-.87,1.25-4.12,5.83-4.66,5.77,0,0-.41.1-1.87,0,0,0-2.65,1.7-4.41,2,0,0-1.97.49-4-.93,0,0-2.08-1.17-.03-1.82,0,0,2.03-.69,2.01-1.47,0,0,.11-.38-.52-1.49-.02-.03-.04-.12-.02-.15.12-.26,3.89-5.54,4.27-5.37,0,0,1.62-.24,1.68-1.26Z"/>
      <g>
        <path class="cls-29" d="M270.37,308.16s2.69-.41,4.25-1.66,3.01-5.5,2.71-5.87-.44-4.43,2.85-3.68,1.04,4.24,1.04,4.24c0,0-3.88,5.63-4.11,6.97,0,0-1.64,2.56-4.71,2.02,0,0-4.43-1.53-2.03-2.02Z"/>
        <path class="cls-4" d="M273.22,310.46c-.27,0-.56-.02-.86-.08-.91-.31-2.95-1.09-2.91-1.81.02-.38.51-.53.88-.6h0s2.66-.42,4.16-1.62c1.52-1.21,2.81-5.2,2.67-5.61-.24-.28-.34-1.93.34-3.03.39-.63,1.18-1.3,2.72-.95.92.21,1.53.65,1.79,1.31.56,1.37-.58,3.16-.63,3.23-1.34,1.94-3.91,5.87-4.08,6.89l-.03.07s-1.44,2.19-4.05,2.19ZM270.41,308.36c-.52.11-.55.23-.55.23-.02.26,1.23.92,2.61,1.4,2.71.47,4.26-1.62,4.46-1.91.3-1.43,3.98-6.77,4.14-7,0-.01,1.07-1.68.59-2.86-.22-.53-.72-.89-1.51-1.07-1.01-.23-1.76,0-2.23.68-.67.97-.54,2.5-.42,2.68.08.09.1.24.07.48-.11,1.08-1.36,4.51-2.81,5.67-1.57,1.25-4.17,1.67-4.34,1.7Z"/>
      </g>
      <g>
        <path class="cls-29" d="M271.44,306.69s4.98-4.23,5.06-7.59"/>
        <path class="cls-4" d="M271.52,306.79l-.16-.19s4.94-4.23,5.02-7.5h.25c-.07,3.39-4.9,7.52-5.1,7.69Z"/>
      </g>
      <g>
        <path class="cls-29" d="M277.86,308.92s4.49-4.91,4.85-9"/>
        <path class="cls-4" d="M277.95,309l-.18-.17s4.46-4.93,4.82-8.93l.25.02c-.36,4.09-4.7,8.88-4.88,9.08Z"/>
      </g>
      <path class="cls-40" d="M274.46,307.14s2.48-1.16,3.29-5.05c0,0,.25-1.87,1.26-1.65s0,2.04,0,2.04c0,0-1.61,3.13-2.76,4.66,0,0-.67,1.08-1.79.99,0,0-1.29-.32,0-.99Z"/>
      <g>
        <ellipse class="cls-7" cx="258.08" cy="301.74" rx="7.92" ry="6.39"/>
        <path class="cls-27" d="M258.08,308.25c-4.43,0-8.04-2.92-8.04-6.51s3.61-6.51,8.04-6.51,8.04,2.92,8.04,6.51-3.61,6.51-8.04,6.51ZM258.08,295.48c-4.3,0-7.79,2.81-7.79,6.26s3.5,6.26,7.79,6.26,7.79-2.81,7.79-6.26-3.5-6.26-7.79-6.26Z"/>
      </g>
      <path class="cls-25" d="M254.63,309.34s-1.82,2.58,0,2.58,0-2.58,0-2.58Z"/>
      <path class="cls-25" d="M256.97,309.34s-1.82,2.58,0,2.58,0-2.58,0-2.58Z"/>
      <path class="cls-25" d="M259.32,309.34s-1.82,2.58,0,2.58,0-2.58,0-2.58Z"/>
      <path class="cls-25" d="M261.54,309.34s-1.82,2.58,0,2.58,0-2.58,0-2.58Z"/>
      <g>
        <path class="cls-25" d="M257.75,301.06c0,.23-.04.43-.11.6s-.17.32-.3.44-.27.21-.44.27c-.17.06-.35.09-.55.09-.36,0-.67-.09-.93-.28-.26-.19-.43-.47-.51-.86l.88-.23c.03.15.09.27.18.36.08.09.2.14.34.14.08,0,.15-.02.21-.05.06-.03.11-.08.15-.13.04-.05.07-.12.09-.19.02-.07.03-.14.03-.21,0-.19-.06-.34-.17-.43s-.26-.14-.44-.14h-.22v-.75h.25c.17,0,.29-.05.38-.15s.13-.24.13-.41c0-.11-.03-.22-.1-.32-.07-.1-.17-.15-.31-.15-.12,0-.21.04-.28.12-.07.08-.12.18-.15.3l-.86-.22c.05-.19.12-.36.22-.49s.2-.25.32-.33c.12-.09.25-.15.39-.19.14-.04.29-.06.43-.06.16,0,.32.03.47.08.15.05.29.13.41.23.12.1.22.23.29.38.07.15.11.33.11.53,0,.26-.06.48-.17.66-.11.18-.26.3-.44.36v.02c.21.06.38.18.51.37.12.19.19.4.19.65Z"/>
        <path class="cls-25" d="M258.81,300.63l-.73-1.58h1.05l.37,1.02.39-1.02h1.04l-.75,1.58.8,1.73h-1.07l-.41-1.05-.39,1.05h-1.08l.79-1.73Z"/>
      </g>
      <g>
        <path class="cls-25" d="M253.94,303.73v.21h0c.02-.07.06-.14.1-.18.05-.05.12-.07.21-.07.07,0,.13.02.18.06s.1.09.14.15c.04.06.06.14.08.23s.03.19.03.29,0,.2-.03.29c-.02.09-.04.16-.08.23-.04.06-.08.11-.14.15s-.12.05-.19.05c-.08,0-.14-.02-.2-.07-.05-.05-.09-.1-.11-.18h0v.85h-.23v-2.01h.22ZM253.94,304.41c0,.07,0,.14.02.21.01.06.03.12.05.17s.05.08.08.11c.03.03.07.04.11.04s.08-.01.11-.04c.03-.03.06-.06.08-.11s.04-.1.05-.17c0-.06.01-.13.01-.21s0-.14-.01-.2-.03-.12-.05-.17-.05-.08-.08-.11-.07-.04-.11-.04-.08.01-.11.04-.06.06-.08.11-.04.1-.05.17-.02.13-.02.2Z"/>
        <path class="cls-25" d="M255.36,303.76c.05-.05.11-.08.18-.08.01,0,.03,0,.03,0v.24s-.03,0-.03,0-.02,0-.02,0c-.04,0-.08.01-.11.04-.03.03-.06.06-.08.11-.02.05-.04.1-.05.15-.01.06-.02.12-.02.18v.69h-.23v-1.02c0-.05,0-.11,0-.17s0-.12,0-.17h.22s0,.09.01.14,0,.1,0,.14h0c.02-.11.06-.2.11-.25Z"/>
        <path class="cls-25" d="M256.66,304.42c0,.11-.01.21-.03.3-.02.09-.05.16-.1.23-.04.06-.09.11-.15.15s-.13.05-.21.05-.14-.02-.2-.05c-.06-.04-.11-.08-.15-.15-.04-.06-.07-.14-.1-.23-.02-.09-.03-.19-.03-.3s.01-.21.03-.3c.02-.09.05-.17.09-.23.04-.06.09-.11.15-.15.06-.04.13-.05.21-.05s.15.02.21.05c.06.04.11.08.15.15.04.06.07.14.1.23.02.09.03.19.03.3ZM256.43,304.41c0-.07,0-.14-.01-.21s-.03-.12-.05-.17-.05-.08-.08-.11-.07-.04-.11-.04-.08.01-.11.04-.06.06-.08.11-.04.1-.05.17-.01.13-.01.21,0,.14.01.21c0,.06.03.12.05.17s.05.08.08.11c.03.03.07.04.11.04s.08-.01.12-.04c.03-.03.06-.06.08-.11s.04-.1.04-.17c0-.06.01-.13.01-.21Z"/>
        <path class="cls-25" d="M257.38,305.12s-.06.01-.1.01c-.1,0-.18-.03-.22-.1s-.07-.16-.07-.28v-.83h-.17v-.19h.17v-.36h.22v.36h.24v.19h-.24v.78c0,.08.01.14.04.17.02.04.06.05.1.05.02,0,.03,0,.05,0,.02,0,.03,0,.05-.01v.18s-.04.02-.07.03Z"/>
        <path class="cls-25" d="M257.84,304.47c0,.07,0,.13.02.18.01.06.03.11.05.15s.05.07.08.1c.03.02.07.04.12.04.06,0,.11-.02.15-.06.04-.04.06-.08.08-.14l.17.1c-.04.09-.09.16-.15.21-.07.06-.15.08-.26.08-.15,0-.27-.06-.36-.19s-.13-.31-.13-.53c0-.11.01-.21.03-.3.02-.09.06-.17.1-.23.04-.06.09-.11.16-.15.06-.04.13-.05.2-.05.08,0,.15.02.21.05.06.04.1.08.14.14.04.06.06.13.08.21.02.08.02.17.02.26v.11h-.71ZM258.33,304.29c0-.12-.02-.21-.05-.29-.04-.07-.09-.11-.17-.11-.05,0-.09.01-.12.04-.03.03-.06.06-.08.1s-.03.08-.04.13-.01.09-.01.12h.48Z"/>
        <path class="cls-25" d="M259.27,305.14c-.08,0-.15-.02-.21-.05-.06-.04-.11-.08-.15-.15-.04-.06-.07-.14-.09-.23-.02-.09-.03-.19-.03-.3s0-.21.03-.3c.02-.09.05-.17.09-.23.04-.06.09-.11.15-.15.06-.04.13-.05.21-.05.07,0,.13.01.18.04s.09.05.12.08l-.12.17s-.05-.05-.08-.06c-.03-.02-.06-.02-.1-.02s-.08.01-.11.04-.06.06-.08.11c-.02.05-.04.1-.05.16s-.02.13-.02.21,0,.15.01.21.03.12.05.16c.02.05.05.08.08.11.03.03.08.04.12.04.04,0,.08,0,.11-.02.03-.02.06-.04.08-.06l.1.18c-.07.08-.17.12-.3.12Z"/>
        <path class="cls-25" d="M260.19,305.12s-.06.01-.1.01c-.1,0-.18-.03-.22-.1s-.07-.16-.07-.28v-.83h-.17v-.19h.17v-.36h.22v.36h.24v.19h-.24v.78c0,.08.01.14.04.17.02.04.06.05.1.05.02,0,.03,0,.05,0,.02,0,.03,0,.05-.01v.18s-.04.02-.07.03Z"/>
        <path class="cls-25" d="M260.75,303.33s-.01.08-.04.11c-.03.03-.06.04-.1.04-.04,0-.08-.01-.1-.04-.03-.03-.04-.07-.04-.11s.01-.08.04-.11c.03-.03.06-.04.1-.04s.08.02.1.04.04.07.04.11ZM260.5,305.09v-1.36h.23v1.36h-.23Z"/>
        <path class="cls-25" d="M262.02,304.42c0,.11-.01.21-.03.3-.02.09-.05.16-.1.23-.04.06-.09.11-.15.15s-.13.05-.21.05-.14-.02-.2-.05c-.06-.04-.11-.08-.15-.15-.04-.06-.07-.14-.1-.23-.02-.09-.03-.19-.03-.3s.01-.21.03-.3c.02-.09.05-.17.09-.23.04-.06.09-.11.15-.15.06-.04.13-.05.21-.05s.15.02.21.05c.06.04.11.08.15.15.04.06.07.14.1.23.02.09.03.19.03.3ZM261.79,304.41c0-.07,0-.14-.01-.21s-.03-.12-.05-.17-.05-.08-.08-.11-.07-.04-.11-.04-.08.01-.11.04-.06.06-.08.11-.04.1-.05.17-.01.13-.01.21,0,.14.01.21c0,.06.03.12.05.17s.05.08.08.11c.03.03.07.04.11.04s.08-.01.12-.04c.03-.03.06-.06.08-.11s.04-.1.04-.17c0-.06.01-.13.01-.21Z"/>
        <path class="cls-25" d="M263.02,305.09v-.87s0-.08,0-.12c0-.04-.01-.08-.03-.11-.01-.03-.03-.06-.06-.08-.02-.02-.06-.03-.1-.03-.04,0-.07.01-.1.03s-.06.05-.08.09c-.02.04-.04.08-.05.13-.01.05-.02.11-.02.17v.78h-.23v-1.02c0-.05,0-.11,0-.17s0-.12,0-.17h.22s0,.09.01.14c0,.05,0,.08,0,.1h0c.03-.08.07-.15.12-.2.06-.05.13-.08.21-.08.07,0,.13.02.17.05.05.03.08.07.11.12.02.05.04.11.05.17,0,.07.01.13.01.2v.87h-.23Z"/>
      </g>
    </g>
    <g id="tamponer">
      <rect class="cls-16" x="241.3" y="240.29" width="47.96" height="20.39"/>
      <polyline class="cls-51" points="289.26 240.29 285.69 238.48 245.21 238.48 241.3 240.29"/>
      <path class="cls-3" d="M278.76,258.15c-.48-.31-.86-.28-1.35-.25-.75.04-1.68.1-3.22-.99-2.38-1.69-4.74-1.71-4.77-1.71h0v-.5c.06.02,2.53,0,5.06,1.8,1.39.99,2.19.94,2.9.9.54-.03,1.04-.06,1.65.33l-.27.42Z"/>
      <path class="cls-25" d="M269.16,256.23s1.7-1.26,1.07-2.77l-15.23-6.09s-3.9.22-1.18,3.05l15.34,5.81Z"/>
      <path class="cls-31" d="M241.3,243.67s15.98-.34,21.6,3.2,15.68,6.04,26.36,6.3v-12.88h-47.96v3.38Z"/>
      <g>
        <path class="cls-25" d="M246.61,253.51c0,.12-.02.24-.05.35-.04.11-.08.22-.14.32-.06.1-.13.21-.21.31-.08.1-.17.21-.26.33l-.95,1.18h1.55v.44h-2.16v-.46l1.21-1.48c.14-.17.25-.34.33-.49.08-.15.12-.31.12-.46,0-.18-.04-.33-.13-.46-.09-.13-.23-.19-.41-.19-.16,0-.3.05-.4.15s-.17.25-.21.44l-.52-.05c.06-.32.19-.56.39-.73.2-.16.46-.25.77-.25.17,0,.33.03.46.08s.25.13.33.22c.09.09.16.21.2.33s.07.27.07.41Z"/>
        <path class="cls-25" d="M249.72,254.49c0,.15,0,.31-.02.46-.01.16-.04.31-.07.46s-.08.29-.14.43c-.06.13-.13.25-.23.35-.09.1-.2.18-.33.24-.13.06-.27.09-.44.09s-.31-.03-.44-.09c-.13-.06-.23-.14-.33-.24-.09-.1-.17-.22-.22-.35-.06-.13-.11-.27-.14-.43s-.06-.31-.07-.46c-.01-.16-.02-.31-.02-.46,0-.22.02-.46.05-.7.03-.24.09-.46.19-.65.09-.2.22-.36.37-.48s.36-.19.62-.19.46.06.62.19.28.29.38.48c.09.19.15.41.19.65.03.24.05.47.05.7ZM249.16,254.49c0-.14,0-.3-.02-.48s-.04-.35-.09-.52c-.04-.16-.11-.3-.2-.42-.09-.11-.21-.17-.36-.17s-.27.06-.36.17c-.09.11-.15.25-.2.42-.05.16-.08.34-.09.52s-.02.34-.02.48c0,.09,0,.2,0,.31,0,.11.02.23.03.35.01.12.04.23.07.34.03.11.07.21.12.3s.11.16.18.21.16.08.26.08.18-.03.26-.08.13-.12.18-.21.09-.19.12-.3.05-.22.07-.34c.01-.12.02-.23.03-.35,0-.11,0-.22,0-.31Z"/>
        <path class="cls-25" d="M250.86,254.98l-.74-1.31h.57l.48.97.47-.97h.55l-.74,1.31.82,1.46h-.58l-.54-1.08-.54,1.08h-.56l.81-1.46Z"/>
      </g>
      <path class="cls-25" d="M276.1,246.46s-2.39,3.1,0,3.1,0-3.1,0-3.1Z"/>
      <path class="cls-25" d="M279.21,246.46s-2.39,3.1,0,3.1,0-3.1,0-3.1Z"/>
      <path class="cls-25" d="M282.32,246.46s-2.39,3.1,0,3.1,0-3.1,0-3.1Z"/>
      <path class="cls-25" d="M285.44,246.46s-2.39,3.1,0,3.1,0-3.1,0-3.1Z"/>
      <g>
        <path class="cls-25" d="M277,243.11c-.11-.11-.24-.17-.41-.17-.05,0-.09,0-.14.02-.04.01-.08.03-.12.06s-.06.07-.09.11c-.02.05-.03.1-.03.16,0,.11.04.19.11.25.07.06.17.11.3.17.07.03.15.07.22.11.08.04.14.09.21.15.06.06.11.13.15.21.04.08.06.17.06.28,0,.12-.02.24-.07.33-.05.1-.11.18-.18.24-.08.07-.17.12-.27.15-.1.03-.21.05-.33.05-.16,0-.32-.03-.46-.08-.14-.06-.25-.12-.33-.21l.27-.32c.06.07.14.12.23.16.09.04.18.06.28.06.11,0,.19-.03.26-.09.07-.06.1-.15.1-.26s-.04-.2-.12-.26c-.08-.06-.19-.12-.32-.18-.08-.03-.16-.07-.23-.11-.07-.04-.13-.09-.19-.15-.05-.06-.1-.12-.13-.2s-.05-.17-.05-.27c0-.13.02-.25.07-.34.05-.09.11-.17.19-.24.08-.06.17-.11.27-.14.1-.03.2-.05.3-.05.15,0,.28.02.4.06.12.04.22.1.3.19l-.28.31Z"/>
        <path class="cls-25" d="M279.47,244.64c-.03.12-.09.22-.16.31-.08.09-.17.16-.29.21s-.26.08-.43.08-.31-.03-.43-.08c-.12-.05-.21-.12-.29-.21-.07-.09-.13-.19-.16-.31-.03-.12-.05-.24-.05-.38v-1.65h.5v1.61c0,.08,0,.16.02.23.01.07.03.14.07.19.03.06.08.1.13.13.05.03.13.05.21.05s.16-.02.21-.05c.06-.03.1-.08.13-.13.03-.06.05-.12.07-.19s.02-.15.02-.23v-1.61h.5v1.65c0,.13-.02.26-.05.38Z"/>
        <path class="cls-25" d="M281.72,243.37c0,.13-.02.24-.07.34s-.11.18-.18.24-.16.11-.26.14-.2.05-.3.05h-.35v1.02h-.49v-2.55h.82c.09,0,.19.01.29.04.1.02.19.07.27.12.08.06.14.14.2.23.05.1.08.22.08.36ZM281.25,243.38c0-.14-.04-.24-.11-.3-.08-.06-.17-.09-.29-.09h-.28v.81h.28c.12,0,.21-.04.29-.11.08-.07.11-.17.11-.31Z"/>
        <path class="cls-25" d="M282.14,245.17v-2.55h1.32v.38h-.84v.68h.78v.35h-.78v.75h.88v.39h-1.36Z"/>
        <path class="cls-25" d="M285.18,245.17l-.46-1.09h-.28v1.09h-.48v-2.55h.84c.12,0,.23.01.34.04.1.03.19.07.26.13.07.06.13.14.17.23.04.09.06.2.06.33,0,.1-.01.19-.04.26s-.07.14-.11.19c-.04.05-.09.1-.15.13-.05.03-.11.05-.16.07l.53,1.17h-.53ZM285.15,243.37c0-.08-.01-.14-.04-.19-.03-.05-.06-.09-.1-.12-.04-.03-.08-.05-.13-.06-.05-.01-.1-.02-.15-.02h-.28v.79h.28c.12,0,.22-.03.3-.1.08-.07.12-.17.12-.3Z"/>
      </g>
      <path class="cls-22" d="M241.3,260.68s24.02,1.95,47.96,0h-47.96Z"/>
    </g>
    <g id="toiletpapir">
      <path class="cls-24" d="M122.46,192.28s-1.22,8.9,0,15.96v-15.96Z"/>
      <path class="cls-24" d="M143.28,192.32s1.22,8.88,0,15.92v-15.92Z"/>
      <rect class="cls-9" x="113.82" y="200.44" width="38.11" height="3.02"/>
      <path class="cls-29" d="M122.46,192.28v31.58s0,0,0,0h20.81s0,0,0,0v-31.53s-.02-.06-.05-.06h-20.76s0,0,0,0Z"/>
      <path class="cls-24" d="M143.28,208.32c-9.8,1.03-20.82,0-20.82,0"/>
      <polygon class="cls-30" points="113.82 200.44 117.29 199.6 118.42 199.6 115.12 200.44 113.82 200.44"/>
      <polygon class="cls-30" points="151.93 200.44 148.46 199.6 147.33 199.6 150.63 200.44 151.93 200.44"/>
      <polygon class="cls-33" points="118.42 199.6 118.42 200.44 115.12 200.44 118.42 199.6"/>
      <polygon class="cls-33" points="147.33 199.6 147.33 200.44 150.63 200.44 147.33 199.6"/>
    </g>
  </g>
</svg>