<?xml version="1.0" encoding="UTF-8"?>
<svg id="Layer_1" data-name="Layer 1" xmlns="http://www.w3.org/2000/svg" viewBox="0 0 906.3 810.09">
  <defs>
    <style>
      .cls-1 {
        fill: #f6d7ce;
      }

      .cls-2 {
        fill: #fadada;
      }

      .cls-3 {
        fill: #fbfafa;
      }

      .cls-4 {
        fill: #e6dbeb;
      }

      .cls-5 {
        fill: #f0c5c9;
      }

      .cls-6 {
        fill: #965c54;
      }

      .cls-7 {
        fill: #f8e0e7;
      }

      .cls-8 {
        fill: #ed7e80;
      }

      .cls-9 {
        fill: #f9e4dd;
      }

      .cls-10 {
        fill: #a4786d;
      }

      .cls-11 {
        fill: #eed5e1;
      }

      .cls-12 {
        fill: #f6ebf0;
      }

      .cls-13 {
        fill: #faf0ed;
      }

      .cls-14 {
        fill: #f3eff6;
      }

      .cls-15 {
        fill: #fcf0e7;
      }

      .cls-16 {
        fill: #fdfdfd;
      }
    </style>
  </defs>
  <path class="cls-4" d="M198.77,114.92c8.75.74,6.04,9.36,6.99,14.98,1.17,6.9,3.93,8.84,2.96,17.43-.17,1.48-1.76,2.49-1.85,3.99-.18,3.06,1.7,9.31,1.53,12.88-.24,5.2-5.7,19.5-4.15,22.63,2.02,4.06,10.09-.4,13.98,5.02s-1.52,16.25,4.53,20.44c2.14,1.48,4.46,1,5.72,1.78.98.61,1.41,3.79,3.97,4.52,3.5.99,9.99.37,13.6,1.22.88.21.33,2.11,2.13,2.08,2.44-.03,4.83-2.58,6.54-1.68l9,11.56c-6.29.21-11.03,8.28-12.99,13.98-27.63,3.37-42.6,17.01-52.72,42.69-9.29,23.59-8.87,41.44-9.23,66.19-10.51-1.43-21.32,3.83-31.47,4-3.49.06-8.42-1.99-12.49-1-1.59-3.48-2.65-10.4-3.98-12.45-2.77-4.28-4.33,11.43-4.65,12.54-1.09,3.75-2.97,8.2-5.87,10.89-2.14,1.99-9.52,4.18-7.48,7,.16.23,1.52-.16,2,0,.43,3.16-2.84,2.4-3.71,3.28-.56.57-.38,2.01-.86,2.58-3.82,4.62-6.81-.45-10.89.07-3.71.47-1.62,5.11-4.14,5.99-2.72.95-4.86-2.24-7.39-1.53-2.92.82-7.69,5.84-10.71,7.36-6.5,3.29-15.22,5.24-21.97,9-3.6,2-7.16,5.91-11.27,7.21-.97-4.43-3.43-9.19-3.93-12.55-1.23-8.14.55-20.37,3.91-27.93,3.9-8.77,3.39-4.76,5.02-15.46.19-1.26,1.08-4.9,1.57-5.93,1.97-4.18,8.79-6.74.45-9.58-10.2-3.47-24.59.6-21.95-16.91.96-6.37,1.4-7.33.94-14.53,4.42.22,2.27-4.52,3.13-5.85.27-.41,3.54-.95,4.79-1.71,1.73-1.05,2.08-2.88,4.6-3.39,7.28-1.5,13.04.36,20,1.01,1.97.18,3.78-1.08,5.73-.85,2.61.31,5.52,3.42,7.71,4.8-2.57,4.33-3.01,17.25,3.67,17.83,3.87.34,5.69-7.73,7.32-9.84.1-.13,1.75.54,2.04-.63.91-3.64-.78-9.06-2.15-12.55-.42-1.06-2.09-.56-1.93-2.21.26-2.67,3.23-5.61,3.82-8.31.92-4.16.19-9.96,1.68-14.3,1.38-4.02,8.96-6.32,12.53-8.95-1.01,2.93-3.02,8.16-4.57,10.92-1.39,2.48-3.74,3.01-5.16,6.82-2.77,7.47,2.55,11.64-.26,19.21,5.23.04,12.19,1.58,17.22,3.26,2.51.84,2.54,3.53,7.2,2.74,5.82-.99,4.12-9.01,6.95-11.09,1.95-1.44,4.41-.43,5.43-1.05,2.02-1.23.82-14.97,1.21-18.27.28-2.37,2.39-4.01,1.98-6.99-.53-3.84-5.15-3.57-6.49-5.58-.2-.29-2.27-6.29-2.32-6.68-.32-2.71,1.66-6.56,1.52-8.98s-3.29-3.61-.78-7.58c.93-1.46,4.05-1.2,3.04-4.68l-5-1.01c1.19-1.59,2.02-3.97,2-5.99,2.77-1.32,5.8-4.18,7.75-4.74,2.61-.75,8.07-.15,10.22-1.77.49-.37,6.28-9.67,6.54-10.44,1.26-3.66,2.09-13.73,1.41-17.46-.32-1.77-4.79-12.89-6.03-13.95-4.67-3.99-13.1-3.37-18.19-4.57-1.05-.25-3.76-7.15-8.39-5.29-2.05.83-10.6,11.13-11.69,13.37-2.3,4.71-.68,7.93-1.76,11.23-.48,1.45-3.1,2.12-4.31,3.68-1.83,2.37-2.14,5.9-4.53,7.96-.3-.17-3.57,0-5.04-.44-7.67-2.23-3.33-6.8-6.93-11.81-1.32-1.84-6.31-3.97-7.02-4.74-1.93-2.08-3.78-9.09-5-10.99-.69-10.55,8.32.32,13.35-.24,3.12-.35,7.08-5.82,10.33-6.54,3.68-.82,13.98.28,16.23-.69.81-.35,5.69-4.37,5.92-5.21.84-2.97-3.85-11.34,1.65-12.32,9.59-1.69,11.94,14.66,15.82,13.94,5.17-.96,7.1-10.81,10.09-12.95s10.02-2.78,13.55-4.43c7.98-3.73,6.52-11.39,9.08-17.9.37-.95,5.06-10.09,5.41-10.57,1.07-1.47,4.85-.69,4.49-4.01,3.66-.26,7.49-1.29,10.99-1ZM165.79,173.85c2.52,3.18,9.05,7.6,12.68,9.79,2.23,1.35,9.31,6.02,11.31,4.75,2.42-1.53,8.55-23.33,8.85-27.15,1.73-21.72-17.05-22.98-18.87-2.38-1.57.12-1.2-2.05-2.44-3.03-10.18-8.02-19.14.92-15.53,12.03-4.28,4.18-1.35,6.84,4,5.99ZM190.03,239.5c8.44,7.61,18.71-15.81,7.78-19.3-9.49-3.03-13.08,14.52-7.78,19.3ZM174.93,239.54c0-2.49-2.02-4.51-4.51-4.51s-4.51,2.02-4.51,4.51,2.02,4.51,4.51,4.51,4.51-2.02,4.51-4.51ZM158.44,317.82c-3.18,1.06-2.96,11.99,4.37,8.36,2.45-1.21,2.49-5.27,1.55-7.56-.91-1.29-4.54-1.26-5.92-.8Z"/>
  <path class="cls-7" d="M188.77,580.38c0,17.34-1.05,34.61-1,51.94l-18.51,9.97c-.05,7.34-1.49,13.05-3.47,19.99l5.98-2.99c.47.33,1.76,9.89,1.73,11.36-.09,4.11.3,4.9.35,8.06.03,1.89-1.38,3.85-1.1,5.99.33,2.59,3.69,3.98,4.9,6.18s1.04,4.93,2.23,6.76c.88,1.36,11.78,8.66,13.89,5.59.33.21,1.87-.04,2.88.58,35.65,21.66,73.82,44.73,109.69,64.18,2.43,1.32,5.6,3,7.33,5.16-7.7-.42-11.05,10.7-21.98,4.99-9.17-4.79-5.89-14.44-10.74-16.73-3.16-1.49-11.07-1.74-14.51-1.02-5.22,1.08-11.09,9.22-14.99,8.61-6.24-.99-6.33-10.66-9.38-11.67-2.68-.89-5.26.58-7.66.47-12.98-.6-26.67-1.78-37.57-8.18-4.78-2.8-12.5-7.68-17.76-9.21-4.12-1.2-8.79.88-13.55-1.44-3.74-1.82-5.59-6.34-8.23-8.76-1.79-1.64-9.66-8.41-11.25-8.79-4.62-1.13-8.66,2.82-12.96,3.56-6.81,1.17-20.34-2.76-26.81-5.69-4.72-2.14-8.4-8.05-8.42-13.05,0-1.83.94-3.55,1-4.99,2.96.01,2.86-3.44,5.62-4.88s5.52-.49,7.38-2.64c-2.12-3.61-3.14-7.09-3.71-11.25-.93-6.86,2.09-16.38.26-22.24-1.29-4.13-17.71-13.37-22.29-14.67-3.18-.91-9.45.08-12.26-2.73-1.36-1.36-2.56-11.14-.3-12.59,6.76-4.32,11.55,8.43,22.57,6.83,1.84-.27,13.87-4.76,15.28-5.71,1.07-.72,4.26-7.05,4.45-8.04,4.36.36,2.72,6.85,5.6,8.88l22.37,9.09c1.21-3.66-2.81-2.78-3.08-5.5-.2-2.02,4.37-6.68,5-11.07.28-1.96.49-7.09.15-8.86-.2-1.07-5.25.82-2.57-4.55.69-1.38,9.63-6.61,11.24-6.85,3.2-.47,3.65,3.48,6.56,2.76,3.91-.98,2.32-7.52,2.69-7.89.15-.15,3.01.13,4.23-.24,3.47-1.04,12.66-4.47,15.1-6.67,2.64-2.37-.48-13.29,5.65-12.07Z"/>
  <path class="cls-4" d="M844.22,479.5c.04.16,1.37,1.2,1.79,2.66.49,1.7-.45,5.7,1.79,6.19.79.17,2.25-.97,3.66-.66,1.02.22,1.98,1.78,3.27,1.83,1.93.06,3.56-3.92,6.47-3.03.13,1.32,6.38,17.28,7.12,18.36,2.25,3.27,6.6,4.15,8.87,9.61.14.33.98,2.84,1,3,.07.61.04,1.37,0,2-.13,2.02-1.44,7.68-2,9.99-6.24-1.1-11.13-3.53-17.29.19-1.43.86-4.9,7.25-5.28,8.8-1.24,5.09,8.33,12.13,11.66,15.55,1.53.8,1.68-.51,1.92-.57.34-.08.74.11,1,0-.95,5.44,2.43,11.01,1.81,16.21-.83,6.91-6.51,10.59-10.73,15.39-.46,2.66,10.81,7.4,6.69,15.61-1.43,2.85-5.02,4.13-4.75,8.15.18,2.76,5.57,8.32,6.55,12.48,2.12,8.99-2.8,10.78-6.95,17.17-1.27,1.95-1.6,4.57-3.17,6.81-5.22,7.45-10.44,4.27-17.84,5.14-2.36.28-4.41,1.65-7.07,1.92-4.1.42-8.68-.3-12.84-.06-2.7,5.81-5.93,13.54-13.64,13.03-.03-.07-.93-.97-1-1,2.71-4.72,2.35-8.49,3.22-13.26s3.19-7.89.77-13.71c4.67,1.32,2.22,1.39,4.57,2.88,2.31,1.47,12.97.68,15.71-.09,3.25-.92,3.59-5.21,4.95-6.54,2.9-2.83,5.83-.96,5.82-8.74,0-3.97-3.74-12.07-5.11-15.94-5.06-1.02-8.05-4.08-13.46-3.58-4.87.45-6.77,4.84-11.48,5.04-3.76.21-1.61-4.42-5.53-5.04-5.39-.86-7.34,5.18-11.21,5.91-.73.14-7.89-1.62-8.19-1.91-.4-.41.38-4.09-.54-5.98-.59-1.21-2.58-1.41-3.19-2.29-2.82-4.04-4.38-8.66-6.34-13.13-1.03-2.35-1.11-2.81-3.98-2.52.6-1.27,2.15-5.31,2.03-6.44-.28-2.61-4.85-4.07,1.13-5.88,5.57-1.69,9.85.3,8.92-9.16-.54-5.52-4.64-2.5-8.82-4.24-3.88-1.61-6.62-6.42-6.2-10.62.28-2.84,2.66-5.98,2.95-7.61,1.56,2.43,3.64-1.72,5.97-.55.47.24,6.32,6.13,6.51,6.56.91,2.08.06,4.87.65,5.85.94,1.59,11.76,1.3,14.11.9,1.34-.23,12.74-5.22,13.21-5.78.86-1.03,5.9-13.91,6.3-15.68.65-2.92,1.62-11.99,1.26-14.81-1.24-9.63-10.21-9.28-11.59-13.38-2.17-6.42,1.55-8.85,1.63-12.51.02-.77-1.69-7.58-2.07-8.53,3.69,2.06,6.23-1.31,8.99-1,3.09.35,3.5,4.27,9.44,4.02,8.22-.35,10.84-6.03,18.54-7.01ZM834.8,561.85c-7.93-4.91-11.37-3.72-15.45,4.15-.71,1.37-4.68,10.18-4.87,11.11-.65,3.13.91,10.06,2.7,12.58.57.8,8.45,5.32,9.83,5.48s13.54-1.99,14.97-2.56c1.91-.77,5.74-4.93,6.1-6.98.39-2.28-.92-4.4-.89-6.71s.96-11.73.6-12.51c-1.98-4.2-8.68-2.39-11.85-3.04-.77-.16-.81-1.32-1.13-1.52Z"/>
  <path class="cls-12" d="M97.85,706.23c.02,5,3.71,10.92,8.42,13.05,6.47,2.93,20,6.86,26.81,5.69,4.3-.74,8.34-4.69,12.96-3.56,1.59.39,9.46,7.16,11.25,8.79,2.64,2.41,4.49,6.94,8.23,8.76,4.76,2.32,9.43.24,13.55,1.44,5.26,1.53,12.98,6.41,17.76,9.21,10.9,6.4,24.59,7.58,37.57,8.18,2.41.11,4.99-1.36,7.66-.47,3.05,1.02,3.13,10.69,9.38,11.67,3.9.62,9.77-7.52,14.99-8.61,3.44-.71,11.35-.47,14.51,1.02,4.86,2.29,1.58,11.94,10.74,16.73,1.24,5.47-7.96,8.13-8.83,10.65-.62,1.81-.24,9.93.83,11.32-3.86-1.05-6.39,5.42-8.64,5.84-.63.12-5.58-1.98-7.29-2.4-2.33-.57-4.93-.06-7.04-.96-1.05-.45-5.59-5.48-6.23-6.76-1.59-3.22-2.28-11.57-4.29-13.69-.33-.35-7.89-4.45-8.45-4.57-2.08-.44-4.86.82-7.52.61-8.3-.65-16.58-13.76-20.04-14.09-5.43-.53-11.32,17.95-20.02,19.01-4.77.58-9.01-2.59-13.02-2.95-8.22-.73-8.16,3.32-16.36-4.54-1.93-1.84-7-10.43-7.64-10.56-5.63-1.14-14.04,8.1-18.09,8.91-1.51.3-14.51-1-15.99-1.59-7.3-2.93-10.2-24-10.74-31.21-11.07-6.72-22.29-14.18-19.26-29.23.4-1.98,2.16-5.86,4.76-5.72Z"/>
  <path class="cls-2" d="M53.89,413.57c.32,1.25,7.01,5.53,8.42,8.07,2.53,4.57,1.46,10.93,7.04,14.94,1.69,1.22,9.21,3.6,11.31,3.77,2.62.21,4.65-.91,7.21-.8,5.49.24,13.09,10.23,17.47,11.02,1.92.35,1.3-.34,1.74-1.3.79-1.69,2.27-6.71,2.76-8.72,5.13-.08,10.17-5.42,15.31-3.8,1.18.37,1.55,1.77,1.67,1.81-.07,6.92,6.44,10.39,10.56,14.93,1.15,1.27,1.14,3.24,1.68,3.78.99.99,4.34.84,5.74,1.27,4.96,1.53,3.52,2,8.99,1,1.18-.22,2.73.15,4,0-.86,1.49,1.14,9.11-.92,12.32-1.67,2.61-10.92,2.35-9.07,8.66-7.23-6.47-10.25-1.7-14.34-3.09-2.63-.89-1.59-6.92-4.13-5.89-4.87,1.98-2.58,9.76-4.02,12.97-.86,1.91-6.9,5.17-8.92,7.07-1.01.95-1.13,2.99-2.08,3.91-1.1,1.07-3.16.96-3.97,2.02-1.53,2-1.7,10.03-3.05,12.93-1.03,2.22-9.91,12.21-12.18,12.8-3.44.89-7.01-.44-10.51,2.21-2.44,1.85-3.1,6.23-4.73,8.56-.88,1.26-2.38,1.72-3.01,2.46,1.42-6.38,5.17-12.41,6.77-18.7.56-2.21-.32-5.76.43-7.07.42-.73,7.49-3.86,7.78-4.21,1.51-1.8-2.62-2.68-3.57-3.88-2.83-3.54-1.39-8.08,1.58-11.09,10.13,10.27,16.31-18.75-2-8.99-1.69-6.38-4.15-3.84-7.49-4.01-1.62-.09-3.09-.9-4.74-.73-13.19,1.33-21,10.91-30.58-5.9-1.4-2.46-1.54-5.83-3.12-7.87-4.07-5.23-13.56-5.61-12.56-14.42l-8.46-14.02c.41-1.24-.14-3.33.78-5.7.74-1.92,3.46-5.09,5.21-6.28,7.61-5.16,18.81-5.53,26.98-9.99ZM114.09,478.25c-1.63-1.75-.68-6.67-3.23-7.74,1.56,7.71-6.98,8.77-7.99,12.5-.63,2.32,3.77,1.2,5.95,3.01,1.64,1.36,3.85,10.19,5,4.96.57-2.58.01-3.5,2-6.01,1.42-1.8,3.86-2.31,4.01-2.49,1.87-2.23-4.71-3.11-5.74-4.22ZM92.85,514.46c-2.6-.64-1.74.88-2.58,1.89-6.26,7.57,3.93,4.3,2.58-1.89Z"/>
  <path class="cls-9" d="M87.86,482.49c.65,2.44-.67,6.29,2,8.99-2.96,3.01-4.41,7.55-1.58,11.09.95,1.19,5.08,2.08,3.57,3.88-.29.35-7.36,3.47-7.78,4.21-.75,1.31.13,4.86-.43,7.07-1.6,6.29-5.34,12.32-6.77,18.7-1.89,2.21-3.66,4.7-6.03,6.45-1.82,1.35-5.5,1.58-6.52,3.54-1.61,3.1,2.66,8.08,2.45,9.34s-6.03,5.72-7.33,7.67c-1.18,1.75-1.78,3.99-2.54,5.95-3.22-.26-4.92-3.95-5.95-6.54l-1.05-23.43c-6.24-.61-9.67,5.24-16.34,4.94-6.87-.31-20.89-10.57-22.4-17.64-.87-4.06-2.63-12.05-3.13-15.84-.64-4.89,1.81-11.25.73-14.71-.78-2.49-7.47-4.45-8.62-10.43-1.37-7.13,9.1-16.4,14.48-20.05,1.77-1.2,10.04-4.58,10.35-5.87,1.51-6.17-9.23-9.08-6.76-19.51.39-1.65,2.29-3.44,2.73-4.76l8.46,14.02c-1.01,8.81,8.48,9.19,12.56,14.42,1.58,2.03,1.72,5.4,3.12,7.87,9.57,16.81,17.38,7.23,30.58,5.9,1.65-.17,3.12.65,4.74.73,3.34.18,5.8-2.36,7.49,4.01Z"/>
  <path class="cls-14" d="M741.31,134.89c4.88,10.29,16.2,6.71,24.82,9.64,5.56,1.89,14.9,9.98,21.45,6.14,2.03-1.19,2.29-3.96,4.37-4.61,8.09-2.55,14.51,8.31,20.34,12.26,4.07,2.76,15.62,6.26,17.43,10.55,1.93,4.58-1.43,20.15-1.16,26.32.07,1.58,1.44,3.38,1.63,5.23.91,8.83-4.42,3.65-6.93,4.85-1.21.58-1.98,2.84-3.71,3.34-2.5.72-8.31-1.13-8.31,2.65,0,1.46,1.58,2.89,1.8,4.26,1.65,10.43-.56,14.78,9.29,21.67,1.62,1.13,5.13,1.08,5.81,3.25.79,2.53-3.04,9.38-2.97,13.81.05,3.56,2.84,11.63,4.07,15.49-8.26-1.66-6.9-12.41-9.49-15.02-1.35-1.36-3.01-.68-3.5-.96-3.79-2.21-7.64-5.13-10.99-7.99-.95-.81-2.06-2.94-3-4,1.2-10.07,5.77-17.75-.14-27.33-4.09-6.63-8.45-4.65-12.14-7.58-1.85-1.46-1.37-4.62-4.97-6.29-6.06-2.81-12.41.71-16.57-6.4-4.29-7.32-.81-14.14-14.19-12.89-5.58.52-7.21,5.46-11.99,4.1-3.68-7.34-8.1-24.87-16.64-27.31-3.28-.94-7.49,1.05-10.28-1.21,9.48-6.6,17.44-14.32,25.98-21.97Z"/>
  <path class="cls-7" d="M732.32,652.3c-1.37-.88-5.8-2.22-6.75-3.24-3.02-3.23,1.52-5.31-7.91-6.38-1.81-.2-5.79,2.23-4.34-1.88.12-.35,1.99-.38,2.01-1.09.03-.9-1.17-1.96-.54-3.38.32-.71,9.42-10.62,10.49-11.56,2.77-2.43,5.51-1.84,7.52-3.47.79-.64,4.19-6.62,4.32-7.68.36-2.83-3.31-8.74,2.55-8.02,2.06.25,3.75,2.85,6.2,3.73,3.08,1.11,7.24-.49,8.5.42.91.66,1.17,4.91,2.08,6.93,2.15,4.75,5.69,4.72,7.56,6.92,1.64,1.93,2.4,7.54,4.73,9.77s6.09,1.57,8.5,3.49c4.23,3.37,4.2,8.07,6.47,11.51.62.95,15.8,14.24,17.02,14.97,2.11,1.28,3.49.56,4.53.94.07.02.97.93,1,1,.41.99,1.07,6.99.83,8.24-.85,4.3-4.56,3.1-5.64,5.42-2.86,6.12,1.49,13.45-5.28,19.7-6.55,6.04-15.79.4-22.15,1.79-4.03.88-8.45,8.06-14.72,5.81.37,9.05,2.67,14.69-5.49,20.98-9.59,7.39-13.62,1.61-22.48,3-1.97.31-3.16,1.77-5.45,2.05-8.08.97-5.19-1.3-13.86,2.12-5.71,2.25-6.78.48-10.06,1.05-1.76.3-6.45,6.97-13.59,7.34-3.64.19-5.4-2.83-9.01-2.57.14-.25-.14-.73,0-1,.61-1.22,1.84-2.05,2.5-3.98,1.69-4.94,3.29-18.94,8.51-21.52.22-.11,4.73-.51,4.98-.47,5.24.89,5.17,4.41,7.01,5.48,1.45.85,3.56.19,4.99,1,2.36,1.34.58,6.34,5,4.01,2.51-1.32,3.56-6.44,6.46-6.48,3.26-.05,11.35,6.87,15.31,7.76,7.09,1.59,7.7-2.77,9.15-8.33.43-1.63-.27-3.8.27-5.72.88-3.14,7.41-7.13,7.65-8.33.54-2.8-5.75-7.58-5.72-11.87.03-5.17,6.07-12.72,6.4-18.43,2.73-4.7,17.3-5.92,16.28-11.38-.79-4.2-9.39-4.16-10.39-5.58-1.47-2.1,1.08-7.89-2.07-8.94-6.2-2.07-6.86,6.5-12.07,7.67-1.83.41-9.04.65-10.62.24-1.11-.29-.56-1.97-.65-2.02,2.95-3.01,2.13-8.79,5.3-11.68,1.52-1.38,10.58-3.03,5.17-4.26-7.79-1.77-7.11-5.48-7.48-13.03-3.24-.79-1.68,3.56-2.44,6.05-2.75,9.01-6.83,5.24-8.55,6.95-1.97,1.96,5.01,2.92,6.45,5.03,1.98,2.89,1.53,7.59,1.54,10.94Z"/>
  <path class="cls-1" d="M76.87,536.43c.63-.74,2.13-1.2,3.01-2.46,1.63-2.33,2.29-6.71,4.73-8.56,3.5-2.66,7.07-1.32,10.51-2.21,2.27-.59,11.15-10.58,12.18-12.8,1.35-2.9,1.52-10.92,3.05-12.93.81-1.06,2.88-.95,3.97-2.02.95-.92,1.07-2.96,2.08-3.91,2.02-1.9,8.06-5.16,8.92-7.07,1.44-3.2-.85-10.99,4.02-12.97,2.54-1.03,1.5,5,4.13,5.89,4.1,1.39,7.11-3.38,14.34,3.09,7.6,6.8,3.52,12.22,3.01,20.49-.21,3.5-1.74,15.11,2.98,15.47,0,1.82,1.73,4.81,1,6.99-.05.15-1.79.93-2.24,2.22-1.68,4.87-.06,7.43-5.86,10.17-2.26,1.07-5.09.7-6.89,2.6-3.97-4.41-9.67-.41-8.99,5.99-12.26-1.6-8.24-.22-10.21,8.27-.53,2.3-2.56,4.43-3.27,6.72-1.8,5.78-.17,13.15-8.95,12.01-3.35-.44-3.11-5.02-8.81-3.84-6.4,1.32-7.47,14.73-21.71,13.8-2.8-.18-4.86-1.01-7.37-2.12-4.82-2.14-8.55-6.75-13.61-7.86.2-.48-.19-1.5,0-2,.76-1.96,1.37-4.2,2.54-5.95,1.31-1.95,7.11-6.35,7.33-7.67s-4.05-6.25-2.45-9.34c1.02-1.97,4.69-2.2,6.52-3.54,2.38-1.75,4.15-4.24,6.03-6.45Z"/>
  <path class="cls-9" d="M860.21,293.71c.07.1,1.48-.5,1.96.74.84,2.15,2.21,7.45,2.08,9.72-.19,3.39-2.38,6.7-2.95,10.12-1.53,9.26-.61,19.56-2.33,28.64-.75,3.94-3.9,5.08-3.76,8.72,5.98-.95,14.18,1.7,17.44,7.04,2.33,3.82,2.54,10.91,4.25,15.73,2.65,7.46,6.8,8.56,3.02,18.42-.74,1.93-6.91,11.89-8.31,13.67-3.9,4.98-13.06,7.8-13.41,16.06-.63-.1-1.46.15-2,0-.68-.19-1.39-.85-2-1-4.54-1.12-8.14-1.26-12.99-1-1.32-3.34,2.41-5,2.84-6.68.84-3.24-4.74-13.61-7.44-15.18-6.27-3.67-12.7,1.09-17.81.83-2.18-.11-7.17-2.13-9.56-2.94,5.94-.45,5.01-6.02,7-7.48s7.41-.72,9.57-2.42c.43-.34,5.34-9.02,5.36-9.57.12-3.91-4.47-6.07-4.91-7.28-.27-.74-2.61-11-2.73-11.88-.26-1.97,1.44-3.45.19-6.3s-5.82-3.78-8.49-3.02c0-.67.01-1.33,0-2-4.64.56-10.19-.35-13.05-4.43-3.05-4.34,5.12-7.97,9.06-6.06,2.68,1.3,3.95,7.66,3.99,10.49,4.99-.61,9.79-5.78,10.77-10.71,1.07-5.39,1.94-16.88,2.27-22.72.14-2.38-1.18-8.11-1.05-8.52.97-3.01,12.1-7.43,15.65-7.62,6.74-.37,10.56,1.81,17.33-3.36Z"/>
  <path class="cls-14" d="M363.63,70.97c1.97-.48,3.89-1.05,5.95-1.04-.25-4.82,1.2-17.27,5.73-19.75,2.22-1.21,5.07-.61,7.39-2.6,2.77-2.36,4.11-11.62,8.95-14.03,7.55-3.75,13.72-.15,20.72,1.17,3.1.59,6.13-.03,9.28.71,3.86.91,6.06,4.78,10.7,6.28,6.2,2,13.21.22,18.44,2.54,8.5,3.78,4.73,11.19,5.99,17.98.76,4.09,2.88,11.25,4,15.98.88,3.75,4.18,9.31,3.34,12.72-.43,1.75-6.62,8.26-1.58,7.99-.49.26-1.19,2.53-3,3-1.01.26-3.53-.32-4,0-1.23-5.4-5.33-7.23-9.99-8.99-2.51-8.82-15.99-4.87-22.43-4.96-1.98-.03-12.92-2.62-13.54-2.03,1.78,4.11,2.03,14,7.99,13.98,0,.33,0,.67,0,1-.04,3.12,2.13,4.65-.56,7.93-3.06,3.72-6.14,3.54-10.43,4.06-.92-3.91-4.95-2.45-6.99-3-1-.27-2.39-2.15-4-2,.02-1.42.8-4,1-5.99.22-2.17-.39-5.05,0-6.99.1-.51,3.11-2.66,1.85-4.84-.29-.51-8.38-6.06-9.71-6.78-1.18-.64-3.15-2.68-4.13-.37-.41-.26-.71-.85-1-1-.15-5.21-3.68-4.35-6.42-6.1-1.17-.75-1.4-2.52-1.74-2.72-1.57-.94-10.5,5.28-11.82-2.17Z"/>
  <path class="cls-9" d="M466.54,96.94c2.02-4.84,7.24-7.51,12.24-6.77,5.5.81,22.47,7.69,27.12,10.88,3.64,2.49,2.74,10.48,6.06,6.83,2.4-2.64,5.01-8.13,8.04-10.94,1.07-.99,7.98-5.78,9.01-5.97,9.67-1.84,18.72.89,25.46,7.97-8.26,13.64-19.09,30.42-26.15,44.28-7.35,14.42-7.8,32.47-7.82,48.61-6.7,1.61-15.75-2.71-16.51-10.01-2.32,1.2-12.7.65-13.31,1.19-.7.61-1.85,6.7-2.67,7.8-2.31,3.06-10.29,1.18-13.46.03-3.64-1.32-4.4-2.64-5.99-4.99,2.1-.53,6.1,3.89,6.95.41.44-1.8-1.74-10.66-.94-14.87.94-4.95,13.83-14.81-4.01-11.51-1.99-12.67,8.61-5.65,10.87-7.1.3-.19,1.8-4.82,3.1-6.41,3.86-4.75,4.36-2.07,6.01-10.46,9.96,5.49,13.44-13.18,3-11.99,1.29-9.59-6.51-15.96-8.52-24.94-1.97-1.6-4.4-2.86-6.97-3.08-1.71-.14-9.88.63-11.49,1.05Z"/>
  <path class="cls-7" d="M86.86,187.83c.71.76,5.7,2.9,7.02,4.74,3.6,5.01-.75,9.58,6.93,11.81,1.47.43,4.74.27,5.04.44s1.66,4.57,2.66,5.87c3.47,4.54,4.25,5.35,7.51,10.43,5.78,9.03,8.82,10.44,18.81,5.67.02,2.03-.81,4.41-2,5.99-1.97,2.63-7.96,6.09-10.99,9.49-6.8,7.63-5.91,10.59-8.99,19.48-3.57,2.63-11.15,4.93-12.53,8.95-1.49,4.34-.76,10.14-1.68,14.3-.59,2.69-3.56,5.64-3.82,8.31-.16,1.64,1.52,1.15,1.93,2.21,1.37,3.49,3.06,8.92,2.15,12.55-.29,1.16-1.94.5-2.04.63,2.32-6.99-6.21-16.05-10.99-7.99-2.19-1.38-5.1-4.49-7.71-4.8-1.96-.23-3.77,1.03-5.73.85-6.96-.65-12.72-2.51-20-1.01-2.51.52-2.86,2.34-4.6,3.39-1.25.76-4.52,1.3-4.79,1.71-.87,1.33,1.29,6.07-3.13,5.85-.03-.52-1.01-1.52-1-2,.27-13.8,15.89-10.82,25.35-12.11,3.39-.46,8-2.7,10.19-2.87,3.03-.23,6.72,4.19,8.41,2.99.9-.64-.21-18.8,1-21.97-1.08-.38-2.18,1-2.49,1h-14.99c-2.88,0-14.45-12.6-15.56-15.41-1.3-3.31-1.08-7.58-.96-11.11s.89-13.16,2.96-15.01c5.32-4.78,11.6-5.12,17.59-7.38,8.08-3.05,3.3-10.21,7.01-15.96,1.87-2.9,7.53-3.39,8.28-5.7.96-2.95-.15-9.64,1.16-13.33Z"/>
  <path class="cls-13" d="M208.76,104.93c-.92-3.57,5.81-8.03,8.35-7.79,1.63.15,2.73,2.27,4.64,1.79-.31-4.8-2.29-11.1-.33-15.74.59-1.41,7.69-6.5,8.17-7.88,1.12-3.21-.71-9.03.36-12.62.49-1.64,3.2-3.14,4.29-5.7,2.47-5.8.53-11.72,5.48-17.49s12.64-2.83,19.44-3.54c2.04-.21,3.57-1.95,6.02-1.99,6.29-.09,9.64,6.39,18.95,4.98,3.85-.58,6.45-3.77,11.08-2.03,1.49.56,5.39,3.83,5.95,5.11.95,2.16.11,4.47.72,6.27,1.08,3.18,3.8,11.91,4.92,14.06,1.7,3.28,6.2,4.74,7.86,8.1,3.32,2.05,10.32-5.73,17.95-.94,3.12,1.96,4.63,6.53,8.04,7.45-.24.72.16,2.1,0,3-1.78-.22-11.9.89-14.23,1.26-3.89.61-6.31,2.36-9.75,3.73-2.41-2.35-7.04-5.34-10.5-5.1-3.19.23-7.87,5.17-8.96,5.21-3.09.13-4.72-1.77-7.07-2.05-3.41-.41-12.76-1.04-15.98-.92-.6.02-5.03,1.58-5.45,1.87,1.53-13.96-15.26-7.82-10.25,2.77.93,1.97,2.17,2.46,4.26,2.23-.6.81-1.51,7.13-3.47,9.01-.79.75-4.79,1.51-6.52,1.98-2.88.78-7.41,2.66-8.99,3-11.64,2.48-24.46-3.47-34.97,2Z"/>
  <path class="cls-12" d="M77.87,174.85c1.17.42,3.31.93,4,2,1.22,1.9,3.06,8.91,5,10.99-1.3,3.69-.19,10.37-1.16,13.33-.75,2.31-6.41,2.81-8.28,5.7-3.72,5.75,1.07,12.91-7.01,15.96-5.99,2.26-12.27,2.61-17.59,7.38-2.07,1.85-2.85,11.54-2.96,15.01s-.34,7.8.96,11.11c1.11,2.81,12.68,15.41,15.56,15.41h14.99c.31,0,1.41-1.38,2.49-1-1.21,3.17-.1,21.33-1,21.97-1.7,1.21-5.38-3.22-8.41-2.99-2.19.17-6.8,2.4-10.19,2.87-9.47,1.29-25.08-1.69-25.35,12.11-4.38-1.65-12.57-9.7-13.56-13.92-1.24-5.26,1-6.52,1.49-10.63.31-2.59,1.98-17.53,1.58-18.38-1.7-3.6-5.83-4.28-4.31-11.28.83-3.82,12.14-12.65,15.81-14.2,1.49-.63,6.67-1.32,6.9-1.59,2.61-3.11-5.38-10.1-6.36-12.95-3.09-8.96,4.8-13.13,5.43-19.53.59-5.96-5.08-12.26.14-19.76,1.86-2.67,4.9-2.71,6.76-4.23,2.34-1.91,2.74-5.25,6.8-6.17,4.45-1.01,13.84,1.18,18.28,2.78Z"/>
  <path class="cls-12" d="M77.87,581.38c-.3,3.94,7.13,8.16,10.17,9.31,1.75.67,4.78.34,5.87,1.14,1.01.74.62,2.84,1.14,3.32.48.44,4.33.59,6.08,1.43,5.94,2.83,15.89,20.53,14.71,26.75-.19.99-3.38,7.32-4.45,8.04-1.41.95-13.44,5.44-15.28,5.71-11.02,1.6-15.81-11.15-22.57-6.83-2.27,1.45-1.07,11.23.3,12.59,2.81,2.81,9.08,1.82,12.26,2.73,4.58,1.3,21,10.55,22.29,14.67,1.83,5.86-1.19,15.38-.26,22.24.56,4.16,1.59,7.64,3.71,11.25-1.85,2.16-4.7,1.25-7.38,2.64s-2.66,4.89-5.62,4.88c.1-2.57.66-7.5-1.4-9.09-1.52-1.17-3.86-.66-5.53-1.47-6.79-3.31-18.87-11.58-23.56-17.4-2.86-3.55-5.8-6.29-4.27-11.3.8-2.62,4.38-2.87,4.86-7.16.67-6.09-3.69-8.62-3.7-14.19,0-1.51,1.44-10.02,1.87-11.57,1.28-4.54,7.3-10.46,6.8-14.16-.35-2.62-9.63-7.01-12.55-9.53-7.48-6.45-11.15-12.97-9.24-23.26.51-2.76,3.44-7.49,4.76-10.72,5.06,1.12,8.79,5.73,13.61,7.86,2.51,1.11,4.57,1.94,7.37,2.12Z"/>
  <path class="cls-14" d="M187.78,115.92c.37,3.32-3.42,2.54-4.49,4.01-.35.49-5.04,9.62-5.41,10.57-2.56,6.5-1.09,14.17-9.08,17.9-3.53,1.65-10.71,2.39-13.55,4.43-2.99,2.14-4.92,11.99-10.09,12.95-3.88.72-6.23-15.63-15.82-13.94-5.5.97-.81,9.34-1.65,12.32-.24.84-5.12,4.86-5.92,5.21-2.25.98-12.54-.12-16.23.69-3.25.72-7.22,6.19-10.33,6.54-5.04.56-14.04-10.31-13.35.24-.69-1.07-2.83-1.58-4-2-.96-5.2-4.96-12.17-4-17.44.15-.81,8.57-12.79,9.47-13.55,6.11-5.23,23.97-8.95,31.46-6.42,2.37.8,7.61,7.47,9.03,6.44,2.82-13.49,7.51-37.25,25.47-35.95,3.43.25,11.85,2.38,15.77,3.23,4.85,1.04,6.1,5.02,10.28,5.7,4.58.74,8.24-.63,12.43-.94Z"/>
  <path class="cls-13" d="M731.32,730.21c2.17,5.11-3.05,10.36-3.08,13.47-.02,2.39,1.99,4.68,2.17,7.98.17,3.13-.73,16.91-1.31,19.77-2.02,9.93-12.86,8.53-19.83,10.14-2.81.65-4.81,3.2-7.5,3.56-4.12.55-6.92-2.31-10.65-1.81-2.83.38-4.89,2.7-7.52,3.56-17.49,5.72-14.09-9.52-23.19-17.25-1.91-1.62-8.88-6.31-11.02-6.47,7.2-11.53,22.82-10.57,29.97-22.97,3.61-.26,5.36,2.76,9.01,2.57,7.14-.37,11.83-7.04,13.59-7.34,3.27-.56,4.35,1.21,10.06-1.05,8.67-3.42,5.78-1.16,13.86-2.12,2.29-.27,3.48-1.74,5.45-2.05Z"/>
  <path class="cls-9" d="M641.39,702.24c2.04,7.36-6.47,6.07-10.92,8.56-1.61.9-2.49,2.82-4.15,3.84-5.28,3.23-7.48,1.2-9.69,9.29-.78,2.84-.5,4.68-1.68,8.32-2.09,6.41,9.88.42,11.79,1.05,1.59.52,2.45,4.05,4.74,5.32,2.54,1.41,8.4,2.07,11.18,1.32,2.43-.65,3.69-3.52,7.23-3.83,3.91-.34,8.11,2.72,10.79,1.95,2.22-.64,2.44-3.53,2.82-3.75.72-.42,13.71,3.74,15.87,4.88-.14.27.14.75,0,1-7.15,12.4-22.77,11.44-29.97,22.97-4.05-.3-8.13,3.34-12.57,3.91-10.96,1.4-13.42-4.6-21.5-9.3-2.88-1.68-7.01-1.86-9.86-4.13-2.32-1.85-3.76-5.68-6.54-7.45l-5.74,8.31c-.52,2.14-.06,3.37-.74,5.67-3.65-.94-.32,4.45-4.38,2.88-2.75-1.07-3.14-5.51-4.59-6.45-1.82-1.18-3.71,2.23-7.04,1.19s-3.25-6.6-7.97-7.6c.99-.73,1.18-3,3.5-3.02.59,0,.4,1.62,1.24,1.96,4.04,1.63,12.09,3.71,16.29,2.66,3.12-.78,6.57-7.58,8.08-10,.71-1.14,2.61-1.35,2.87-2.31.36-1.31.18-10.44-.45-11.34-1.34-1.93-7.09-.45-7.56-.93-.42-.42.91-5.3-.93-6.56s-9.03.01-11.05-3.43c20.34-4.79,40.63-10.09,60.95-14.98Z"/>
  <path class="cls-13" d="M858.21,422.56l11,19.47c5.64,2.12,11.64.71,16.88,4.1,4.17,2.7,8.61,15.34,11.3,20.66.7,1.39.53,3.49,1.32,4.68,2.24,3.36,8.75,1.71,7.41,11.44-1.09,7.9-10.74,13.36-10.96,14.27-.65,2.69.44,7.21.02,10.28l-5,3c-.61.12-1.42-.14-2,0-1.09-1.69-2.38-.61-3,1-.62.14-1.33.8-2,1-1.9.58-4.17.41-5.99,2-2.27-5.46-6.62-6.35-8.87-9.61-.74-1.08-6.99-17.03-7.12-18.36-.78-8.19,2.15-10.33-4.01-17.47-1.39-1.61-3.85-2.12-4.95-4.11,6.74-9.43,14.08-13.62,2.9-23.83-1.27-1.16-3.01-2.72-3.94-3.53l6.99-12.51c-.15-.95-1.77-.26-2-.47-.18-.17.12-1.44,0-2,.54.15,1.37-.1,2,0Z"/>
  <path class="cls-13" d="M491.52,738.2c3.33,4.22,1.05,11.34,4.31,15.67s9.48,5.19,12.73,7.75c4.55,3.59,3.54,11.07,12.21,9.32.89-.18,7.5-3.42,7.73-3.78,3.39,1.58,5.7,5,9.73,5.8,3.37.66,4.96-.77,7.25-.8l-11.69,11.75c-3.25,2.07-7.03,1.76-10.34,2.69-3.08.86-2.57,3.5-7.97,2.09-5.84-1.53-5.65-5.38-8.28-8.23-.87-.94-2.63-1.39-3.74-2.74-2.18-2.66-3.35-5.7-5.07-7.92-4.81-6.23-9.13,6.05-12.76,6.94-2.31.57-4.71.02-6.54.49-2.74.7-4.8,2.52-8.19,2.84-11.54,1.09-10.74-8.31-15.52-15.23-3.83-5.54-10.64-9.47-13.83-15.64,16.6-3.82,33.38-7.15,49.96-10.99Z"/>
  <path class="cls-2" d="M493.52,123.91c-5.4.62-6.84,10.02-3,10.99-.06.32.06.68,0,1-1.65,8.39-2.15,5.71-6.01,10.46-1.29,1.59-2.8,6.22-3.1,6.41-2.26,1.45-12.85-5.56-10.87,7.1,17.84-3.3,4.95,6.56,4.01,11.51-.8,4.22,1.38,13.07.94,14.87-.85,3.48-4.85-.94-6.95-.41-1.92-2.84-3.82-2.03-6.99-2-.09-2.29-4.82-16.61-5.98-19.5s-2.18-6.78-5.54-7.46c-4.66-.94-5.99-1.38-10.46-3.01.47-6.18-8.29-5-10.47-10-1.04-2.38-.05-4.42-.49-6.29-.24-1.04-2.42-.96-2.9-2.31-1.57-4.42,2.79-7.54,6.87-7.37-1.02,3.19-1.01,8.12.26,11.23.78,1.9,2.64,2.85,3.74,4.75.3.52-.46,2.55.95,3.55,1.24.87,2.98.19,4.04.45,5.18,1.29,12.86,4.39,17.4.91,2.18-1.68,3.55-8,5.57-10.41,1.8-2.16,6.88-4.12,7.8-7.18,2.17-7.19-2.91-6.78-3.64-8.94-.95-2.82.69-7.22-1.33-10.65-1.86-3.16-9.29-3.47-7.81-9.67,1.81-.46,2.51-2.73,3-3,.63-.34,3.76-1.94,4-2,1.61-.42,9.77-1.19,11.49-1.05,2.57.21,5,1.47,6.97,3.08,2.01,8.99,9.81,15.36,8.52,24.94Z"/>
  <path class="cls-14" d="M362.63,768.16c3.46,11.37-14.16,13.86-15.76,16.21-.91,1.33-1.36,7.38-3.49,9.49-.33.33-6.98,3.61-7.7,3.79-6.45,1.67-13.62-.73-20.46,1.52-9.04,2.98-13.21,17.48-25.49,7.4-2.08-1.7-2.63-3.77-4.02-5.76-.62-.89-1.95-.61-2.02-.7-1.08-1.4-1.45-9.52-.83-11.32.86-2.52,10.06-5.18,8.83-10.65,10.93,5.71,14.28-5.41,21.98-4.99,3.15.17,5.24,3.11,9.43,3.03,7.63-.14,30.54-6.07,39.53-8.03Z"/>
  <path class="cls-12" d="M58.88,353.64c-1.63,10.7-1.12,6.69-5.02,15.46-3.36,7.56-5.14,19.78-3.91,27.93.51,3.36,2.96,8.12,3.93,12.55.25,1.15-.28,2.91,0,4-8.16,4.45-19.37,4.83-26.98,9.99-2.86-11.96.58-10.15,10.99-9.99.69-4.05-3.27-4.52-5.43-7.05-8.43-9.84-.86-17.1,1.19-27.66,1.39-7.18-1.18-7.7,4.71-14.27,1.31-1.47,3.4-2.09,4.56-3.44,5.88-6.83,2.49-10.93,15.97-7.51Z"/>
  <path class="cls-13" d="M829.23,269.74c5.76,17.95,20.42,11.58,30.01,21.49.78.81.67,2.05.97,2.49-6.77,5.17-10.59,3-17.33,3.36-3.55.19-14.68,4.61-15.65,7.62-8.43.21-12.93-8.93-13.99-15.98-.28-1.87.52-4.01-.49-6-.8-1.57-3.43-1.67-4.29-3.7-2.11-4.98-1.89-13.64,1.35-18.19,2.07-2.91,5.71-3.64,6.42-7.06.49.28,2.15-.4,3.5.96,2.59,2.61,1.23,13.36,9.49,15.02Z"/>
  <path class="cls-12" d="M243.73,102.93c-2.37,2.29-3.15,8.28-4.93,10.3-.94,1.06-2.83.89-4.1,2.12-4.5,4.33-7.73,11.86-13.52,13.47-5.2,1.44-10.4-.61-15.41,1.08-.95-5.62,1.75-14.24-6.99-14.98-.44-4.84,4.77-5.58,7.98-7.55,1.06-.65,1.81-2.33,2.01-2.44,10.51-5.46,23.33.49,34.97-2Z"/>
  <path class="cls-2" d="M528.49,767.16c.21-.34-.16-1.97.54-2.92,4.98-6.74,3.27-6.2,5.73-13.29,2.82-8.15,4.88-7.12,8.77-12.25.72-.95,1.44-5.88,3.95-3.51,1.27,1.21-.68,10.77,2.45,15.04,4.13,5.63,7.7-.07,12.54,3.94-.9,2.5.31,10.46-2,13.98-.51-.06-9.27.99-10.28,1.21-1.59.34-3.04,1.25-3.71,2.79-.33.01-.67,0-1,0-2.3.04-3.89,1.47-7.25.8-4.03-.79-6.34-4.22-9.73-5.8Z"/>
  <path class="cls-7" d="M568.45,750.18c4.71.99,4.6,6.54,7.97,7.6s5.23-2.37,7.04-1.19c1.45.94,1.84,5.38,4.59,6.45,4.06,1.58.73-3.82,4.38-2.88-3.2,10.77-4.31,8.71-12.99,12.98-5.35-1.01-10.67-2.59-16.05-3.48-1.29-.21-2.74-1.5-2.93-1.52,2.31-3.53,1.1-11.49,2-13.98.43-1.2,5.06-3.31,5.99-4Z"/>
  <path class="cls-14" d="M868.2,553.41c-.26.11-.66-.08-1,0,.87-5.28,4.86-10.14,6.52-14.96.69-2.01,1.93-6.78,2.47-9.01s1.87-7.97,2-9.99c4.26.75,7.97,8.74,8,12.47-.95,6.07-4.57,11.42-6.9,17.09-4.16.97-7.36,2.89-11.09,4.4Z"/>
  <path class="cls-12" d="M363.63,70.97c1.31,7.45,10.25,1.22,11.82,2.17.34.2.57,1.97,1.74,2.72,2.74,1.75,6.28.89,6.42,6.1-6.25-3.15-17.4-4.58-24.2-2.72-2.99.82-1.52,3.64-4.29-1.27l-1.49,3.99c-4.88-.53-8.75-1.48-12.99-2,.16-.89-.24-2.28,0-3,1.9-5.74,15.13-.44,15.93-1.03.41-.31.2-3.06,1.72-4.05,1.67-1.09,3.8-.54,5.33-.91Z"/>
  <path class="cls-13" d="M560.46,768.16c.19.02,1.64,1.3,2.93,1.52,5.38.89,10.71,2.46,16.05,3.48-.24.12-.87,1.91-2.73,2.74-6.44,2.87-12.88,2.36-19.27-.23-5.08-2.06-2.99-3.78-10.97-3.52.67-1.53,2.12-2.45,3.71-2.79,1.01-.21,9.77-1.26,10.28-1.21Z"/>
  <path class="cls-5" d="M854.21,81.96c2.04-.59,4.84-.86,6.99-.99,1.67,1.24-12.23,5.9-13.99,5.98-.44-2.44,4.93-4.4,6.99-4.99Z"/>
  <path class="cls-14" d="M883.19,512.46c-.26,2.58-2.44,4.74-5,4.99-.02-.16-.86-2.67-1-3,1.83-1.59,4.09-1.42,5.99-2Z"/>
  <path class="cls-14" d="M895.18,507.46c-.14.98.32,1.1-.65,2.05-2.65,2.6-4.1.9-4.35.95l5-3Z"/>
  <path class="cls-14" d="M888.18,510.46c-.49.12-1.59.68-3,1,.62-1.61,1.91-2.69,3-1Z"/>
  <path class="cls-11" d="M252.72,99.93c4.62,8.46.08,4.88-3.94,8.55-5.12,4.67-1.76,13.66-4.08,19.89-1.24,3.35-5.38,5.35-5.82,7.21-.37,1.58,1.05,3.66.86,5.71-.15,1.66-1.67,3.03-1.79,4.25-.08.8,2.67,6.91,3,7.11.85.54,2.69,0,3.77.68,1.36.87,3.92,15.36,6.13,18.87,2.13,3.38,9.66,6.44,13.45,6.54,5.09.13,15.73-5.34,18.8-4.93,2.05.27,4.65,3.08,7.05,4.06,2.1.85,9.09,1.74,9.47,2.04s-.13,1.69.06,1.92c-4.46-.48-6.58,4.25-9.04,5.45s-6.84.67-8.91,2.08c-4.12,2.8-3.38,20.98-1.43,25.33,1.54,3.43,3.83,3.62,4.39,8.09-3.01-2.66-7.32-4.7-9.47.02-3.86,8.51,9.17,14.08,9.47.98,3.06,1.15,4.86,2.66,8.43,1.97,1.83-.35,4.46-.74,5.56-.97-1.34,1.78-3.05,5.5-2.97,7.6.06,1.54,6.11,4.86,3.97,9.38-5.27.47-10.74.51-15.99,1-2.45-3.18-7.7-4.5-10.67-6.33-3.51-2.16-1.99-4.9-9.31-4.66l-9-11.56c-1.71-.9-4.1,1.65-6.54,1.68-1.8.03-1.25-1.87-2.13-2.08-3.61-.86-10.1-.23-13.6-1.22-2.56-.73-2.99-3.91-3.97-4.52-1.25-.78-3.57-.3-5.72-1.78-6.05-4.19-.55-14.9-4.53-20.44s-11.97-.95-13.98-5.02c-1.56-3.13,3.91-17.43,4.15-22.63.17-3.57-1.71-9.82-1.53-12.88.09-1.5,1.69-2.51,1.85-3.99.97-8.59-1.79-10.53-2.96-17.43,5.01-1.69,10.2.35,15.41-1.08,5.8-1.6,9.02-9.13,13.52-13.47,1.27-1.22,3.16-1.06,4.1-2.12,1.79-2.02,2.56-8.01,4.93-10.3,1.59-.34,6.11-2.21,8.99-3ZM235.73,164.86c-1.66-1.77-1.68.44-2,1.48-1.15,3.77-1.02,5.93-5.98,6.53-1.01,3.31,3.84,2.09,4.8,3.18.63.71.97,6.27,1.19,7.8,2.58.27,1.59,0,2.02-1.46,1.19-4.06-.21-8.44,5.96-7.54.58-3.04-3.18-2.5-4.47-4.01s-1.29-5.71-1.54-5.97ZM271.97,201.31c0-2.53-2.05-4.59-4.59-4.59s-4.59,2.05-4.59,4.59,2.05,4.59,4.59,4.59,4.59-2.05,4.59-4.59Z"/>
  <path class="cls-11" d="M188.77,354.64c-.07,4.65.04,9.33,0,13.98-5.49,1.78-10.06-5.33-14.32-3.86-1.58.55-2.2,3.29-3.59,4.43-1.57,1.29-4.1,1.59-5.15,2.85-2.61,3.14-2.18,10.75-.2,14.3,3.35,2.45,2.56,6.23,6.32,8.7,4.23,2.78,10.6-.9,15.94,1.55,0,.67,0,1.33,0,2-3.3-.22-5.33,2.21-8.17,3.32-1.42.56-4.65.51-4.83.68-.24.22,1.18,2.67.3,4.69-1.07,2.49-3.64,2.8-4.36,3.99-2.66,4.44.39,9.26.06,12.3-.17,1.61-3.1,8.57-5.99,6.99-1.52-5.94-3.61-5.22-7.66-8.33-.82-.63-1.15-2.57-2.3-3.21-3.78-2.12-4.16,3.05-6.25,3.89-2.38.96-4.92.23-7.05.87-1.3.39-2.14,2.02-3.44,2.55s-6.87,1.96-7.12,2.37c-1.71,2.68,1.95,7.86,1.86,10.85-2.08-.82-4.28-.54-5.99-1-.12-.03-.49-1.44-1.67-1.81-5.14-1.61-10.18,3.72-15.31,3.8,1.71-7.01,7.54-33.21-4.53-33.04-5.46.08-8.01,8.45-8.48,13.06-2.43-1.68-3.02-5.33-6.52-5.98-15.16-2.83-9.05,18.59-2.46,24.97-2.56-.11-4.59,1.01-7.21.8-2.1-.17-9.61-2.55-11.31-3.77-5.58-4.01-4.51-10.37-7.04-14.94-1.41-2.54-8.1-6.82-8.42-8.07-.28-1.09.25-2.84,0-4,4.11-1.3,7.67-5.21,11.27-7.21,6.75-3.76,15.47-5.71,21.97-9,3.01-1.52,7.78-6.54,10.71-7.36,2.53-.71,4.67,2.48,7.39,1.53,2.52-.88.43-5.52,4.14-5.99,4.09-.52,7.07,4.55,10.89-.07.48-.58.3-2.02.86-2.58.87-.88,4.15-.12,3.71-3.28,6.15,2.14,8.61,3.89,11.49,9.99.75,1.58,4.04,16.23,6.49,13.98,1.47-8.41,3.05-17.8,9.46-24.01,2.53-2.45,8.46-3.86,5.51-6.43-2.17-1.89-6.55-2.25-9.51-5.47-1.51-1.65-2.52-4.01-3.45-6.04,4.07-.99,9,1.05,12.49,1,10.15-.16,20.96-5.43,31.47-4Z"/>
  <path class="cls-14" d="M105.85,204.81c2.38-2.06,2.7-5.59,4.53-7.96,1.21-1.56,3.84-2.23,4.31-3.68,1.08-3.3-.54-6.51,1.76-11.23,1.09-2.24,9.64-12.54,11.69-13.37,4.63-1.87,7.34,5.04,8.39,5.29,5.08,1.2,13.51.58,18.19,4.57,1.24,1.06,5.71,12.18,6.03,13.95.68,3.73-.16,13.8-1.41,17.46-.26.77-6.05,10.07-6.54,10.44-2.15,1.62-7.61,1.02-10.22,1.77-1.95.56-4.98,3.42-7.75,4.74-9.99,4.78-13.02,3.36-18.81-5.67-3.26-5.09-4.04-5.9-7.51-10.43-1-1.3-2.38-5.72-2.66-5.87Z"/>
  <path class="cls-11" d="M132.82,232.78l5,1.01c1.01,3.48-2.12,3.21-3.04,4.68-2.51,3.97.64,5.2.78,7.58s-1.84,6.27-1.52,8.98c.05.39,2.12,6.39,2.32,6.68,1.34,2.02,5.97,1.74,6.49,5.58.41,2.98-1.7,4.62-1.98,6.99-.39,3.3.81,17.04-1.21,18.27-1.03.63-3.48-.38-5.43,1.05-2.83,2.08-1.13,10.1-6.95,11.09-4.66.79-4.7-1.9-7.2-2.74-5.03-1.68-12-3.22-17.22-3.26,2.82-7.57-2.51-11.74.26-19.21,1.42-3.82,3.77-4.35,5.16-6.82,1.54-2.75,3.55-7.99,4.57-10.92,3.08-8.89,2.19-11.85,8.99-19.48,3.03-3.4,9.02-6.86,10.99-9.49Z"/>
  <path class="cls-10" d="M161.8,167.86c-3.61-11.1,5.35-20.05,15.53-12.03,1.24.98.87,3.15,2.44,3.03,1.83-20.59,20.6-19.34,18.87,2.38-.3,3.82-6.44,25.62-8.85,27.15-2,1.27-9.08-3.4-11.31-4.75-3.63-2.2-10.17-6.62-12.68-9.79-.68-.86-3.82-5.45-4-5.99ZM188.76,185.83c2.62-8.34,12.13-31.07,4.09-37.52s-11.86,11.13-11.07,16.54c-2.39.55-1.62-.41-2.22-1.3-2.58-3.79-9.24-13.07-14.2-6.63-8.17,10.62,15.01,26.32,23.41,28.91Z"/>
  <path class="cls-10" d="M124.83,375.62c-.47-.17-1.83.22-2,0-2.04-2.82,5.34-5.01,7.48-7,2.9-2.69,4.78-7.14,5.87-10.89.32-1.11,1.88-16.81,4.65-12.54,1.32,2.04,2.39,8.97,3.98,12.45.93,2.03,1.94,4.4,3.45,6.04,2.96,3.22,7.35,3.58,9.51,5.47,2.95,2.57-2.98,3.98-5.51,6.43-6.41,6.21-7.98,15.6-9.46,24.01-2.45,2.25-5.75-12.4-6.49-13.98-2.88-6.1-5.33-7.85-11.49-9.99ZM154.8,369.63c-.38-.39-8.2-2.37-8.99-5.51l-5.98-12.48c-1.13,10.1-4.77,17.06-13,22.96,3.72.14,6.58,2.96,8.99,5.5l5.98,13.48c.79-6.78,3.14-12.75,7.5-17.98,1.23-1.48,6.67-4.78,5.5-5.97Z"/>
  <path class="cls-12" d="M263.71,231.78c7.32-.24,5.8,2.5,9.31,4.66,2.97,1.82,8.22,3.15,10.67,6.33-10.92,1.01-22.1,1.67-32.97,3,1.96-5.71,6.7-13.77,12.99-13.98Z"/>
  <path class="cls-10" d="M190.03,239.5c-5.31-4.78-1.71-22.34,7.78-19.3,10.93,3.5.67,26.91-7.78,19.3ZM194.49,222.94c-6.01,1.61-6.94,18.81,2.28,14.34,4.27-2.07,5.09-16.31-2.28-14.34Z"/>
  <path class="cls-10" d="M85.86,300.7c4.78-8.06,13.31,1,10.99,7.99-1.62,2.11-3.44,10.18-7.32,9.84-6.69-.59-6.24-13.5-3.67-17.83ZM87.87,315.68c4.77,3.21,8.55-13.36,4.36-14.86-6.42-2.3-5.98,13.77-4.36,14.86Z"/>
  <path class="cls-1" d="M158.44,317.82c1.38-.46,5.01-.5,5.92.8.94,2.29.9,6.35-1.55,7.56-7.33,3.63-7.54-7.3-4.37-8.36Z"/>
  <path class="cls-8" d="M174.93,239.54c0,2.49-2.02,4.51-4.51,4.51s-4.51-2.02-4.51-4.51,2.02-4.51,4.51-4.51,4.51,2.02,4.51,4.51ZM172.78,237.78c-.65-.65-5.54.03-4.99,2.48.87,3.83,7.27-.2,4.99-2.48Z"/>
  <path class="cls-14" d="M165.79,173.85c-5.34.84-8.27-1.81-4-5.99.18.54,3.32,5.13,4,5.99Z"/>
  <path class="cls-9" d="M188.77,457.52c-.1,40.94,0,81.92,0,122.86-6.13-1.22-3.01,9.7-5.65,12.07-2.44,2.19-11.63,5.63-15.1,6.67-1.22.37-4.08.09-4.23.24-.37.37,1.22,6.92-2.69,7.89-2.9.72-3.36-3.23-6.56-2.76-1.61.23-10.55,5.47-11.24,6.85-2.68,5.37,2.37,3.48,2.57,4.55.33,1.76.13,6.89-.15,8.86-.63,4.39-5.2,9.05-5,11.07.27,2.71,4.3,1.84,3.08,5.5l-22.37-9.09c-2.88-2.03-1.25-8.52-5.6-8.88,1.18-6.21-8.76-23.92-14.71-26.75-1.75-.83-5.6-.99-6.08-1.43-.52-.48-.14-2.58-1.14-3.32-1.1-.8-4.12-.48-5.87-1.14-3.04-1.15-10.46-5.37-10.17-9.31,14.24.93,15.32-12.49,21.71-13.8,5.7-1.17,5.45,3.41,8.81,3.84,8.78,1.14,7.15-6.23,8.95-12.01.71-2.29,2.74-4.42,3.27-6.72,1.97-8.49-2.05-9.87,10.21-8.27,1.22,11.5,16.14,1.95,8.99-5.99,1.8-1.9,4.63-1.53,6.89-2.6,5.79-2.74,4.18-5.29,5.86-10.17.44-1.29,2.19-2.07,2.24-2.22,7.63,3.57,11.87,1.38,13.54-6.93,3.31-16.43-14.46-16.45-14.54-.06-4.73-.36-3.2-11.97-2.98-15.47.51-8.27,4.59-13.69-3.01-20.49-1.84-6.31,7.4-6.05,9.07-8.66,2.06-3.21.06-10.83.92-12.32.05-.09,1.38.27,2.02-.68.72-1.06.75-3.12,1.95-3.84,1.41-.84,3.65-.27,5.29-.73,1.29-.36,3.07-1.69,3.72-1.75,3.68-.34,12.75,6.39,17.98,4.99Z"/>
  <path class="cls-12" d="M187.78,632.32c0,.18,1.06,1.55,1.07,3.38.1,20.68-.24,41.35-.06,62.03.29,1.63,3.6,4.64,4.98,5.51-2.11,3.06-13.01-4.24-13.89-5.59-1.18-1.83-1.05-4.61-2.23-6.76s-4.57-3.59-4.9-6.18c-.27-2.14,1.13-4.11,1.1-5.99-.05-3.16-.43-3.95-.35-8.06.03-1.47-1.26-11.03-1.73-11.36l-5.98,2.99c1.99-6.94,3.43-12.65,3.47-19.99l18.51-9.97Z"/>
  <path class="cls-12" d="M715.33,156.87c2.79,2.26,7,.28,10.28,1.21,8.55,2.45,12.97,19.98,16.64,27.31,4.79,1.36,6.42-3.58,11.99-4.1,13.38-1.25,9.9,5.57,14.19,12.89,4.17,7.11,10.52,3.6,16.57,6.4,3.6,1.67,3.12,4.82,4.97,6.29,3.69,2.92,8.05.95,12.14,7.58,5.92,9.58,1.34,17.26.14,27.33-3.66-.94-4.32-5.17-8.54-5.94-2.95-.54-11.2-.33-13.74,1.14-3.67,2.12-1.9,5.87-3.21,8.78-.85,1.9-4.48,3.25-6.03,4.96s-2.53,5.18-3.86,6.13c-2.49,1.77-6.21-.38-7.58,2.91-.6-.48-1.97-.46-2.73-1.26-.48-.51-.13-1.55-.27-1.73,4.45-1.73-1.11-12.04-5-10.99-1.03-3.93-2.78-7.72-2-11.99h-2.99c-1.4,11.58-2.42,26.75-14.99,31.48,2.24,3.75,6.84,4.5,9.44,8.52,1.31,2.03,2.68,5.53,2.55,7.94,0,.11-1.59,1.39-.99,1.99.23.23,1.73-.22,1.99,0,.22.2-.21,1.49,0,2l-8.55,9.93c-.88,4.13-.1,10.7-2.38,14.34-.34.55-8.7,8.69-9.3,8.93-2.89,1.17-6.27.63-9.41,1.58-6.67,2-15.27,15.15-16.31,22.15-.19,1.25.2,2.77,0,4-.8,4.77-4.99,3.13-5.89,4.12-.61.68.2,3-.11,3.87-1.59,4.48-5.16,1.75-5.82,2.12-.32.18-.48,1.81-1.22,2.29-4.35,2.76-13.57,1.22-18.94,2.59-1-33.7-5.25-69.53-24.98-97.89-1.27-7.8,1.83-6.76,5.22-9.98,1.09-1.03,4.77-5.65,5.43-5.87,3.23-1.07,9.24.65,7.34,4.87,3.45.79,6.45-1.34,4.73-4.79-.1-.21-1.42-.1-2.26-2.15-2.09-5.12-2.59-11.38-.51-16.45-.83-2.89-7.28-.16-9.96-1.6-.16-6.76,6.83-4.74,10.7-2.2,4.8,3.15,2.43,8.7,9.7,9.1,7.12-7.28-3.63-11.09-3.41-17.88,4.74,3.18,7.98-1.89,10.47-1.96,3.28-.1,7.91,4.36,14.99,2.93,3.84-.77,4.11-6.51,8.04-6.94.39-.04,6.42.07,6.75.15,1.31.33,2.16,1.66,2.71,2.81.21.43-.43,1.81.22,2.75.56.82,2.93.76,3.6,2.93.63,2.03-.22,8.92.19,9.31,1.13-.15,2.25.59,3.08-.6.6-.85,3.51-7.94,3.91-9.39,2.04-.42,5.73,1.1,5.99-2.49-4.95-2.71-6.03-7.09-5.99-12.5.02-2.82-.13-8.16.03-10.44.14-2.02,2.11-3.49,1.96-5.95-.3-5.15-7.78-9.31-6.99-14.56h5.49c1.97-8.07-7.93-1.95-8.85-2.11-1.28-.22-9.84-5.81-7.64-8.88,3.69-1.87,5.32-2.44,8.99-4.99ZM703.01,278.86c-2.69.89-5.03,8.68.83,8.95,8.69.4,6.45-11.35-.83-8.95ZM724.73,312.71c0-2.74-2.22-4.96-4.96-4.96s-4.96,2.22-4.96,4.96,2.22,4.96,4.96,4.96,4.96-2.22,4.96-4.96Z"/>
  <path class="cls-3" d="M728.32,409.58c.16.5-.72,3.12-1,4-.71,2.26-2.03,2.96-2.08,6.51-.04,3.23,2.45,16.66.97,18.36-.22.25-4.43,1.15-6.22,2.27-7.23,4.52-14.45,18.39-14.65,26.8-10.65-3.14-21.94,2.28-23.9,13.57-.52,2.99-1.56,14.33-1.06,16.88.66,3.38,8.51,9.39,7.89,11.9-3.47.93-8.83,9.61-10.13,10.37-1.86,1.09-9.05-.32-11.78.22-.07-40.93.37-81.93,0-122.86,5.98,3.02,7.07-3.1,12.03-1.58,5.39,1.66,6.58,11.23,12.4,11.43,1.52.05,13.35-1.61,14.83-2.07,5.32-1.67,7.06-11.77,16.73-3.31.85.74,5.82,7.06,5.97,7.52Z"/>
  <path class="cls-13" d="M761.29,335.66c1.67.15,3.09.67,5,0-.48,2.11.49,4.9,1,6.99-4.81,1.16-5.31,15.54,2,14.98-.3.41-.02,3.08-1.55,4.94-1.79,2.19-7.34,3.66-8.26,6.76s.84,5.26.86,7.82c.04,3.89-.18,6.65.01,10.91.49,10.65-4.41,4.5-10.03,7.04-1.88.85-4.21,5.19-6.03,5.96-1.91.81-3.96.23-5.93,1.06-3.72,1.56-6.43,5.84-10.04,7.44-.15-.46-5.12-6.78-5.97-7.52-9.66-8.45-11.41,1.65-16.73,3.31-1.48.46-13.3,2.12-14.83,2.07-5.81-.19-7.01-9.77-12.4-11.43-4.96-1.52-6.05,4.6-12.03,1.58-.11-11.95.36-24.02,0-35.96,5.37-1.36,14.58.17,18.94-2.59.75-.47.91-2.11,1.22-2.29.66-.37,4.23,2.36,5.82-2.12,3.68.11,9.2,2.11,11.45,5.04,1.23,1.6,1,3.4,1.88,4.66.33.48,1.61.2,1.66.29.88,1.34,5,10.05,5,11.49v14.48c3.57-.61,4.19-6.02,7.07-8.42,1.91-1.6,6.35-2.46,7.48-4.57,1.77-3.32-7.39-9.18-2-15.92,1.29-1.62,5.31-3.18,6.13-4.36,1.5-2.17.78-8.11,3.31-9.69.52-.33,2.18.1,4.06-1.41s4.03-6.67,5.71-7.56c2.41-1.27,5.98-.63,8.5-1.23,4.5-1.07,1.83-2.41,8.71-1.79Z"/>
  <path class="cls-2" d="M667.37,632.32c2.4.56,4.28-2.35,6.4-2.08.67.08,6.29,7.89,9.25,9.91,4.7,3.21,11.93,4.95,17.32,5.16-2.46,5.23,3.76,10.82,3.02,16.43-.67,5.05-9.61,4.42-10.8,10.28-.66,3.22,2.79,9.51,2.79,11.75v15.98c0,.31,1.86,2.2,1.98,4.05.19,2.93-2.64,6.16-1.98,9.44-.25-.04-4.76.36-4.98.47-5.22,2.58-6.82,16.58-8.51,21.52-.66,1.93-1.89,2.76-2.5,3.98-2.16-1.13-15.15-5.3-15.87-4.88-.38.22-.59,3.12-2.82,3.75-2.68.77-6.89-2.29-10.79-1.95-3.54.31-4.8,3.18-7.23,3.83-2.78.75-8.65.09-11.18-1.32-2.29-1.27-3.15-4.8-4.74-5.32-1.91-.63-13.87,5.37-11.79-1.05,1.19-3.65.91-5.49,1.68-8.32,2.21-8.09,4.41-6.07,9.69-9.29,1.66-1.02,2.54-2.93,4.15-3.84,4.45-2.5,12.96-1.2,10.92-8.56,3.88-.93,23.97-4.04,24.84-6.63.51-16.6-.19-33.24.1-49.85.07-4.22,1.01-8.66,1.04-13.44Z"/>
  <path class="cls-4" d="M705.34,467.51c0,.33,0,.67,0,1,.32,12.37,5.89,20.13,11.99,30.47,1.46,2.48,6.27,6.91,6.82,9.25,1.82,7.74-10.06,27.34,6.17,31.2-1.66,3.24-4.61,13.49-5,16.98-2.64-.38-7.78,2.17-9.79.73-.42-.3-.1-1.63-.21-1.71-2.28-1.71-1.81,1.98-2.48,2.93-1.48,2.11-8.33,2.06-10.78,3.25-1.81.88-2.03,3.32-3.35,3.69s-2.93-.9-6.35.09c-.93-4.96-7.7-5.67-11.33-8.15-4.71-3.23-9.03-9.69-14.65-10.82-.01-8.64.02-17.33,0-25.97,2.74-.54,9.92.87,11.78-.22,1.3-.76,6.66-9.45,10.13-10.37.61-2.51-7.23-8.52-7.89-11.9-.5-2.55.54-13.89,1.06-16.88,1.96-11.29,13.24-16.71,23.9-13.57ZM703.07,539.61c-7.56,1.59-7.97,14.77-.26,14.88,8.95.13,10.18-16.96.26-14.88Z"/>
  <path class="cls-7" d="M370.62,184.84c3.95-3.36,8.94-4.65,13.32-7.16,2.72-1.56,11.43-10.67,14.2-4.81.64,1.34-.82,3.86-.38,6.23.9,4.87,4.41,8.94,9.83,7.74-.06.32.06.68,0,1-.38,2.09-1.82,3.81-1.96,5.54-.72,9.03,11.42,9.37,14.95,3.45,1.96,1.37,5.15,2.97,7.51,3.08,3.2.15,4.69-1.77,7.06-2.07,4.44-.57,6.32,2.16,11.45-1.45,1.81-1.27,3.49-4.81,4.21-5.27,3.85-2.46,11.04,1.09,10.72-7.27,3.18-.03,5.07-.85,6.99,2,1.59,2.35,2.35,3.68,5.99,4.99-1.27,1.99-1.33,5.12-2.54,6.95s-4.25,2.53-4.96,4.02c-2.35,4.92.78,8.8-6.94,14.06-1.49,1.02-3.29.59-4.27,1.22-.65.42-.72,2.23-1.9,2.63-1.9.64-8.25-1.83-12.62-.67-3.42.9-6.66,5.7-9.11,6.82-3.08,1.4-7.29.33-7.61,4.93-13.97,1.26-27.99,2.78-41.96,4-.05-5.07,10.15-12.16,14.04-13.43,4.38-1.42,10.34-.43,14.87.01.75.07,2.99,1.25,2.05-1.05-.51-1.24-14.58-8.04-16.72-10.26l-22.24-.24c1.19-10.25-2.51-15.54-4-24.97Z"/>
  <path class="cls-1" d="M580.44,717.22c2.02,3.45,9.24,2.2,11.05,3.43s.52,6.14.93,6.56c.47.48,6.22-1,7.56.93.62.9.81,10.03.45,11.34-.26.95-2.16,1.17-2.87,2.31-1.52,2.42-4.97,9.22-8.08,10-4.21,1.05-12.26-1.03-16.29-2.66-.84-.34-.65-1.97-1.24-1.96-2.32.02-2.51,2.3-3.5,3.02-.93.68-5.56,2.79-5.99,4-4.85-4.01-8.41,1.69-12.54-3.94-3.13-4.27-1.18-13.84-2.45-15.04-2.5-2.37-3.22,2.56-3.95,3.51-3.89,5.12-5.95,4.1-8.77,12.25-2.46,7.09-.75,6.55-5.73,13.29-.7.94-.32,2.58-.54,2.92-.23.36-6.84,3.6-7.73,3.78-8.66,1.74-7.66-5.74-12.21-9.32-3.25-2.56-9.59-3.58-12.73-7.75s-.98-11.46-4.31-15.67c29.61-6.86,59.31-14,88.92-20.98Z"/>
  <path class="cls-14" d="M706.34,161.86c-2.2,3.07,6.36,8.66,7.64,8.88.91.16,10.81-5.96,8.85,2.11h-5.49c-.79,5.25,6.69,9.41,6.99,14.56.14,2.46-1.83,3.93-1.96,5.95-.16,2.28,0,7.63-.03,10.44-3.96-.46-2.37.13-3.11,2.34-1.55,4.66-1.59,8.86-7.88,7.64-.55-1.16-1.4-2.48-2.71-2.81-.33-.08-6.36-.2-6.75-.15-3.93.43-4.2,6.17-8.04,6.94-7.07,1.43-11.71-3.03-14.99-2.93-2.49.08-5.73,5.14-10.47,1.96-.22,6.79,10.53,10.61,3.41,17.88-7.27-.41-4.91-5.95-9.7-9.1-3.87-2.54-10.86-4.56-10.7,2.2,2.67,1.44,9.12-1.29,9.96,1.6-2.07,5.06-1.57,11.33.51,16.45.84,2.05,2.16,1.94,2.26,2.15,1.72,3.45-1.28,5.58-4.73,4.79,1.89-4.22-4.11-5.95-7.34-4.87-.66.22-4.34,4.84-5.43,5.87-3.39,3.22-6.49,2.18-5.22,9.98-7.16-10.28-18.98-22.18-29.67-28.77-2.33-1.43-12.75-5.73-13.12-6.35-.23-.39-1.2-8.45-1.03-9.09.53-2,4.67-4.26,4.85-4.72,9.77,3.7,17.19,29.6,28.4,28.95,8.97-.52,6.76-20.38,5.28-26.16-.93-3.64-2.85-6.28-3.7-9.78,7.63.02,21.7,18.61,28.38,9.9,2.54-3.31,2.63-6.06,1.59-9.9,9.13-4.27,1.73-12.73,12.02-16.45,15.04-5.44,19.63,1.75,31.44,1.55,9.3-.16,16.27-5.95,9.96-15.01-3.63-5.21-14.36-5.2-16.44-12.03,1.66-.69,4.87-2.92,6.99-4Z"/>
  <path class="cls-11" d="M335.65,157.87l5.12,11.41c7.86,7.98,18.34,14.57,29.86,15.56,1.49,9.43,5.19,14.72,4,24.97-.68,5.84-7.61,11.77-11.99,14.98-3.24.02-8.05-.38-6.99,4-.79.34-1.17.34-2,1-1.44,1.16-1.63.73-2,3-.2,1.22.14,2.72,0,4-12.28,1.07-24.73,1.92-36.97,3,1.5-7.92,4.38-19.3-6.99-19.98.22-.27.15-1.59.93-2.53,1.13-1.37,3.32-1.72,4.51-3.52,2.69-4.07.71-14.38-1.64-18.24-1.45-2.39-4-2.05-5.27-3.73-1.61-2.13-1.01-6.69-3.54-8.95,6.31-2.66,10.3-5.56,14.04-11.44,1.04-1.64.9-4.48,2.34-5.65,1.64-1.34,4.97-.67,7.36-1.64.71-.29,8.91-5.8,9.24-6.25ZM316.67,188.83c-1.73.3-6.27-.8-3.89,2.89.19.29,3.25.57,4.78,2.73,1.71,2.41,1.81,8.08,2.12,8.38,2.95,2.78,3.74-4.72,4.79-6.7,1.6-3,2.85-2.7,4.56-4.21,3.44-3.05-3.47-4.53-4.12-5.32-1.21-1.47-1.35-12.71-5.29-5.3-.73,1.38-2.97,6.31-2.95,7.54ZM346.27,190.12c-1.18.13-2.55,1.35-4.18,1.66-5.07.96-5.79-1.19-9.97,4.01-6.55,8.14-4.97,15.67-.25,24.29,2.34,4.28,14.81,5.48,19.22,4.65,2.87-.54,7.78-5.64,8.78-8.19.58-1.47,2.01-12.72,1.78-14.17-.69-4.34-5.89-4.76-7.46-6.6-2.04-2.39-1.64-6.35-7.92-5.65Z"/>
  <path class="cls-3" d="M474.53,190.83c3.18,1.15,11.15,3.04,13.46-.03.83-1.1,1.97-7.19,2.67-7.8.61-.54,10.99.02,13.31-1.19.76,7.3,9.82,11.62,16.51,10.01,0,.67,0,1.33,0,2-.13.09-.12,1.78-1.59,2.86-13.67,10.02-27.44,19.94-41.34,29.63-17.62,1.94-35.35,2.87-52.99,4.46.32-4.6,4.53-3.53,7.61-4.93,2.45-1.11,5.7-5.91,9.11-6.82,4.37-1.16,10.73,1.31,12.62.67,1.19-.4,1.25-2.2,1.9-2.63.98-.63,2.77-.2,4.27-1.22,7.71-5.26,4.59-9.14,6.94-14.06.71-1.5,3.73-2.16,4.96-4.02s1.27-4.96,2.54-6.95Z"/>
  <path class="cls-5" d="M668.37,594.36c4.05,4.89,6.23,1.73,10.45,1.95,2.27.12,9.88.93,11.6,1.48,3.59,1.15,3.3,5.12,4.92,6.07,1.52.9,4.45.31,6.76,1.23,5.22,2.09,8.98,12.94,5.33,17.7,1.75,5.53,2.3,15.06.94,20.8-.44,1.87-6.39,1.76-8.01,1.69-5.39-.2-12.62-1.95-17.32-5.16-2.95-2.01-8.57-9.82-9.25-9.91-2.13-.27-4.01,2.64-6.4,2.08.08-12.3.02-24.65,0-36.96.36-.3.65-.69,1-1Z"/>
  <path class="cls-14" d="M374.62,209.81l22.24.24c2.14,2.22,16.21,9.02,16.72,10.26.95,2.3-1.3,1.13-2.05,1.05-4.53-.45-10.49-1.44-14.87-.01-3.89,1.26-14.09,8.35-14.04,13.43-10.29.89-20.71,1.1-30.97,2,.14-1.28-.2-2.77,0-4,2.67.47,2.04-.63,2-3,.82-.66,1.21-.66,2-1,1.91-.83,5.18-1.13,6.36-1.94.9-.62.55-1.99.64-2.05,4.38-3.22,11.31-9.14,11.99-14.98Z"/>
  <path class="cls-7" d="M692.35,565.4c-8.97,2.61-5.96,6.51-8.94,11.54-.59,1-14.01,16.53-15.04,17.43-.35.31-.64.7-1,1-.02-16.28-.98-32.59-1-48.94,5.62,1.13,9.94,7.59,14.65,10.82,3.63,2.49,10.4,3.19,11.33,8.15Z"/>
  <path class="cls-12" d="M188.77,368.62c-.08,9.23-.96,19.22-1,27.97-5.34-2.44-11.71,1.23-15.94-1.55-3.76-2.47-2.97-6.25-6.32-8.7-1.98-3.55-2.41-11.16.2-14.3,1.05-1.26,3.58-1.56,5.15-2.85,1.39-1.15,2.01-3.89,3.59-4.43,4.26-1.47,8.83,5.64,14.32,3.86Z"/>
  <path class="cls-12" d="M187.78,398.59c-.05,13.02,1.03,26.69,1,39.95-2.63.29-8.03-1.01-9.94-2.55-3.56-2.87-1.46-10.87-8.05-12.43.32-3.03-2.72-7.86-.06-12.3.71-1.19,3.28-1.5,4.36-3.99.87-2.02-.54-4.47-.3-4.69.18-.17,3.4-.12,4.83-.68,2.84-1.12,4.86-3.55,8.17-3.32Z"/>
  <path class="cls-7" d="M188.77,438.54c-.01,6.31.01,12.66,0,18.98-5.23,1.39-14.3-5.33-17.98-4.99,5.99-5.22,1.24-9.74-2.57-14.91-.66-.89-2.41-1.24-2.92-2.09-1.07-1.79-.17-3.62-.51-4.97,2.89,1.58,5.82-5.38,5.99-6.99,6.59,1.56,4.49,9.56,8.05,12.43,1.91,1.54,7.31,2.84,9.94,2.55Z"/>
  <path class="cls-7" d="M314.67,239.77c-4.75.42-10.24,1.57-14.99,2,2.14-4.52-3.91-7.85-3.97-9.38-.08-2.1,1.62-5.81,2.97-7.6,5.2-1.1,5.66-.89,8.99-4.99,11.38.67,8.5,12.06,6.99,19.98Z"/>
  <path class="cls-11" d="M692.35,565.4c3.42-.99,5.03.27,6.35-.09s1.54-2.81,3.35-3.69c2.45-1.19,9.3-1.14,10.78-3.25.67-.96.2-4.64,2.48-2.93.11.08-.21,1.41.21,1.71,2.02,1.44,7.15-1.12,9.79-.73-.82,7.41,12.07,26.47,20.41,25.96.83-.05,8.72-4.81,9.52-5.53,1.34-1.21.93-3.7,2.67-4.34,2.3-.84,5.11.47,7.36.9.29,2.99-3.2,2.93-4.44,5.03-1.34,2.27-2.23,7.81.46,9.46,1.61.98,3.45.26,4.99.49.39.06,1.55,1.62,2.99,1,.16-.59-.19-1.68,0-2,.65-1.08,1.94-1.87,2-2,2.87-.29,2.94.17,3.98,2.52,1.96,4.47,3.52,9.09,6.34,13.13.61.88,2.6,1.08,3.19,2.29.92,1.89.14,5.57.54,5.98.3.3,7.46,2.05,8.19,1.91,3.86-.73,5.82-6.77,11.21-5.91,3.92.62,1.76,5.25,5.53,5.04.78,3.85-2.47,5.48-3.89,8.59-2.82,6.21-1.7,7.49-.11,13.38.2.75-.33,2.54.04,2.96.28.32,1.74-.17,1.96.04.18.17-.56,1.56,1,2,2.41,5.82.09,9.04-.77,13.71s-.51,8.54-3.22,13.26c-1.04-.39-2.42.34-4.53-.94-1.21-.74-16.39-14.03-17.02-14.97-2.27-3.44-2.24-8.13-6.47-11.51-2.41-1.92-6.18-1.27-8.5-3.49s-3.08-7.84-4.73-9.77c-1.87-2.19-5.41-2.17-7.56-6.92-.91-2.02-1.17-6.27-2.08-6.93-1.26-.91-5.42.69-8.5-.42-2.45-.88-4.14-3.48-6.2-3.73-5.86-.72-2.19,5.2-2.55,8.02-.13,1.07-3.54,7.04-4.32,7.68-2.01,1.63-4.74,1.04-7.52,3.47-1.07.94-10.18,10.84-10.49,11.56-.63,1.42.57,2.49.54,3.38-.02.71-1.89.74-2.01,1.09-1.45,4.1,2.53,1.67,4.34,1.88,9.43,1.06,4.89,3.15,7.91,6.38.95,1.01,5.37,2.36,6.75,3.24.09.06-.46,1.74.65,2.02,1.58.41,8.79.17,10.62-.24,5.21-1.16,5.87-9.73,12.07-7.67,3.15,1.05.6,6.84,2.07,8.94.99,1.42,9.6,1.38,10.39,5.58,1.03,5.47-13.55,6.68-16.28,11.38-.33,5.71-6.37,13.26-6.4,18.43-.03,4.29,6.27,9.07,5.72,11.87-.23,1.2-6.77,5.18-7.65,8.33-.54,1.93.16,4.09-.27,5.72-1.45,5.56-2.06,9.92-9.15,8.33-3.96-.89-12.05-7.81-15.31-7.76-2.91.04-3.96,5.16-6.46,6.48-4.41,2.33-2.63-2.66-5-4.01-1.43-.81-3.54-.16-4.99-1-1.83-1.07-1.76-4.59-7.01-5.48-.66-3.28,2.18-6.5,1.98-9.44-.12-1.85-1.98-3.74-1.98-4.05v-15.98c0-2.24-3.44-8.53-2.79-11.75,1.19-5.85,10.13-5.23,10.8-10.28.74-5.61-5.47-11.19-3.02-16.43,1.62.06,7.57.18,8.01-1.69,1.36-5.75.82-15.28-.94-20.8,3.65-4.77-.11-15.62-5.33-17.7-2.3-.92-5.24-.34-6.76-1.23-1.61-.95-1.33-4.92-4.92-6.07-1.72-.55-9.33-1.36-11.6-1.48-4.22-.22-6.4,2.94-10.45-1.95,1.03-.9,14.45-16.43,15.04-17.43,2.98-5.03-.03-8.93,8.94-11.54ZM718.34,590.36c-3.86-11.57-12.42-7.29-10.91,4.42.44,3.39,5.16,13.09,8.43,13.63,4.75.79,14.85-12.17,15.43-16.64.74-5.68-2.7-7.74-7.91-5.84-2.63.95-3.11,3.26-5.03,4.43Z"/>
  <path class="cls-11" d="M743.31,453.53c7.49-8.53,15.05-11.85,22.98-1.49,6.06,7.93,5.41,17.77,19.99,13.48,1.19,9.43,13.38,2.42,17.45,11.03.83,1.77,3.36,6.5,3.54,6.95.38.95,2.09,7.76,2.07,8.53-.09,3.66-3.8,6.09-1.63,12.51,1.39,4.1,10.36,3.75,11.59,13.38.36,2.82-.61,11.88-1.26,14.81-.39,1.77-5.43,14.65-6.3,15.68-.46.55-11.86,5.55-13.21,5.78-2.35.4-13.17.69-14.11-.9-.58-.98.27-3.76-.65-5.85-.19-.43-6.04-6.32-6.51-6.56-2.32-1.17-4.41,2.98-5.97.55.6-3.33-2.24-5.51-2.01-6.47.33-1.37,5.01-.68,2.04-4.79-.77-1.07-2.17-1.05-3.03-2.72-.22-.43.44-1.97-.17-2.79-.55-.75-3.71-.81-5.28-3.25s-1.49-5.94-2.44-8.55c-.38-1.03-.57-2.99-2.09-1.39-.39.4-1.84,7.73-4.14,10.36-2.6,2.97-8.85,3.24-3.86,6.62-1,1.87-4.91,5.43-6.73,5.8-6.02,1.21-8.01-5.02-13.26,5.19-16.24-3.86-4.36-23.46-6.17-31.2-.55-2.34-5.36-6.77-6.82-9.25-6.1-10.34-11.66-18.09-11.99-30.47,2.79-1.64,16.8-.7,17.98,1,.18.25-.19,1.89.54,2.91,1.2,1.68,3.92,2.08,5.16,3.38,5.43,5.73,4.76,15.21,7.53,20.94.66,1.36,1.09,2.05,2.76,1.73,2.49-9.57,4.18-24.24,15.99-25.98-1.07-4.23-6.32-5.52-8.85-9.63-1.73-2.82-2.16-6.31-3.14-9.34Z"/>
  <path class="cls-12" d="M768.29,527.44c.85,1.67,2.25,1.65,3.03,2.72,2.97,4.11-1.72,3.42-2.04,4.79-.23.96,2.61,3.14,2.01,6.47-.29,1.63-2.67,4.77-2.95,7.61-.41,4.19,2.32,9.01,6.2,10.62,4.19,1.74,8.28-1.29,8.82,4.24.93,9.46-3.34,7.47-8.92,9.16-5.98,1.81-1.41,3.28-1.13,5.88.12,1.13-1.42,5.17-2.03,6.44-.06.13-1.35.92-2,2l-3,1c-1.53-.23-3.38.49-4.99-.49-2.69-1.65-1.8-7.19-.46-9.46,1.24-2.09,4.73-2.04,4.44-5.03-2.25-.43-5.07-1.74-7.36-.9-1.74.64-1.33,3.13-2.67,4.34-.8.72-8.68,5.48-9.52,5.53-8.34.51-21.23-18.55-20.41-25.96.39-3.49,3.33-13.74,5-16.98,5.25-10.21,7.23-3.98,13.26-5.19,1.81-.36,5.72-3.93,6.73-5.8,7.21,4.9,4.06,5.26,6.74,11.74,2.2,5.32,3.24-4.35,3.75-5.74,1.49-4.04,3.19-5.93,7.49-7Z"/>
  <path class="cls-2" d="M850.22,428.55c-2.17,2.16-4.27,4.74-2.07,7.61.88,1.15,2.72,1.07,3.07,1.38.93.81,2.67,2.38,3.94,3.53,11.18,10.21,3.85,14.4-2.9,23.83,1.09,1.99,3.56,2.5,4.95,4.11,6.15,7.15,3.23,9.28,4.01,17.47-2.91-.9-4.54,3.09-6.47,3.03-1.29-.04-2.25-1.6-3.27-1.83-1.41-.31-2.88.84-3.66.66-2.24-.49-1.3-4.49-1.79-6.19-.42-1.46-1.75-2.51-1.79-2.66-1.06-4.39,6.61-11.2,6.61-14.48,0-.39-2.51-7.07-2.82-7.3s-5.56-1.23-6.36-1.23c-7.28-.05-4.3,6.03-7.03,6.98-1.67.58-5.65-2.05-9.39-1.94-1.76-2.57-6.26-14.66-7.98-15.56-1.95-1.02-3.43,1.84-5.71,2.37-1.53.36-7.47.61-8.75.27s-.25-2.59-.54-3.06c.37-1.78,1.87-5.61,2-6.99,5.79-2.18,10.99,5,13.69,5.79,1.14.34,6.93.47,7.25.15.4-.4-.42-4.24,1.75-6,.77-.63,8.67-5.02,10.05-5.67,3.77-1.76,9.13-3.18,13.22-4.26Z"/>
  <path class="cls-14" d="M810.25,610.34c4.72-.2,6.62-4.59,11.48-5.04,5.41-.5,8.4,2.56,13.46,3.58,1.37,3.87,5.1,11.98,5.11,15.94.02,7.79-2.92,5.91-5.82,8.74-1.36,1.33-1.7,5.62-4.95,6.54-2.74.77-13.41,1.56-15.71.09-2.34-1.49.11-1.56-4.57-2.88-1.56-.44-.82-1.83-1-2,.04-2.36.67-3.46-2-3-1.59-5.89-2.72-7.17.11-13.38,1.42-3.11,4.67-4.75,3.89-8.59Z"/>
  <path class="cls-15" d="M786.27,465.51c-.46-3.64-1.76-10.75-.07-13.56,1.08-1.78,6.08-4.2,8.12-5.88,1.17-.96,1.86-3.39,2.47-3.58,1.05-.31,5.3,2.77,5.46,3.03.29.47-.68,2.73.54,3.06s7.21.09,8.75-.27c2.29-.53,3.76-3.4,5.71-2.37,1.73.91,6.22,12.99,7.98,15.56-.78.02-6.51,1.01-6.8,1.2-2.42,1.52-1.27,6.62-1.51,8.15-.6,3.7-3.3,6.84-.68,11.63-2.76-.31-5.3,3.06-8.99,1-.18-.45-2.7-5.19-3.54-6.95-4.07-8.61-16.25-1.59-17.45-11.03Z"/>
  <path class="cls-14" d="M834.8,561.85c.32.2.36,1.37,1.13,1.52,3.16.65,9.87-1.16,11.85,3.04.36.77-.57,10.21-.6,12.51s1.28,4.43.89,6.71c-.35,2.04-4.19,6.21-6.1,6.98-1.43.58-13.53,2.74-14.97,2.56s-9.26-4.68-9.83-5.48c-1.79-2.52-3.35-9.45-2.7-12.58.2-.94,4.16-9.74,4.87-11.11,4.08-7.87,7.53-9.05,15.45-4.15Z"/>
  <path class="cls-13" d="M825.24,461.52c3.74-.11,7.72,2.53,9.39,1.94,2.73-.95-.25-7.03,7.03-6.98.8,0,6.05,1.01,6.36,1.23s2.82,6.91,2.82,7.3c0,3.28-7.67,10.09-6.61,14.48-7.7.98-10.31,6.66-18.54,7.01-5.93.25-6.35-3.67-9.44-4.02-2.62-4.79.09-7.92.68-11.63.25-1.53-.91-6.63,1.51-8.15.29-.18,6.02-1.17,6.8-1.2Z"/>
  <path class="cls-12" d="M876.19,529.44c-.54,2.23-1.78,7-2.47,9.01-1.66,4.82-5.65,9.68-6.52,14.96-.24.06-.39,1.37-1.92.57-3.33-3.42-12.9-10.46-11.66-15.55.38-1.55,3.86-7.94,5.28-8.8,6.16-3.72,11.06-1.3,17.29-.19Z"/>
  <path class="cls-13" d="M132.82,439.54c.09-2.99-3.56-8.17-1.86-10.85.26-.4,5.77-1.82,7.12-2.37s2.14-2.15,3.44-2.55c2.13-.64,4.67.08,7.05-.87,2.09-.84,2.47-6.01,6.25-3.89,1.15.64,1.48,2.58,2.3,3.21,4.05,3.11,6.14,2.39,7.66,8.33.34,1.34-.56,3.18.51,4.97.51.85,2.26,1.2,2.92,2.09,3.8,5.18,8.56,9.7,2.57,14.91-.65.06-2.43,1.39-3.72,1.75-1.64.45-3.88-.11-5.29.73-1.2.72-1.24,2.78-1.95,3.84-.64.95-1.97.59-2.02.68-1.27.15-2.81-.22-4,0-.25-1.01-1.17-.88-2-1,.06-6.1-8.33-4.49-8.98-5.02-.32-.27.19-2.22-.01-2.97,4.54,2.43,9.05-.07,8.02-5.48-.97-5.1-8.24-3.27-9.02.48-3.64-1.86-4.76-4.33-8.99-5.99Z"/>
  <path class="cls-10" d="M109.84,440.54c-.49,2.01-1.98,7.03-2.76,8.72-.44.96.18,1.64-1.74,1.3-4.39-.79-11.98-10.78-17.47-11.02-6.59-6.38-12.7-27.79,2.46-24.97,3.5.65,4.09,4.3,6.52,5.98.46-4.61,3.01-12.98,8.48-13.06,12.06-.17,6.23,26.03,4.53,33.04ZM105.84,446.53c-.4-7.78,3.52-14.82,4.04-22.44,1.61-23.7-11.69-13.68-11.03,2.46-2.39.54-1.62-.41-2.23-1.3-1.56-2.27-3.63-7.68-6.48-8.51-7.27-2.13-7.25,7.05-5.82,11.86s19.42,20.18,21.52,17.93Z"/>
  <path class="cls-7" d="M132.82,439.54c4.24,1.66,5.35,4.13,8.99,5.99-.41,1.95.56,3.37,1,4.99.2.75-.31,2.7.01,2.97.65.53,9.04-1.07,8.98,5.02-2.3-.33-5.44-1.39-6.99,0-1.39-.43-4.75-.28-5.74-1.27-.54-.54-.53-2.51-1.68-3.78-4.13-4.54-10.63-8.01-10.56-14.93,1.72.45,3.91.18,5.99,1Z"/>
  <path class="cls-16" d="M114.09,478.25c1.03,1.11,7.61,1.99,5.74,4.22-.15.18-2.59.7-4.01,2.49-1.99,2.51-1.44,3.43-2,6.01-1.15,5.23-3.37-3.6-5-4.96-2.18-1.81-6.58-.69-5.95-3.01,1.01-3.73,9.55-4.79,7.99-12.5,2.55,1.07,1.61,5.99,3.23,7.74Z"/>
  <path class="cls-4" d="M89.86,491.48c-2.66-2.7-1.35-6.55-2-8.99,18.31-9.76,12.13,19.26,2,8.99Z"/>
  <path class="cls-9" d="M92.85,514.46c1.35,6.18-8.83,9.45-2.58,1.89.84-1.01-.03-2.53,2.58-1.89Z"/>
  <path class="cls-9" d="M151.81,458.52c.83.12,1.74,0,2,1-5.47,1-4.03.53-8.99-1,1.55-1.39,4.69-.33,6.99,0Z"/>
  <path class="cls-9" d="M805.25,245.77c3.35,2.86,7.2,5.78,10.99,7.99-.72,3.42-4.35,4.15-6.42,7.06-3.24,4.55-3.47,13.21-1.35,18.19.86,2.04,3.5,2.13,4.29,3.7,1.01,1.99.2,4.13.49,6l-10.98-7.99c.56,5.11-5.19,8.31-6.46,11.02-1.15,2.44-.25,5.98-2.99,8-.69.51-7.27,3.06-7.99,3-1.85-.14-4.55-4.21-5.54-3.05-2.35,2.74,2.38,4.63,2.98,5.45,1.29,1.76,2.23,3.76,3.6,5.44.81.99,3.23,1.84,3.41,2.64.25,1.15-1.71,2.26-1.86,3.14-.22,1.33,1.96,2.39,1.78,3.68-.35,2.42-14.82,14.96-9.91,21.61-2.28.04-3.24,2.06-5,3-.86-1.6-5.17-2.44-6.99-2-.5-2.09-1.48-4.88-1-6.99s4.1-3.66,3.93-8.4c-.5-14.12-19.65-1.57-8.92,8.4-6.88-.62-4.21.71-8.71,1.79-2.52.6-6.09-.04-8.5,1.23-1.68.88-3.81,6.03-5.71,7.56s-3.54,1.08-4.06,1.41c-1.08-1.2-1.67-2.76-3.52-3.06-1.99-.32-12.87,5.65-13.22,7.67-.28,1.58,1.65,4.6.62,6.24-.24.38-6.67,3.54-7.85,4.13-.25-1.6.37-8.64,0-8.99-.21-.19-3.49-.07-5.61-.94-3.72-1.53-2.32-5.71-6.38-6.06.2-1.23-.19-2.75,0-4,3.2-.21,2.44-3.6,6.6-3.99,8.03-.74,17.11.45,24.83-.03,2.49-.16,4.82-2.92,8.53-.98-1.67-3.59,2.25-8.3,2.04-10.41-.17-1.76-2.68-3.27-2.03-5.56,6.9.23,15.5-2.4,21.31-6.16,1.62-1.05,8.35-6,6.66-7.82-.5-.54-11.77.15-8.53-5.04,1.52-2.45,9.89-3.19,11.62-5.37,2.24-2.83-.94-5.54.34-7.58.81-1.29,4.84-2.19,6.49-3.57,2.03-1.7,3.35-5.24,5.72-7.26,1.46-1.24,5.99-3.01,6.18-3.31,1.38-2.18-1.06-23.65,2.06-27.41,2.27-2.74,11.64-3.66,15.09-2.39Z"/>
  <path class="cls-7" d="M802.26,241.77c.94,1.06,2.05,3.19,3,4-3.46-1.27-12.83-.34-15.09,2.39-3.12,3.76-.68,25.23-2.06,27.41-.19.3-4.72,2.07-6.18,3.31-2.38,2.02-3.69,5.57-5.72,7.26-1.65,1.37-5.68,2.27-6.49,3.57-1.28,2.04,1.91,4.75-.34,7.58-1.73,2.18-10.1,2.92-11.62,5.37-3.23,5.19,8.04,4.5,8.53,5.04,1.69,1.82-5.04,6.78-6.66,7.82-5.81,3.76-14.41,6.39-21.31,6.16-.65,2.29,1.86,3.81,2.03,5.56.21,2.11-3.72,6.82-2.04,10.41-3.71-1.94-6.05.83-8.53.98-7.72.48-16.8-.71-24.83.03-4.16.38-3.4,3.78-6.6,3.99,1.04-7,9.65-20.15,16.31-22.15,3.15-.94,6.53-.41,9.41-1.58.6-.24,8.96-8.39,9.3-8.93,2.28-3.65,1.5-10.22,2.38-14.34l8.55-9.93c1.2,2.97.77,4.98,1.31,6.53,1.83,5.3,2.92-4.82,3.14-5.58,2.04-6.86,4.26-15.34,10.58-19.39,1.83-1.17,4.79-1.36,4.95-1.56,1.66-1.98-3.14-4.48-4.99-5.97,1.37-3.29,5.09-1.14,7.58-2.91,1.33-.95,2.31-4.42,3.86-6.13s5.18-3.06,6.03-4.96c1.31-2.91-.46-6.66,3.21-8.78,2.55-1.47,10.79-1.68,13.74-1.14,4.22.77,4.88,5,8.54,5.94ZM708.54,332.5c.23.39,4.21,2.42,5.26,2.16,5.88-6.28-8.36-7.57-5.26-2.16Z"/>
  <path class="cls-3" d="M732.32,652.3c-.02-3.36.44-8.06-1.54-10.94-1.45-2.11-8.43-3.07-6.45-5.03,1.72-1.7,5.8,2.06,8.55-6.95.76-2.49-.81-6.84,2.44-6.05.36,7.55-.32,11.25,7.48,13.03,5.41,1.23-3.65,2.88-5.17,4.26-3.17,2.89-2.35,8.67-5.3,11.68Z"/>
  <path class="cls-10" d="M154.8,523.44c.73-2.18-1.01-5.17-1-6.99.09-16.39,17.86-16.37,14.54.06-1.68,8.32-5.92,10.5-13.54,6.93ZM160.5,506.6c-4.99,1.4-5.29,15.42-.18,15.92,6.75.65,8.37-18.21.18-15.92Z"/>
  <path class="cls-8" d="M139.82,538.43c7.15,7.94-7.78,17.49-8.99,5.99-.68-6.4,5.02-10.4,8.99-5.99ZM138.57,540.67c-2.41-2.39-7.14-1.07-5.53,4.03,2.06,6.5,9.39-.2,5.53-4.03Z"/>
  <path class="cls-1" d="M809.25,396.59c2.39.8,7.38,2.83,9.56,2.94,5.11.25,11.54-4.5,17.81-.83,2.7,1.58,8.28,11.94,7.44,15.18-.43,1.68-4.16,3.34-2.84,6.68,4.85-.26,8.45-.12,12.99,1v4c-1.65,1.62-3.68,2.68-4,3-4.1,1.08-9.46,2.5-13.22,4.26-1.38.65-9.28,5.04-10.05,5.67-2.16,1.77-1.35,5.61-1.75,6-.32.31-6.11.18-7.25-.15-2.69-.79-7.89-7.97-13.69-5.79.29-3.08-.68-7.72-4.45-7.93-4.55-.25-8.52,6.21-12.06,6.91-6.18,1.21-13.11-3.45-17.82-2.68-2.63.43-5.85,5.4-8.58,6.26-3.35,1.06-5-.41-7.42-.24-3.09.22-6.29,3.19-9.89,2.53-1.6-.29-9.6-6.43-10.2-7.86-1.24-2.95.01-12.39-.52-12.96,2.43-5.17,9.39-2.32,13.99-3-2.73-12.3,1.1-7.95,9.48-9,3.06-.38,6.1-1.36,9.17-1.61,2.33-.19,6.07,1.98,7.87-.37.68-.89.23-2.69.45-3,4.27-5.99,11.46-9.73,13.99-17.98,3.02.8,6.95.58,9.74,1.75s5.04,5.64,7.31,6.72c1.61.77,3.08.23,3.94.52Z"/>
  <path class="cls-2" d="M813.25,288.72c1.06,7.05,5.56,16.19,13.99,15.98-.13.41,1.19,6.14,1.05,8.52-.34,5.84-1.2,17.33-2.27,22.72-.98,4.93-5.78,10.11-10.77,10.71-.04-2.83-1.31-9.19-3.99-10.49-3.94-1.91-12.11,1.72-9.06,6.06,2.86,4.07,8.41,4.99,13.05,4.43.01.67,0,1.33,0,2-1.27.36-2.24,3.19-5.99,3,.03-2.06-1.34-4.01-3-2-.28-.18-1.31.09-2.01-.46-1.3-1.01-1.73-3.32-2.69-3.55-4.92-1.22-12.83,2.42-17.67,1.08-1.11-.31-.41-5.12-4.61-5.06-4.91-6.65,9.57-19.19,9.91-21.61.19-1.29-2-2.35-1.78-3.68.15-.87,2.1-1.99,1.86-3.14-.17-.8-2.6-1.65-3.41-2.64-1.37-1.68-2.31-3.68-3.6-5.44-.6-.82-5.34-2.71-2.98-5.45,1-1.16,3.69,2.9,5.54,3.05.72.06,7.3-2.49,7.99-3,2.73-2.02,1.84-5.56,2.99-8,1.28-2.71,7.03-5.91,6.46-11.02l10.98,7.99Z"/>
  <path class="cls-13" d="M779.28,341.65c4.2-.07,3.5,4.75,4.61,5.06,4.84,1.35,12.75-2.3,17.67-1.08.95.24,1.39,2.54,2.69,3.55.71.55,1.73.28,2.01.46.63.4.34,1.86,3,2,3.75.19,4.72-2.64,5.99-3,2.68-.76,7.27.23,8.49,3.02s-.46,4.33-.19,6.3c.12.88,2.46,11.14,2.73,11.88.45,1.21,5.03,3.37,4.91,7.28-.02.55-4.93,9.23-5.36,9.57-2.16,1.7-7.51.9-9.57,2.42s-1.06,7.03-7,7.48c-.85-.29-2.32.25-3.94-.52-2.27-1.08-4.5-5.54-7.31-6.72s-6.72-.95-9.74-1.75c.88-2.87,1.34-6.88-2-8.52-3.9-1.92-7.07,2.8-9.36,2.38-1.52-.28-2.1-2.53-2.63-2.85.85-2.49-1.31-6.41-.85-8.3.33-1.35,2.47-2.37,3.27-3.77,2.9-5.07-.16-7.5-2.42-11.9,1.41-2.08,1.07-8,0-9.99,1.75-.94,2.72-2.96,5-3Z"/>
  <path class="cls-2" d="M856.21,422.56c.12.56-.18,1.83,0,2-.56.39-1.58.59-2,1v-4c.61.15,1.31.81,2,1Z"/>
  <path class="cls-2" d="M340.65,79.96c4.24.52,8.11,1.47,12.99,2,6.03.65,10.89,3.29,16.98,3,.86.72-4.09,5.21-.48,5.98,2.66.57,3.32-8.13,12.24-4.33,1.59.68,1.59,2.54,2.68,3.34,1.56,1.15,3.83,1.3,5.15,2.89,2.36,2.83.67,8.57,6.39,9.09-.2,1.99-.98,4.58-1,5.99-.06,3.5,1.92,3.72,2,4,.22.8-.18,2.1,0,3-2.28.3-6.62,2.9-8.36,4.14-5.92,4.21-1.85,12.47-2.57,18.38-.32,2.64-2.49,4.06-2.11,6.88.44,3.31,12.89,10.31,12.04,16.55,2.53,1.75,6.5-6.59,8.98-1-1.35,1.48-1.28,6.44-.94,8.44.61,3.55,3.72,4.37,4.26,5.78,1.33,3.48-.66,8.96-1.32,12.75-5.42,1.2-8.93-2.87-9.83-7.74-.43-2.36,1.02-4.88.38-6.23-2.77-5.86-11.48,3.26-14.2,4.81-4.39,2.51-9.38,3.8-13.32,7.16-11.51-.99-22-7.58-29.86-15.56l-5.12-11.41c1.05-1.42,1.27-4.06,2.54-5.95s4.68-3.84,5.25-5.74c1.18-3.99-.55-10.42.25-14.73.66-3.54,6.18-10.52,6.89-15.09.58-3.77-.73-6.05-.84-9.04-.13-3.44,2.43-5.5-.66-9.33-1.25-1.55-8.26-4.62-10.16-4.85-2.17-.26-4.46,1.46-6.63.71-1.93-.66-1.53-4.35-3.62-5.42-2.57-1.31-8.56-.75-11.35-1.46-1.27-.33-.49-1.86-.66-2.02,3.44-1.38,5.87-3.12,9.75-3.73,2.33-.37,12.44-1.48,14.23-1.26Z"/>
  <path class="cls-7" d="M445.56,92.94c4.66,1.76,8.76,3.59,9.99,8.99-.09.06.27,1.33-.21,1.73-.7.57-3.72.27-5.53,1.02-3.15,1.3-4.46,5.42-5.93,6.3-2.39,1.44-6.25.9-8.74,3.99-3.35,4.17-.12,6.77-.52,10.42-.22,1.95-1.99,2.35-2.04,2.51-4.08-.17-8.44,2.96-6.87,7.37.48,1.35,2.66,1.26,2.9,2.31.44,1.87-.55,3.9.49,6.29,2.18,5,10.94,3.83,10.47,10-1.56-.57-3.43-.48-4.92-1.57-2.93-2.13-1.74-4.76-8.55-3.4-2.75.55-3.28,3.19-5.21,3.77-2.55.76-7.8-.5-9.14.36-.3.19-1.03,3.13-2.12,4.37-1.19,1.35-3.46,1.84-4.03,2.46-2.48-5.59-6.45,2.75-8.98,1,.84-6.24-11.6-13.23-12.04-16.55-.38-2.82,1.78-4.24,2.11-6.88.72-5.92-3.35-14.18,2.57-18.38,1.74-1.24,6.08-3.83,8.36-4.14.22,1.13-.32,3.21,0,4-2.77.75-9.15,1.56-5.96,4.46s7.07.71,10.32.88c4.93.25,1.11,3.19,2.1,5.62,1.48,3.64,10.87,5.53,13.59,3.58,1.57-1.12.47-4.68,1.41-6.58s7.17-2.73,8.33-7.73c.57-2.48-.66-3.88-.62-5.73.03-1.63.99-3.27.91-5-.25-4.96-6.14-6.22-10.09-7.48,0-.33,0-.67,0-1-.08-13.06,6.22-6.07,14.51-6.95,7-.74,4.6-3.39,13.47-.04Z"/>
  <path class="cls-13" d="M459.55,101.93c-1.48,6.2,5.95,6.52,7.81,9.67,2.03,3.44.38,7.83,1.33,10.65.73,2.16,5.81,1.75,3.64,8.94-.92,3.05-6,5.02-7.8,7.18-2.02,2.41-3.38,8.74-5.57,10.41-4.54,3.49-12.22.38-17.4-.91l-5-4c-1.09-1.91-2.96-2.86-3.74-4.75-1.27-3.1-1.29-8.04-.26-11.23.05-.15,1.82-.55,2.04-2.51.4-3.65-2.83-6.25.52-10.42,2.49-3.1,6.35-2.56,8.74-3.99,1.48-.89,2.79-5,5.93-6.3,1.81-.75,4.83-.44,5.53-1.02.48-.39.13-1.67.21-1.73.47-.32,2.99.26,4,0ZM457.29,133.62c4.31-3.98,2.17-14.72-5.03-12.54-7.68,2.32-1.32,18.4,5.03,12.54Z"/>
  <path class="cls-12" d="M417.58,100.93c3.95,1.26,9.84,2.52,10.09,7.48.09,1.74-.87,3.38-.91,5-.04,1.85,1.19,3.24.62,5.73-1.15,5-7.42,5.9-8.33,7.73s.16,5.46-1.41,6.58c-2.72,1.95-12.12.06-13.59-3.58-.99-2.44,2.84-5.37-2.1-5.62-3.25-.17-7,2.15-10.32-.88s3.19-3.71,5.96-4.46c1.58,3.89,10.74,1.43,8.99-5.99,4.28-.51,7.37-.34,10.43-4.06,2.69-3.27.53-4.8.56-7.93Z"/>
  <path class="cls-7" d="M353.64,81.96l1.49-3.99c2.77,4.91,1.3,2.09,4.29,1.27,6.8-1.87,17.95-.44,24.2,2.72.29.14.59.74,1,1,4.14,2.65,8.52,8.38,11.99,11.99-.39,1.94.22,4.82,0,6.99-5.73-.52-4.03-6.26-6.39-9.09-1.32-1.58-3.58-1.73-5.15-2.89-1.09-.8-1.09-2.66-2.68-3.34-8.93-3.8-9.59,4.89-12.24,4.33-3.61-.77,1.34-5.26.48-5.98-6.09.29-10.95-2.35-16.98-3Z"/>
  <path class="cls-12" d="M445.56,92.94c-8.87-3.35-6.46-.7-13.47.04-8.29.88-14.59-6.11-14.51,6.95-5.95.02-6.21-9.87-7.99-13.98.61-.59,11.56,2,13.54,2.03,6.44.09,19.92-3.86,22.43,4.96Z"/>
  <path class="cls-4" d="M406.59,112.92c1.74,7.42-7.41,9.88-8.99,5.99-.32-.79.22-2.86,0-4-.18-.9.22-2.19,0-3l2-2c2.04.54,6.08-.91,6.99,3Z"/>
  <path class="cls-12" d="M384.61,82.95c.98-2.31,2.95-.27,4.13.37,1.33.72,9.42,6.26,9.71,6.78,1.25,2.18-1.75,4.33-1.85,4.84-3.47-3.61-7.85-9.34-11.99-11.99Z"/>
  <path class="cls-7" d="M399.6,109.92l-2,2c-.08-.28-2.06-.5-2-4,1.6-.16,3,1.73,4,2Z"/>
  <path class="cls-5" d="M493.52,123.91c10.44-1.19,6.96,17.48-3,11.99.06-.32-.06-.68,0-1,6.36,1.59,10.2-5.93,6.01-8.52-6.2-3.83-5.55,6.1-6.01,8.52-3.85-.96-2.4-10.37,3-10.99Z"/>
  <path class="cls-4" d="M316.67,84.95c.16.16-.61,1.69.66,2.02,2.79.72,8.77.15,11.35,1.46,2.09,1.07,1.69,4.76,3.62,5.42,2.17.75,4.45-.97,6.63-.71,1.9.23,8.9,3.3,10.16,4.85,3.09,3.83.53,5.88.66,9.33.11,2.98,1.43,5.27.84,9.04-.71,4.56-6.23,11.54-6.89,15.09-.8,4.31.93,10.74-.25,14.73-.56,1.9-3.96,3.83-5.25,5.74s-1.49,4.53-2.54,5.95c-.33.45-8.53,5.96-9.24,6.25-2.38.97-5.72.3-7.36,1.64-1.43,1.17-1.29,4.02-2.34,5.65-3.74,5.88-7.73,8.77-14.04,11.44-.33-.3-2.43-.31-3-1-.19-.23.32-1.62-.06-1.92s-7.37-1.18-9.47-2.04c-2.4-.98-4.99-3.79-7.05-4.06-3.07-.41-13.71,5.06-18.8,4.93-3.8-.09-11.33-3.16-13.45-6.54-2.21-3.51-4.77-18.01-6.13-18.87-1.08-.69-2.93-.14-3.77-.68-.33-.21-3.08-6.32-3-7.11.12-1.22,1.64-2.59,1.79-4.25.19-2.05-1.24-4.14-.86-5.71.44-1.86,4.57-3.86,5.82-7.21,2.32-6.24-1.04-15.23,4.08-19.89,4.03-3.67,8.57-.09,3.94-8.55,1.73-.47,5.73-1.22,6.52-1.98,1.96-1.88,2.87-8.2,3.47-9.01.08-.11,1.75-.19,2.48-.97.8-.85,3.17-3.79,3.51-4.03.41-.28,4.84-1.84,5.45-1.87,3.22-.12,12.57.51,15.98.92,2.35.28,3.98,2.18,7.07,2.05,1.09-.04,5.77-4.98,8.96-5.21,3.46-.24,8.1,2.75,10.5,5.1ZM306.67,156.87c.59-.55,1.77-12,3.8-15.69,1.59-2.91,8.59-7.15,8.2-8.77-.19-.8-5.39-3.1-7.01-4.99s-3.16-5.63-4.04-7.95c-.5-1.33-1.51-10.78-4.93-7.55-.67.64-.97,11.83-6.51,16.98-1.24,1.16-7.87,4.13-6.49,5.99,7.35.77,9.84,6.17,12.04,12.44.82,2.34,1.54,12.72,4.94,9.55Z"/>
  <path class="cls-5" d="M268.71,83.95c-.34.23-2.71,3.17-3.51,4.03-.73.78-2.4.86-2.48.97-2.09.24-3.33-.26-4.26-2.23-5.01-10.58,11.78-16.72,10.25-2.77Z"/>
  <path class="cls-9" d="M856.21,424.56c.23.22,1.84-.48,2,.47l-6.99,12.51c-.35-.31-2.19-.24-3.07-1.38-2.2-2.86-.1-5.45,2.07-7.61.32-.31,2.34-1.38,4-3,.42-.41,1.44-.61,2-1Z"/>
  <path class="cls-13" d="M439.56,153.87c4.48,1.63,5.81,2.07,10.46,3.01,3.36.68,4.42,4.66,5.54,7.46s5.89,17.2,5.98,19.5c.32,8.35-6.87,4.8-10.72,7.27-.73.47-2.4,4-4.21,5.27-5.13,3.61-7.02.88-11.45,1.45-2.37.31-3.86,2.22-7.06,2.07-2.36-.11-5.56-1.7-7.51-3.08,4.7-7.88-6.06-14.19-12.99-8.99.06-.32-.06-.68,0-1,.66-3.79,2.65-9.26,1.32-12.75-.54-1.41-3.65-2.24-4.26-5.78-.34-2-.41-6.95.94-8.44.56-.62,2.84-1.11,4.03-2.46,1.1-1.25,1.82-4.18,2.12-4.37,1.34-.86,6.59.4,9.14-.36,1.94-.58,2.47-3.22,5.21-3.77,6.81-1.36,5.62,1.27,8.55,3.4,1.49,1.08,3.36,1,4.92,1.57Z"/>
  <path class="cls-7" d="M441.56,147.88c-1.06-.26-2.8.43-4.04-.45-1.41-1-.66-3.02-.95-3.55l5,4Z"/>
  <path class="cls-3" d="M699.34,165.86c2.08,6.83,12.81,6.82,16.44,12.03,6.32,9.06-.66,14.85-9.96,15.01-11.81.2-16.4-6.99-31.44-1.55-10.29,3.72-2.89,12.18-12.02,16.45-1.59-5.89-6.67-13.23-11.49-16.98-2.44-1.89-5.91-2.27-7.49-4.98,17.72-8.83,37.82-12.51,55.95-19.99Z"/>
  <path class="cls-12" d="M299.68,181.84c.57.69,2.67.7,3,1,2.53,2.26,1.93,6.82,3.54,8.95,1.26,1.68,3.81,1.33,5.27,3.73,2.34,3.86,4.33,14.17,1.64,18.24-1.19,1.8-3.38,2.15-4.51,3.52-.78.94-.71,2.26-.93,2.53-3.33,4.1-3.79,3.9-8.99,4.99-1.1.23-3.73.62-5.56.97-3.57.69-5.37-.82-8.43-1.97,0-.32.04-.68,0-1-.56-4.48-2.86-4.67-4.39-8.09-1.95-4.35-2.7-22.53,1.43-25.33,2.07-1.41,6.49-.9,8.91-2.08s4.58-5.92,9.04-5.45Z"/>
  <path class="cls-13" d="M235.73,164.86c.24.26.3,4.52,1.54,5.97s5.04.98,4.47,4.01c-6.17-.9-4.77,3.47-5.96,7.54-.43,1.47.56,1.73-2.02,1.46-.23-1.53-.56-7.09-1.19-7.8-.96-1.09-5.82.14-4.8-3.18,4.96-.6,4.84-2.76,5.98-6.53.32-1.04.33-3.25,2-1.48Z"/>
  <path class="cls-14" d="M284.69,222.79c.04.32,0,.68,0,1-.29,13.1-13.33,7.54-9.47-.98,2.14-4.72,6.46-2.68,9.47-.02Z"/>
  <circle class="cls-9" cx="267.38" cy="201.31" r="4.59"/>
  <path class="cls-8" d="M188.76,185.83c-8.41-2.59-31.58-18.29-23.41-28.91,4.96-6.44,11.62,2.84,14.2,6.63.61.89-.16,1.85,2.22,1.3-.79-5.41,3.31-22.77,11.07-16.54s-1.46,29.19-4.09,37.52Z"/>
  <path class="cls-1" d="M154.8,369.63c1.17,1.2-4.27,4.49-5.5,5.97-4.35,5.23-6.7,11.2-7.5,17.98l-5.98-13.48c-2.42-2.54-5.27-5.36-8.99-5.5,8.23-5.9,11.86-12.85,13-22.96l5.98,12.48c.79,3.13,8.62,5.12,8.99,5.51Z"/>
  <path class="cls-4" d="M194.49,222.94c7.37-1.97,6.55,12.27,2.28,14.34-9.22,4.47-8.29-12.73-2.28-14.34Z"/>
  <path class="cls-1" d="M87.87,315.68c-1.62-1.09-2.06-17.17,4.36-14.86,4.19,1.5.41,18.07-4.36,14.86Z"/>
  <path class="cls-5" d="M172.78,237.78c2.28,2.28-4.12,6.31-4.99,2.48-.55-2.45,4.34-3.12,4.99-2.48Z"/>
  <path class="cls-10" d="M743.31,281.72c.14-2.41-1.23-5.92-2.55-7.94-2.6-4.02-7.2-4.77-9.44-8.52,12.56-4.73,13.59-19.91,14.99-31.48h2.99c-.78,4.28.97,8.06,2,11.99,1.55,5.88,1.27,6.07,5,10.99.14.19-.21,1.23.27,1.73.75.81,2.13.78,2.73,1.26,1.86,1.49,6.65,3.99,4.99,5.97-.17.2-3.13.39-4.95,1.56-6.32,4.05-8.54,12.53-10.58,19.39-.22.75-1.31,10.88-3.14,5.58-.53-1.55-.11-3.56-1.31-6.53-.21-.51.22-1.8,0-2l-1-2ZM760.29,264.73l-7.85-7.62-5.13-14.33c-.93,9.54-4.09,18.25-12,23.95,7.46,1.04,8.02,7.78,10.76,12.72,2.18,3.94,2.15-.62,3.02-2.4,2.54-5.22,5.21-10.42,11.2-12.32Z"/>
  <path class="cls-7" d="M698.34,346.65c4.06.35,2.66,4.53,6.38,6.06,2.11.87,5.4.74,5.61.94.37.34-.25,7.38,0,8.99-1,.5-2.62.11-3,2-.06-.09-1.33.19-1.66-.29-.88-1.26-.65-3.06-1.88-4.66-2.25-2.93-7.77-4.93-11.45-5.04.31-.87-.51-3.19.11-3.87.89-1,5.09.64,5.89-4.12Z"/>
  <circle class="cls-5" cx="719.77" cy="312.71" r="4.96"/>
  <path class="cls-1" d="M703.01,278.86c7.29-2.4,9.52,9.35.83,8.95-5.86-.27-3.53-8.06-.83-8.95Z"/>
  <path class="cls-8" d="M722.32,203.81c-.04,5.4,1.05,9.78,5.99,12.5-.26,3.59-3.95,2.07-5.99,2.49.3-1.09,1.09-1.51.81-3.22-.17-1.04-2.08-7.21-3.79-5.76.24,2.46-3.69,4.28-3.92,5.62-.18,1.08,2.88,4.12,1.91,6.36,3.27.31,1.14-2.21,4.99-3-.4,1.46-3.31,8.54-3.91,9.39-.84,1.19-1.96.45-3.08.6-.41-.39.44-7.28-.19-9.31-.67-2.16-3.04-2.11-3.6-2.93-.65-.94-.01-2.32-.22-2.75,6.29,1.22,6.33-2.99,7.88-7.64.74-2.21-.85-2.8,3.11-2.34Z"/>
  <path class="cls-7" d="M756.3,256.75c-3.73-4.92-3.45-5.11-5-10.99,3.89-1.06,9.44,9.25,5,10.99Z"/>
  <path class="cls-7" d="M744.31,283.72c-.26-.23-1.76.22-1.99,0-.6-.6.99-1.88.99-1.99l1,2Z"/>
  <path class="cls-9" d="M733.32,422.56c.53.58-.72,10.01.52,12.96.6,1.43,8.6,7.57,10.2,7.86,3.59.66,6.79-2.31,9.89-2.53,2.42-.17,4.07,1.3,7.42.24,2.73-.86,5.95-5.84,8.58-6.26,4.71-.77,11.64,3.89,17.82,2.68,3.54-.69,7.51-7.16,12.06-6.91,3.77.21,4.73,4.86,4.45,7.93-.13,1.38-1.63,5.21-2,6.99-.16-.27-4.4-3.35-5.46-3.03-.62.18-1.3,2.61-2.47,3.58-2.04,1.68-7.04,4.09-8.12,5.88-1.7,2.8-.4,9.91.07,13.56-14.58,4.29-13.92-5.55-19.99-13.48-7.92-10.36-15.48-7.04-22.98,1.49-.77-2.36-1.27-4.23-1.86-6.65-.18-.74.27-3.32-1.62-2.33-1.64.86-5.32,15.17-8.07,18.9-2.21,2.99-5.07,4.65-8.43,6.06-1.19-1.69-15.19-2.64-17.98-1,0-.33,0-.67,0-1,.2-8.41,7.42-22.28,14.65-26.8,1.79-1.12,6-2.02,6.22-2.27,1.48-1.7-1.01-15.12-.97-18.36.05-3.55,1.37-4.25,2.08-6.51,5.78.12.95,6.2,2.41,8.06.91,1.15,3.46.8,3.58.93Z"/>
  <path class="cls-2" d="M774.28,378.61c-3.3-1.98-7.46.55-8.54,3.94-1.88,5.9.71,9.12,2.55,14.04-.79.56-9.56-2.64-7.99.49,6.59,2.67,4.6,11,11.98,8.5.49-.17,1.38.11,2,0-.22.31.23,2.11-.45,3-1.81,2.35-5.55.19-7.87.37-3.07.24-6.12,1.23-9.17,1.61-8.38,1.05-12.2-3.3-9.48,9-4.6.68-11.56-2.17-13.99,3-.13-.14-2.67.21-3.58-.93-1.47-1.85,3.37-7.93-2.41-8.06.28-.88,1.16-3.5,1-4,3.61-1.6,6.32-5.88,10.04-7.44,1.97-.83,4.02-.25,5.93-1.06s4.15-5.11,6.03-5.96c5.62-2.54,10.52,3.62,10.03-7.04-.19-4.26.03-7.03-.01-10.91-.02-2.55-1.77-4.73-.86-7.82s6.47-4.58,8.26-6.76c1.53-1.86,1.25-4.53,1.55-4.94.17-.24,4-1.52,5-3,2.26,4.41,5.32,6.83,2.42,11.9-.8,1.39-2.94,2.41-3.27,3.77-.46,1.88,1.7,5.81.85,8.3Z"/>
  <path class="cls-2" d="M734.31,347.65c-2.52,1.58-1.8,7.51-3.31,9.69-.82,1.18-4.84,2.74-6.13,4.36-5.39,6.74,3.77,12.6,2,15.92-1.13,2.11-5.57,2.97-7.48,4.57-2.87,2.4-3.5,7.8-7.07,8.42v-14.48c0-1.44-4.12-10.14-5-11.49.37-1.89,2-1.5,3-2,1.18-.59,7.61-3.76,7.85-4.13,1.03-1.63-.89-4.66-.62-6.24.36-2.02,11.23-7.99,13.22-7.67,1.85.29,2.45,1.86,3.52,3.06Z"/>
  <path class="cls-5" d="M766.29,335.66c-1.91.67-3.32.15-5,0-10.72-9.97,8.42-22.52,8.92-8.4.17,4.74-3.46,6.36-3.93,8.4Z"/>
  <path class="cls-5" d="M774.28,344.65c1.07,1.99,1.41,7.91,0,9.99-1,1.48-4.82,2.76-5,3-7.31.56-6.81-13.82-2-14.98,1.82-.44,6.13.4,6.99,2ZM772.02,345.92c-4.58-5.53-8.37,8.24-4.13,9.64,5.21,1.72,6.66-6.58,4.13-9.64Z"/>
  <path class="cls-5" d="M703.07,539.61c9.92-2.08,8.69,15.01-.26,14.88-7.71-.11-7.3-13.29.26-14.88Z"/>
  <path class="cls-10" d="M420.58,196.82c-3.53,5.92-15.67,5.58-14.95-3.45.14-1.73,1.58-3.45,1.96-5.54,6.93-5.2,17.69,1.1,12.99,8.99ZM413.31,188c-6.11.93-7.68,10.2-1.19,10.85,7.93.79,9.11-12.05,1.19-10.85Z"/>
  <path class="cls-12" d="M346.27,190.12c6.27-.7,5.88,3.26,7.92,5.65,1.57,1.84,6.77,2.26,7.46,6.6.23,1.45-1.2,12.7-1.78,14.17-1,2.56-5.91,7.66-8.78,8.19-4.41.82-16.88-.38-19.22-4.65-4.72-8.63-6.31-16.15.25-24.29,4.19-5.2,4.91-3.05,9.97-4.01,1.63-.31,3-1.53,4.18-1.66Z"/>
  <path class="cls-10" d="M316.67,188.83c-.02-1.23,2.22-6.16,2.95-7.54,3.94-7.41,4.08,3.83,5.29,5.3.65.79,7.57,2.28,4.12,5.32-1.71,1.51-2.96,1.22-4.56,4.21-1.05,1.97-1.85,9.47-4.79,6.7-.31-.3-.41-5.97-2.12-8.38-1.53-2.16-4.59-2.44-4.78-2.73-2.38-3.69,2.16-2.59,3.89-2.89.04,2.84,4.21,4.68,4.01,7.99,7.09-5.61,4.02-6.97,1.98-13.98-4.12.04-.59,5.08-5.98,5.99Z"/>
  <path class="cls-12" d="M362.63,224.79c-.09.06.27,1.43-.64,2.05-1.18.81-4.45,1.11-6.36,1.94-1.06-4.38,3.75-3.97,6.99-4Z"/>
  <path class="cls-12" d="M353.64,229.78c.04,2.36.67,3.46-2,3,.37-2.27.55-1.84,2-3Z"/>
  <path class="cls-10" d="M718.34,590.36c1.92-1.17,2.41-3.48,5.03-4.43,5.21-1.89,8.65.17,7.91,5.84-.58,4.47-10.68,17.42-15.43,16.64-3.26-.54-7.99-10.24-8.43-13.63-1.5-11.7,7.05-15.99,10.91-4.42ZM715.38,605.31c2.81,1.97,13.03-10.99,13.01-14.46-.05-10.06-9.76,4.48-10.56,4.5-2.33-1.57-1.59-7.26-3.44-8.53-4.75-3.24-4.42,6-3.82,8.82.15.7,4.37,9.36,4.81,9.67Z"/>
  <path class="cls-4" d="M806.25,632.32c2.67-.47,2.04.63,2,3-.23-.2-1.68.29-1.96-.04-.37-.42.17-2.21-.04-2.96Z"/>
  <path class="cls-4" d="M769.28,587.37c-.19.32.16,1.4,0,2-1.44.62-2.6-.94-2.99-1l3-1Z"/>
  <path class="cls-10" d="M723.32,469.51c3.36-1.41,6.22-3.07,8.43-6.06,2.75-3.73,6.43-18.04,8.07-18.9,1.89-.99,1.44,1.59,1.62,2.33.59,2.42,1.09,4.29,1.86,6.65.98,3.03,1.41,6.53,3.14,9.34,2.52,4.11,7.78,5.39,8.85,9.63-11.81,1.74-13.5,16.4-15.99,25.98-1.67.31-2.1-.37-2.76-1.73-2.77-5.73-2.1-15.22-7.53-20.94-1.24-1.3-3.95-1.7-5.16-3.38-.73-1.02-.36-2.66-.54-2.91ZM751.3,471.49c-6.43-5.39-10.39-12.47-11-20.96l-4.25,10.22c-2.46,3.97-4.62,8.7-9.73,9.76,6.26,4.84,10.53,11.83,11,19.96,3.02-1.94,2.99-6.83,4.49-9.98,1.92-4.04,4.87-7.9,9.49-9.01Z"/>
  <path class="cls-10" d="M750.3,528.44c-4.99-3.39,1.26-3.65,3.86-6.62,2.3-2.62,3.75-9.95,4.14-10.36,1.52-1.6,1.71.36,2.09,1.39.95,2.6.93,6.19,2.44,8.55s4.72,2.5,5.28,3.25c.61.83-.05,2.36.17,2.79-4.3,1.07-5.99,2.95-7.49,7-.52,1.4-1.56,11.07-3.75,5.74-2.68-6.49.47-6.84-6.74-11.74ZM759.28,533.43c.47-.45,2.22-6.67,4.99-7.49l-5.96-8.48c.96,3.08-5.23,7.73-4.94,9.35.17.99,2.28,2.08,2.99,3.11s1.04,5.32,2.93,3.51Z"/>
  <path class="cls-4" d="M142.81,450.53c-.44-1.63-1.41-3.04-1-4.99.78-3.75,8.05-5.58,9.02-.48,1.03,5.41-3.48,7.91-8.02,5.48Z"/>
  <path class="cls-8" d="M105.84,446.53c-2.1,2.25-20.11-13.2-21.52-17.93s-1.44-13.99,5.82-11.86c2.85.83,4.92,6.24,6.48,8.51.61.89-.16,1.84,2.23,1.3-.66-16.14,12.64-26.17,11.03-2.46-.52,7.62-4.43,14.65-4.04,22.44Z"/>
  <path class="cls-9" d="M708.54,332.5c-3.11-5.41,11.13-4.11,5.26,2.16-1.05.25-5.03-1.77-5.26-2.16Z"/>
  <path class="cls-4" d="M160.5,506.6c8.19-2.3,6.57,16.57-.18,15.92-5.11-.49-4.81-14.52.18-15.92Z"/>
  <path class="cls-5" d="M138.57,540.67c3.85,3.83-3.48,10.53-5.53,4.03-1.61-5.09,3.13-6.42,5.53-4.03Z"/>
  <path class="cls-10" d="M774.28,378.61c.53.32,1.11,2.57,2.63,2.85,2.29.42,5.46-4.3,9.36-2.38,3.34,1.64,2.88,5.66,2,8.52-2.53,8.25-9.72,11.99-13.99,17.98-.62.11-1.5-.17-2,0-2.13-2.64-2.85-5.9-4-8.99-1.83-4.92-4.42-8.14-2.55-14.04,1.08-3.39,5.24-5.92,8.54-3.94ZM775.28,389.61c1.07-12.75-9.25-11.77-6.76,1.26.7,3.65,4.1,7.89,4.77,11.72.49.37,7.75-8.08,8.41-9.05,1.29-1.91,7.04-10.91,3.01-11.91-5.67.1-4.29,8.97-9.44,7.99Z"/>
  <path class="cls-9" d="M809.25,351.64c-2.66-.14-2.37-1.6-3-2,1.65-2.01,3.03-.06,3,2Z"/>
  <path class="cls-8" d="M457.29,133.62c-6.35,5.86-12.71-10.22-5.03-12.54,7.2-2.18,9.35,8.57,5.03,12.54ZM453.06,122.92c-3.13.98-1.25,10.66,1.97,9.97,2.28-.48,2.97-11.52-1.97-9.97Z"/>
  <path class="cls-9" d="M490.52,134.89c.46-2.42-.19-12.35,6.01-8.52,4.19,2.59.35,10.11-6.01,8.52Z"/>
  <path class="cls-10" d="M306.67,156.87c-3.4,3.17-4.12-7.21-4.94-9.55-2.2-6.27-4.69-11.67-12.04-12.44-1.38-1.86,5.24-4.83,6.49-5.99,5.54-5.15,5.83-16.34,6.51-16.98,3.43-3.23,4.43,6.23,4.93,7.55.88,2.32,2.49,6.14,4.04,7.95s6.81,4.19,7.01,4.99c.39,1.62-6.6,5.87-8.2,8.77-2.02,3.69-3.21,15.14-3.8,15.69ZM305.67,147.87c.54-6.1,3.86-11.32,8.99-14.48-1.84-2.27-4.81-4.2-6.41-6.56-1.81-2.66-1.96-6.18-4.55-7.92-.12,6.65-4.65,10.28-8.99,14.48l4.83,4.15,6.13,10.33Z"/>
  <path class="cls-4" d="M760.29,264.73c-5.99,1.9-8.66,7.1-11.2,12.32-.87,1.78-.84,6.34-3.02,2.4-2.73-4.94-3.3-11.68-10.76-12.72,7.9-5.7,11.07-14.41,12-23.95l5.13,14.33,7.85,7.62Z"/>
  <path class="cls-11" d="M722.32,218.8c-3.85.79-1.72,3.31-4.99,3,.97-2.24-2.09-5.28-1.91-6.36.23-1.35,4.16-3.16,3.92-5.62,1.71-1.45,3.62,4.72,3.79,5.76.28,1.72-.51,2.14-.81,3.22Z"/>
  <path class="cls-1" d="M768.29,396.59c1.15,3.09,1.87,6.34,4,8.99-7.38,2.5-5.39-5.84-11.98-8.5-1.58-3.12,7.19.07,7.99-.49Z"/>
  <path class="cls-4" d="M772.02,345.92c2.53,3.06,1.08,11.36-4.13,9.64-4.24-1.4-.45-15.17,4.13-9.64Z"/>
  <path class="cls-4" d="M413.31,188c7.93-1.2,6.75,11.65-1.19,10.85-6.49-.65-4.92-9.93,1.19-10.85Z"/>
  <path class="cls-1" d="M316.67,188.83c5.39-.92,1.86-5.96,5.98-5.99,2.04,7.01,5.12,8.37-1.98,13.98.21-3.31-3.97-5.15-4.01-7.99Z"/>
  <path class="cls-8" d="M715.38,605.31c-.44-.31-4.67-8.97-4.81-9.67-.59-2.82-.92-12.06,3.82-8.82,1.85,1.26,1.11,6.95,3.44,8.53.8-.01,10.52-14.56,10.56-4.5.02,3.47-10.2,16.43-13.01,14.46Z"/>
  <path class="cls-4" d="M751.3,471.49c-4.62,1.11-7.56,4.97-9.49,9.01-1.5,3.15-1.47,8.04-4.49,9.98-.47-8.14-4.74-15.12-11-19.96,5.1-1.06,7.26-5.8,9.73-9.76l4.25-10.22c.61,8.48,4.57,15.57,11,20.96Z"/>
  <path class="cls-4" d="M759.28,533.43c-1.89,1.82-2.25-2.52-2.93-3.51s-2.81-2.13-2.99-3.11c-.29-1.62,5.91-6.27,4.94-9.35l5.96,8.48c-2.77.82-4.52,7.04-4.99,7.49Z"/>
  <path class="cls-8" d="M775.28,389.61c5.15.98,3.77-7.89,9.44-7.99,4.02,1-1.72,10.01-3.01,11.91-.66.97-7.92,9.43-8.41,9.05-.67-3.83-4.07-8.07-4.77-11.72-2.49-13.03,7.83-14.01,6.76-1.26Z"/>
  <path class="cls-5" d="M453.06,122.92c4.94-1.55,4.25,9.49,1.97,9.97-3.22.68-5.1-8.99-1.97-9.97Z"/>
  <path class="cls-4" d="M305.67,147.87l-6.13-10.33-4.83-4.15c4.34-4.2,8.87-7.83,8.99-14.48,2.59,1.74,2.74,5.26,4.55,7.92,1.61,2.36,4.58,4.29,6.41,6.56-5.12,3.15-8.45,8.38-8.99,14.48Z"/>
  <g>
    <g>
      <path class="cls-5" d="M659.37,214.8c-1.13,1.3-11.01-6.97-12.95-7.55-5.04-1.53-6.54,1.45-13.91-3.04-3.11-1.89-6.8-4.18-7.05-8.29,5.3-1.77,11.69-9.24,17.29-6.99,9.08,3.64,17.97,15.79,16.62,25.88Z"/>
      <path class="cls-5" d="M618.41,223.79c-.24-.02-4.54-1.12-4.76-1.24-.56-.32-7.93-9.6-7.93-10.25,0-3.26,16.69-14.14,17.65-13.46,2.51,5.28,6.95,10.49,9.03,15.96-2.91-.41-1.89,2.78-3.91,4.6-1.44,1.3-4.1,1.38-5.35,3.7-.87.31-1.81.64-2.73.69-.64.03-1.36.06-2,0Z"/>
      <path class="cls-5" d="M618.41,223.79c3.88,5.52,6.9,11.81,10.98,16.97-4.71-.33-13.99-12.81-13.99-16.46,0-1.02,2.07-.36,3.01-.51Z"/>
      <path class="cls-9" d="M632.4,214.8c2.96,7.76,4.31,17.37.48,24.97-2.64.55-10.66-13.46-12.47-15.98.93-.05,1.86-.38,2.73-.69,1.25-2.32,3.91-2.4,5.35-3.7,2.02-1.82,1-5.01,3.91-4.6Z"/>
      <path class="cls-5" d="M658.37,215.81c.27,1.7-2.4,1.07-3.4.9-4.2-.72-10.26-4.24-12.58-7.9,5.98.2,9.99,6.73,15.98,6.99Z"/>
      <g>
        <path class="cls-15" d="M795.26,3.05c.15-.42-.34-1.41.11-1.86.19-.19,4.67-1.26,5.25-1.19.67.08.54,1.86,1.3,2.04,7.76,1.83,9.27-.3,17.64,5.18,8.94,5.85,25.56,26.41,30.05,35.88,5.64,11.91,6.42,25.98,4.59,38.86-2.07.6-7.44,2.56-6.99,4.99-.33.02-.68-.04-1,0-8.85,1.2-16.96,3-25.98,5.99-3.59-1.16-9.67-.37-13.48,0-42.72,4.23-57.08,25.88-88.51,49.35-24.19,18.06-46.93,24.89-73.24,37.71-1.45.71-3.12.48-2.61,2.83-17.34,8.08-25.96,16.22-39.97,27.97-.29.24-1.65.24-2.5.96-5.97,5.09-12.04,10.37-17.49,16.02-2.55-3.2.54-7.35-6.29-11.19-9-5.06-17.28.36-22.71,7.62-1.45,1.69-.84-.76-.55-1.5,3.79-9.66,11.11-17.49,17.57-25.4,12.35-15.13,29.57-23.78,41.38-39.54,5.87-7.83,11.99-17.97,12.57-27.88l-2.98,2.99c1.13-6.82-2.32-10.11-5.01-14.98-1.54-2.8-2.1-6.69-5.5-7.98-2.11,3.31,2.35,4.28,2.5,6.98-4.02-1.47-13.37-2.54-17.98-3-2.55-.25-1.24-1.3-5,0-3.3,1.15-6.54,3.12-9.99,4-1.57.4-4.29-.97-5,1-.27.76.14,2.28-.55,3.9-3.91,9.13-13.45,21.34-19.92,29.07-1.7,2.03-7.29,6.36-7.99,7.99-2.31,5.35-3.91,14.14-5.51,19.96-.12.45-1.05,1.2-1,2-3.19-.01-12.65,7.58-15.99,9.99-1.71-1.03-1.06-3.72-.89-5.36,1.01-9.74.96-19.65,1.9-29.08.8-8,14.9-26.86,19.77-35.17,8-13.66,18.5-36.93,29.17-47.25,2.99,2.69,7.78-1.57,10.36-3.18,1.29-.8,3.2-.33,2.63-2.81,21.11-4.79,44.58-5.01,66.3-8.13,53.58-7.71,80.81-18.27,125.54-46.8,2.34-1.49,15.09-8.2,15.78-9.22.46-.68.07-1.39.2-1.77ZM603.42,202.81c1.76-1.97-4.58-7.65-6.98-6.98-1.14,1.12,5.95,8.14,6.98,6.98Z"/>
        <path class="cls-10" d="M846.22,86.95c-29.59,13.56-65.99,20.37-93.45,37.93-5.07,3.24-7.41,6.39-11.46,10.02-8.54,7.65-16.5,15.37-25.98,21.97-3.67,2.56-5.3,3.12-8.99,4.99-2.12,1.08-5.33,3.31-6.99,4-18.13,7.48-38.23,11.16-55.95,19.99,1.58,2.72,5.05,3.09,7.49,4.98,4.82,3.75,9.91,11.09,11.49,16.98,1.04,3.85.95,6.59-1.59,9.9-6.68,8.72-20.75-9.87-28.38-9.9.84,3.5,2.76,6.13,3.7,9.78,1.48,5.78,3.69,25.64-5.28,26.16-11.21.65-18.63-25.25-28.4-28.95.33-.81-.23-2.89,0-4,14.01-11.75,22.63-19.88,39.97-27.97,26.41-12.31,54.85-15.4,78.41-33.99,6.91-5.45,12.45-12.23,19.04-17.93,20.61-17.83,54.7-29.45,80.41-37.98,9.02-2.99,17.13-4.8,25.98-5.99ZM659.37,214.8c1.34-10.1-7.55-22.24-16.62-25.88-5.6-2.24-11.99,5.23-17.29,6.99.24,4.11,3.94,6.4,7.05,8.29,7.37,4.49,8.87,1.51,13.91,3.04,1.94.59,11.82,8.85,12.95,7.55ZM632.4,214.8c-2.08-5.47-6.52-10.67-9.03-15.96-.96-.67-17.65,10.21-17.65,13.46,0,.65,7.37,9.93,7.93,10.25.21.12,4.51,1.22,4.76,1.24-.94.15-3.01-.51-3.01.51,0,3.66,9.28,16.13,13.99,16.46-4.08-5.16-7.11-11.46-10.98-16.97.64.06,1.35.03,2,0,1.81,2.52,9.84,16.52,12.47,15.98,3.82-7.6,2.47-17.2-.48-24.97ZM658.37,215.81c-5.99-.26-10-6.8-15.98-6.99,2.32,3.66,8.38,7.18,12.58,7.9,1,.17,3.67.8,3.4-.9Z"/>
        <path class="cls-10" d="M779.28,14.03c-44.73,28.53-71.96,39.1-125.54,46.8-21.72,3.12-45.19,3.35-66.3,8.13-4.02.91-8.58,1.12-12.33,3.94-1.01.76-.55,1.94-.66,2.05-10.67,10.32-21.17,33.59-29.17,47.25-4.87,8.31-18.97,27.17-19.77,35.17-.94,9.44-.9,19.35-1.9,29.08-.17,1.64-.82,4.33.89,5.36-2.04,1.48-3.57,1.69-4,2,0-.67,0-1.33,0-2,.02-16.14.47-34.19,7.82-48.61,7.06-13.86,17.89-30.64,26.15-44.28,5.19-8.57,14.6-27.2,23.46-30.99,15.75-6.74,51.21-7.51,69.82-10.11,17.1-2.39,39.39-5.54,52.35-9.77,27.15-8.87,54.13-19.11,78.18-35.03l1,1Z"/>
        <path class="cls-8" d="M795.26,3.05c-.13.38.26,1.09-.2,1.77-.69,1.01-13.45,7.73-15.78,9.22l-1-1c.4-.26.87-1.75,2.02-2.43,4.57-2.75,9.81-6.59,14.97-7.55Z"/>
        <path class="cls-10" d="M595.43,113.92l22.49,16.98c1.79-4.01-2.06-7.83-1.5-11.98v-1c2.68,4.87,6.14,8.16,5.01,14.98l2.98-2.99c-.58,9.91-6.7,20.05-12.57,27.88-11.81,15.76-29.03,24.41-41.38,39.54-6.46,7.92-13.78,15.74-17.57,25.4-.29.74-.89,3.19.55,1.5,5.42-7.26,13.71-12.68,22.71-7.62,6.83,3.84,3.74,7.99,6.29,11.19.3.38.47.84,1,1l-14.99,12.98c-3.05.93-7.61,5.18-11.41,4.98-2.6-.14-7.52-3.63-8.57-5.98-1.42-3.17-.49-6.23-1-8.99,2.4-13.36,9.69-23.28,17.82-33.64.16-1.1-8.64-12.02-9.8-12.83-2.78-1.96-1.74,1.05-2.03,2.53-1.95,10.01-3.78,20.01-5.99,29.97-.82,3.7-1.34,8.16-2,10.99-4.36,18.83-11.49,37.64-15.99,55.94-.62.11-1.5-.16-2,0l24.99-103.3c-4.91-3.78-6.06-.37-8.77,1.37-.59.38-1.94-.15-2.23.05-.04-.51-.52-1-1-1-.05-.8.87-1.54,1-2,2.66,1.16,3.01-1.83,3.69-1.97,5.28-1.13,6.12,2.79,7.3-5.02h2c-.07,2.4-.45,5.85.52,7.98l12.96,14.99c.61-3.18,12.13-11.71,12.33-12.57.33-1.4-1.35-7.72-.6-11.67,1.78-9.38,12.35-22.26,14.46-32.38.26-3.37-2.89-3.67-4.69-5.82l22.96,10.49c-5.93.77-10.96-2.46-15.97-4.98-.49,8.67-10.86,21.28-11.81,28.7-.36,2.81,2.09,5.39,1.82,8.26,1.33,1.14,6.2-3.01,7.46-4.03,6.42-5.2,19.69-17.1,15.52-25.93l2,4.99c2.77-1.57,8.45-11.7,7.83-14.28-.56-2.32-17.94-16.47-20.39-16.69s-11.4,4.11-14.42,5h-1c.71-.88,2.57-.97,2-3v-1c.62.06,9.65-1.63,10-2,1.95-2.05-3.16-4.9-5-4.99,3.75-1.3,2.45-.25,5,0ZM581.45,180.84c.52.54,3.52-.03,3.93-1.61.53-2.05-2.35-5.86-1.95-8.36-2.48.34-2.35,9.6-1.98,9.98ZM556.82,223.15c-4.45,4.4-9.74,11.06-5.37,17.15,4.76,6.63,11.23,1.74,16.33-1.69,5.75-3.87,16.64-11.5,9.09-18.74-6.51-6.24-14.75-1.97-20.06,3.28Z"/>
        <path class="cls-1" d="M820.24,92.94c-25.7,8.53-59.8,20.15-80.41,37.98-6.58,5.7-12.13,12.47-19.04,17.93-23.55,18.59-51.99,21.67-78.41,33.99-.51-2.35,1.16-2.12,2.61-2.83,26.31-12.82,49.05-19.64,73.24-37.71,31.43-23.47,45.79-45.13,88.51-49.35,3.82-.38,9.9-1.16,13.48,0Z"/>
        <path class="cls-1" d="M585.44,121.91c.57,2.03-1.28,2.11-2,3-3.98,4.91-30.48,38.96-30.92,41.52-.36,2.1.24,4.47-.06,6.43-1.19,7.8-2.02,3.89-7.3,5.02-.67.14-1.03,3.14-3.69,1.97,1.6-5.82,3.21-14.61,5.51-19.96.7-1.63,6.29-5.96,7.99-7.99,6.47-7.73,16.01-19.95,19.92-29.07.69-1.62.28-3.14.55-3.9,3.24,1.68,6.13,3.61,9.99,3Z"/>
        <path class="cls-1" d="M613.42,116.91c.24.09,1.29,2.49,3,2-.55,4.16,3.3,7.97,1.5,11.98l-22.49-16.98c4.62.46,13.96,1.53,17.98,3Z"/>
        <path class="cls-1" d="M590.44,113.92c1.84.08,6.95,2.94,5,4.99-.35.37-9.37,2.06-10,2-.84-.08-4.84-1.78-5-3,3.45-.87,6.69-2.85,9.99-4Z"/>
        <path class="cls-1" d="M587.44,68.97c.57,2.48-1.34,2.01-2.63,2.81-2.58,1.61-7.37,5.87-10.36,3.18.11-.11-.35-1.29.66-2.05,3.75-2.82,8.31-3.03,12.33-3.94Z"/>
        <path class="cls-5" d="M603.42,202.81c-1.04,1.16-8.13-5.86-6.98-6.98,2.4-.67,8.74,5.01,6.98,6.98Z"/>
        <path class="cls-5" d="M613.42,116.91c-.15-2.7-4.62-3.67-2.5-6.98,3.4,1.3,3.96,5.19,5.5,7.98v1c-1.71.49-2.76-1.91-3-2Z"/>
        <path class="cls-5" d="M580.44,117.91c.15,1.22,4.16,2.92,5,3v1c-3.87.62-6.75-1.32-9.99-3,.7-1.97,3.42-.6,5-1Z"/>
        <path class="cls-5" d="M595.43,220.8v6.99s-5.99-2.01-5.99-2.01c-.33-.42,4.95-6.15,5.99-4.98Z"/>
        <path class="cls-5" d="M584.44,124.91c3.03-.89,12.02-5.23,14.42-5s19.83,14.37,20.39,16.69c.62,2.58-5.06,12.72-7.83,14.28l-2-4.99c4.17,8.84-9.1,20.73-15.52,25.93-1.25,1.01-6.12,5.17-7.46,4.03.27-2.87-2.18-5.44-1.82-8.26.95-7.42,11.32-20.04,11.81-28.7,5.02,2.52,10.04,5.76,15.97,4.98l-22.96-10.49c1.8,2.15,4.95,2.45,4.69,5.82-2.12,10.12-12.68,23-14.46,32.38-.75,3.95.93,10.27.6,11.67-.21.86-11.72,9.38-12.33,12.57l-12.96-14.99c-.96-2.13-.59-5.57-.52-7.98.07-2.52-.42-5.08,1.12-7.37,10.34-12.58,23.31-25.02,28.85-40.57ZM587.94,131.9v1c.65-.33.65-.67,0-1Z"/>
        <path class="cls-1" d="M556.82,223.15c5.31-5.24,13.54-9.52,20.06-3.28,7.55,7.24-3.34,14.87-9.09,18.74-5.1,3.43-11.57,8.32-16.33,1.69-4.37-6.09.92-12.75,5.37-17.15Z"/>
        <path class="cls-6" d="M584.44,124.91c-5.54,15.55-18.51,28-28.85,40.57-1.55,2.29-1.05,4.85-1.12,7.37h-2c.3-1.95-.3-4.33.06-6.43.44-2.56,26.93-36.6,30.92-41.52h1Z"/>
        <path class="cls-5" d="M581.45,180.84c-.36-.38-.5-9.64,1.98-9.98-.4,2.5,2.48,6.32,1.95,8.36-.41,1.59-3.41,2.15-3.93,1.61Z"/>
        <path class="cls-10" d="M587.94,131.9c.65.33.65.67,0,1v-1Z"/>
      </g>
      <g>
        <path class="cls-3" d="M541.48,182.84c.29-.2,1.64.33,2.23-.05,2.71-1.74,3.85-5.15,8.77-1.37l-24.99,103.3c-.16.05-.17,1.25-.99,1-3.45-20.27-28.2-28.23-38.8-8.31-.53,1-3.17,7.39-3.17,7.81v15.48c-25.7-13.01-55.92,7.14-33.37,33.86,1.06,1.25,3.22,1.88,3.95,3.12.38.65-.56.93-.56.98l-103.88-7.03c-.34-2.47.87-4.25,2.47-5.95,9.08-9.64,30.19-24.33,41.46-32.96,37.88-29.02,77.27-57.07,115.82-85.49,10.42-7.68,20.63-17.18,31.06-24.39ZM463.73,273.52c-.83-.47-.69-3.58-3.18-2.78-.06,2.65.49,6.96-2.99,7v.98c4.87-.91,4.96,2.73,7.97,5-1.24-4.91,1.88-6.45,3-9.98-1.46-.16-3.56.49-4.8-.22ZM429.39,300.89c-1.62-2.59-4.08-.09-3.82,2.8,3.27,2.03,5.86.46,3.82-2.8Z"/>
        <path class="cls-3" d="M590.44,233.78c15.65,19.69,29.98,41.87,45.96,60.93-7.39-1.22-15.02-2.34-22.49-2.99-24.98-2.18-53.61-5-78.43-5l12.99-45.95c1.05,2.35,5.97,5.85,8.57,5.98,3.8.2,8.36-4.05,11.41-4.98,2.45-.75,6.79-.4,9.99-1.5,4.35-1.51,7.38-5.62,11.99-6.49Z"/>
        <path class="cls-10" d="M391.6,292.71c.85-.19,2.05.13,3,0-11.27,8.64-32.38,23.33-41.46,32.96-1.61,1.71-2.81,3.48-2.47,5.95l103.88,7.03c.05.96.08,2.05,0,3-.7,8.07-3.62,18.69-5.86,26.6-.45,1.6-.48,3.38-2.13,4.36-.13-.83.02-1.7-1-2,.88-3.98,7.24-27.71,6-28.97l-98.43-7.97c-.31,2.69,2.38,4.48,3.51,5.97,2.14,2.82,4.28,6.8,5.99,8.99h-1.48c-.51.21-.54.52-.51,1-3.42-3.54-12.54-14.2-12.98-18.58s2.31-6.3,4.97-8.9c3.99-3.91,35.98-28.78,38.98-29.45Z"/>
        <path class="cls-10" d="M535.48,286.72c24.82,0,53.44,2.82,78.43,5,7.47.65,15.1,1.77,22.49,2.99.79.94,1.73,1.62,2,3-.28.88-.6,1.28-1,2-.65.06-1.36-.09-2,0,3.63-4.61-4.26-2.7-6.5-3.99l-99.41-7c.1-.63-.13-1.42,0-2,2,0,4,0,5.99,0Z"/>
        <path class="cls-4" d="M590.44,233.78c-4.62.87-7.64,4.98-11.99,6.49-3.19,1.11-7.53.75-9.99,1.5l14.99-12.98c1.28.39,2.47-.39,4.55.93s1.81,3.27,2.45,4.06Z"/>
        <path class="cls-4" d="M547.47,231.78c.51,2.76-.42,5.82,1,8.99l-12.99,45.95c-2,0-4,0-5.99,0,.13-.6-.14-1.42,0-2,4.5-18.3,11.63-37.1,15.99-55.94.45.8,1.87,2.32,2,3Z"/>
        <path class="cls-12" d="M547.47,231.78c-.13-.68-1.55-2.2-2-3,.65-2.82,1.18-7.29,2-10.99,3.68.61,2.36-.39,3.29-2.17,3.79-7.22,8.06-17.34,5.85-25.5-.68-2.51.46-2.65-3.15-2.3.29-1.47-.76-4.49,2.03-2.53,1.15.81,9.96,11.74,9.8,12.83-8.13,10.37-15.42,20.29-17.82,33.64Z"/>
        <path class="cls-4" d="M553.47,187.83c3.61-.35,2.47-.21,3.15,2.3,2.21,8.16-2.06,18.28-5.85,25.5-.93,1.77.39,2.78-3.29,2.17,2.21-9.95,4.04-19.96,5.99-29.97Z"/>
        <path class="cls-3" d="M631.4,300.7c-.15.13-.09,1.65-1.04,2.42-23.93,19.35-47.14,39.61-71.62,58.29-31.62,4.37-63.67,6.27-95.2,11.21-3.32.52-5.78-1.73-5,3-1.32-.29-2.71-.59-4-1-1.08-.34-2.17-1.7-4-1,1.29-3.2,3.04-8.03,3.93-10.74.96-2.96,1.84-11.84,3.13-13.67,2.37-3.35,10,.07,8.93-5.56,18.35,4.77,35.9,6.39,54.86,3.9,2.03-11.74,5.95-23.58,6.96-35.5.38-4.45-.15-8.93.13-13.36,5.23,1.19,6.01-4.93,10.48-5.09l92.43,7.08ZM546.75,313.39c-.72-.57-.81-2.68-2.26-2.69.06,1.72,0,3.42-.44,5.1-.69,2.59-3.19.99-2.57,3.89,4.86-.91,4.99,2.72,7.99,5-.44-4.39-.13-6.87,3.01-9.98-1.96-.05-4.07,0-5.72-1.31ZM481.24,356c-.74-.41-2.5-.57-2.71-.36-.28.29-1.32,7.73-1.01,7.99.19.16,2.24-.17,3.24.24,2,.8,2.47,3.04,4.76,2.76-2.06-2.23.37-8.69,0-8.98-.27-.21-2.25.24-3.27-.03-.89-.24-.86-1.53-1.02-1.62Z"/>
        <path class="cls-6" d="M635.4,299.7c.64-.09,1.35.06,2,0-.77,1.37-1.16,2.96-2.49,3.99l-21.48,18.49c11.62-.88,25.44,3.26,25.88,17.07.51,16.32-15.25,18.51-27.5,20.26-43.98,6.28-94.65,12.75-138.76,16.1-3.12.24-6.36-.01-9.49,0v-3c31.53-4.94,63.57-6.84,95.2-11.21,24.48-18.68,47.69-38.94,71.62-58.29.95-.77.89-2.29,1.04-2.42.17-.15,3.31-.9,4-1Z"/>
        <path class="cls-6" d="M362.63,348.65c.07.08,1.3-.19,2.01.71,8.04,10.3,15.53,21.09,23.68,31.3,16.68-2.59,33.46-3.73,50.25-5.05l1,3c-18.69,2.16-48.43,8.4-66.27,7.61-13.19-.58-21.3-10.55-18.22-23.66,1.03-4.41,5.89-7.67,6.43-9.64.41-1.48-.82-2.58-.86-3.28-.03-.48,0-.79.51-.99h1.48Z"/>
        <path class="cls-10" d="M454.55,374.62c.33,3.98.12,2.45-2.42,3.03-4.73,1.08-8.28.47-12.57.97l-1-3c.21-.02,1.37-.89,3-1,.99-.06,2,.05,3,0,.37-.02.69.12,2,0,.33-.03.67.03,1,0-.19,1.51-.18,2.54,1.49,2,1.09-.35.22-1.44.51-2,.18-.35.86-.66,1-1,1.83-.7,2.91.65,4,1Z"/>
        <path class="cls-10" d="M463.54,372.62v3c-2.1.02-1.26.82-5,0-.78-4.73,1.68-2.48,5-3Z"/>
        <path class="cls-8" d="M463.73,273.52c1.25.71,3.34.05,4.8.22-1.12,3.53-4.24,5.08-3,9.98-3.01-2.27-3.1-5.92-7.98-5v-.98c3.49-.04,2.93-4.35,3-7,2.49-.8,2.35,2.31,3.18,2.78Z"/>
        <path class="cls-5" d="M429.39,300.89c2.04,3.26-.56,4.83-3.82,2.8-.26-2.9,2.21-5.39,3.82-2.8Z"/>
        <path class="cls-3" d="M356.63,339.66l89.93,7.99c-2.35,5.2-1.13,11.56-2.21,16.27-.69,3.05-4.48,5.89-2.8,10.69-1.63.11-2.79.98-3,1-16.8,1.32-33.57,2.46-50.25,5.05-8.15-10.21-15.64-21-23.68-31.3-.7-.9-1.94-.63-2.01-.71-1.72-2.19-3.86-6.17-5.99-8.99Z"/>
        <path class="cls-4" d="M356.63,339.66c-1.13-1.49-3.82-3.28-3.51-5.97l98.43,7.97c1.24,1.26-5.12,24.99-6,28.97-.3,1.34-.68,2.66-1,4-.99.05-2.01-.06-3,0-1.69-4.8,2.1-7.64,2.8-10.69,1.07-4.72-.15-11.08,2.21-16.27l-89.93-7.99Z"/>
        <path class="cls-4" d="M466.54,343.65c1.07,5.62-6.56,2.2-8.93,5.56-1.29,1.83-2.17,10.71-3.13,13.67-.88,2.71-2.63,7.54-3.93,10.74-.14.34-.82.65-1,1-.66.04-1.34-.05-2,0-.33.03-.67-.03-1,0-.07-.65.1-1.37,0-2,1.65-.98,1.68-2.76,2.13-4.36,2.24-7.92,5.17-18.54,5.86-26.6,4.98-1.2,8.12.99,11.99,2Z"/>
        <path class="cls-6" d="M446.56,372.62c.1.63-.07,1.35,0,2-1.31.12-1.63-.02-2,0,.32-1.34.7-2.66,1-4,1.02.29.87,1.17,1,2Z"/>
        <path class="cls-4" d="M529.49,288.72l99.41,7c2.24,1.29,10.13-.62,6.5,3.99-.68.1-3.82.85-4,1l-92.43-7.08c-4.47.15-5.25,6.28-10.48,5.09.25-3.89.37-6.13,1-9.99Z"/>
        <path class="cls-5" d="M546.75,313.39c1.65,1.3,3.76,1.27,5.72,1.31-3.14,3.1-3.45,5.59-3.01,9.98-3-2.28-3.13-5.91-7.99-5-.63-2.9,1.88-1.3,2.57-3.89.45-1.68.5-3.38.44-5.1,1.46.02,1.55,2.13,2.26,2.69Z"/>
        <path class="cls-8" d="M481.24,356c.16.09.13,1.38,1.02,1.62,1.03.27,3-.18,3.27.03.36.28-2.07,6.74,0,8.98-2.29.28-2.76-1.96-4.76-2.76-1-.4-3.04-.07-3.24-.24-.31-.26.73-7.7,1.01-7.99.2-.21,1.97-.05,2.71.36Z"/>
        <path class="cls-6" d="M449.55,374.62c-.29.56.58,1.65-.51,2-1.67.53-1.68-.5-1.49-2,.66-.05,1.34.04,2,0Z"/>
        <g>
          <path class="cls-6" d="M454.55,338.66c0-.06.94-.34.56-.98-.73-1.23-2.9-1.86-3.95-3.12-22.55-26.72,7.68-46.87,33.37-33.86v-15.48c0-.42,2.64-6.81,3.17-7.81,10.61-19.92,35.35-11.96,38.8,8.31.82.25.82-.94.99-1,.5-.16,1.38.11,2,0-.14.58.13,1.4,0,2s.1,1.37,0,2c-.63,3.86-.75,6.1-1,9.99-.28,4.42.25,8.91-.13,13.36-1,11.92-4.93,23.75-6.96,35.5-18.96,2.49-36.52.86-54.86-3.9-3.87-1.01-7.01-3.2-11.99-2,.08-.95.05-2.04,0-3ZM519.49,345.64c1.64-19.84,14.79-57.87-3.97-72.43-13.25-10.29-26.56,1.87-27.99,16.01-.6,5.95.8,11.61.98,17.46-3.92-1.29-7.07-4.11-11.17-5.31-19.75-5.78-39.81,8.07-26.63,27.62,11.82,17.52,50,16.8,68.76,16.64Z"/>
          <path class="cls-8" d="M519.49,345.64c-18.76.17-56.95.88-68.76-16.64-13.18-19.54,6.88-33.39,26.63-27.62,4.1,1.2,7.25,4.02,11.17,5.31-.18-5.86-1.58-11.52-.98-17.46,1.42-14.14,14.74-26.31,27.99-16.01,18.75,14.56,5.61,52.59,3.97,72.43ZM519.49,291.72c-6.09,1.31-6.23-1.88-9.98-5-.68,2.29,1.27,5.42.84,7.3-.39,1.72-3.37,2.36-2.84,4.68,5.83-1.22,6.5,2.96,9.98,6,.68-2.46-1.19-5.39-1-7.48.23-2.51,3.33-2.92,3-5.5ZM462.54,303.7c-7.77.99-12.14,7.73-10.92,15.42.62,3.88,4.77,6.32,4.94,4.05.34-4.43-5.61-8.93,1.93-15.05,2.37-1.92,4.94-.37,4.05-4.42ZM512.2,335.43c1.93-3.7-5.41-5.1-5.69-4.76-.21.26.25,2.25-.03,3.27s-3.07.77-1.98,3.72c1.35-.5,5.69,1.34,5.99,1,.18-.2-.29-1.58.1-2.15.63-.93,1.56-.99,1.61-1.08Z"/>
          <path class="cls-11" d="M519.49,291.72c.33,2.58-2.77,3-3,5.5-.19,2.08,1.67,5.01,1,7.48-3.48-3.04-4.15-7.21-9.98-6-.53-2.32,2.45-2.97,2.84-4.68.43-1.88-1.52-5-.84-7.3,3.75,3.12,3.89,6.31,9.98,5Z"/>
          <path class="cls-1" d="M462.54,303.7c.89,4.04-1.68,2.49-4.05,4.42-7.54,6.11-1.59,10.61-1.93,15.05-.17,2.27-4.32-.16-4.94-4.05-1.22-7.69,3.14-14.43,10.92-15.42Z"/>
          <path class="cls-1" d="M512.2,335.43c-.04.09-.97.15-1.61,1.08-.39.57.08,1.95-.1,2.15-.3.34-4.64-1.51-5.99-1-1.09-2.95,1.72-2.74,1.98-3.72s-.18-3.01.03-3.27c.27-.34,7.62,1.07,5.69,4.76Z"/>
        </g>
      </g>
    </g>
    <g>
      <path class="cls-6" d="M540.48,181.84c.48,0,.96.49,1,1-10.43,7.21-20.64,16.7-31.06,24.39-38.55,28.42-77.93,56.47-115.82,85.49-.94.13-2.15-.19-3,0l77.93-60.92-208.82,16.98,11.9,6.56c31.24,21.69,45.03,62.35,45.04,99.31-1.9-11.41-4.75-24.19-7.98-35.48-8.66-30.28-27.71-63.78-61.97-68.4v48.94c-1.36.26-2.41-.35-2.83-1.67-.39-1.24-1.03-9.64-1.16-11.83-.7-11.81.31-23.7.98-35.45-35.66,5.94-48.09,46.3-51.82,77.54.09,81.76-.55,164.27-.17,245.55.07,16.12,2.08,33.15.73,48.86-.32,3.67-3.83,5.52.39,9.04.99,19.45-3.03,42-1.14,61.06.17,1.68-.13,3.33,1.5,4.49l124.44,72.86c-.15-8.48.21-17.02.06-25.51-2.19-121.92-1.47-244.29-2.09-366.58l2.04-15.44c1.47,10.91.62,20.61.96,31.5,3.85,123.56,1.73,247.86,4.04,371.53.04,2.13-1.42,4.26-.99,6.49,106.19-25.16,212.76-48.9,318.94-74.2,4.11-.98,8.85-2.81,12.78-3.71,1.46-.33,8.84-.34,9.05-1.58-.34-12.29.24-24.63-.02-36.92-.31-14.55-.96-28.78-1.04-43.41-.03-4.65.02-9.33,0-13.98-.06-16.3.05-32.64,0-48.94-3.06-67.36,4.07-138.35.04-205.3-1.58-26.28-11.51-58.62-26.8-80.09-8.78-12.33-22.59-25.84-37.18-30.24,0,.83-.12,1.68-.04,2.52.44,5.14,31.68,42.16,37.04,50.88,2.79,4.55,4.62,5.41,2.97,10.52-.27-1.38-1.21-2.05-2-3-15.98-19.06-30.31-41.24-45.96-60.93-.63-.8-.42-2.78-2.45-4.06s-3.27-.54-4.55-.93c-.53-.16-.7-.62-1-1,5.45-5.65,11.52-10.93,17.49-16.02.85-.72,2.21-.72,2.5-.96-.23,1.11.33,3.18,0,4-.19.46-4.33,2.72-4.85,4.72-.17.64.79,8.7,1.03,9.09.37.63,10.8,4.92,13.12,6.35,10.69,6.59,22.51,18.49,29.67,28.77,19.73,28.36,23.97,64.19,24.98,97.89.36,11.94-.11,24,0,35.96.37,40.93-.07,81.93,0,122.86.02,8.64-.01,17.33,0,25.97.02,16.35.98,32.67,1,48.94.02,12.3.08,24.65,0,36.96-.03,4.79-.97,9.22-1.04,13.44-.29,16.61.42,33.24-.1,49.85-.87,2.59-20.96,5.7-24.84,6.63-20.31,4.89-40.61,10.19-60.95,14.98-29.61,6.98-59.32,14.11-88.92,20.98-16.58,3.84-33.36,7.16-49.96,10.99-26.31,6.06-52.58,13.25-78.93,18.98-8.98,1.95-31.89,7.88-39.53,8.03-4.19.08-6.28-2.86-9.43-3.03-1.72-2.16-4.9-3.84-7.33-5.16-35.87-19.46-74.04-42.52-109.69-64.18-1.02-.62-2.55-.37-2.88-.58-1.37-.87-4.69-3.88-4.98-5.51-.19-20.67.15-41.35.06-62.03,0-1.83-1.07-3.2-1.07-3.38-.05-17.33,1-34.6,1-51.94,0-40.94-.1-81.92,0-122.86.01-6.31-.01-12.66,0-18.98.03-13.26-1.05-26.94-1-39.95,0-.67,0-1.33,0-2,.04-8.75.91-18.73,1-27.97.04-4.65-.07-9.33,0-13.98.36-24.75-.06-42.6,9.23-66.19,10.12-25.68,25.09-39.32,52.72-42.69,10.87-1.33,22.05-1.99,32.97-3,5.25-.49,10.72-.53,15.99-1,4.75-.42,10.24-1.58,14.99-2,12.24-1.08,24.69-1.93,36.97-3,10.27-.89,20.68-1.1,30.97-2,13.97-1.22,27.99-2.73,41.96-4,17.64-1.6,35.37-2.52,52.99-4.46,13.9-9.7,27.67-19.62,41.34-29.63,1.47-1.08,1.46-2.77,1.59-2.86.43-.3,1.96-.52,4-2,3.33-2.41,12.8-10,15.99-9.99ZM595.43,220.8c-1.04-1.17-6.31,4.56-5.99,4.98l5.98,2.01v-6.99Z"/>
      <path class="cls-2" d="M317.67,354.64c-.02-36.96-13.8-77.61-45.04-99.31l-11.9-6.56,208.82-16.98-77.93,60.92c-3,.67-34.99,25.55-38.98,29.45-2.66,2.61-5.39,4.72-4.97,8.9s9.56,15.04,12.98,18.58c.04.7,1.27,1.79.86,3.28-.54,1.97-5.39,5.23-6.43,9.64-3.07,13.12,5.04,23.08,18.22,23.66,17.84.79,47.58-5.45,66.27-7.61,4.28-.5,7.83.12,12.57-.97,2.54-.58,2.75.95,2.42-3.03,1.28.41,2.68.71,4,1,3.74.82,2.89.02,5,0,3.13-.02,6.36.23,9.49,0,44.12-3.35,94.78-9.82,138.76-16.1,12.25-1.75,28.02-3.94,27.5-20.26-.43-13.81-14.25-17.94-25.88-17.07l21.48-18.49c1.34-1.03,1.73-2.62,2.49-3.99.4-.71.71-1.12,1-2,1.65-5.1-.18-5.97-2.97-10.52-5.36-8.73-36.6-45.74-37.04-50.88-.07-.84.05-1.69.04-2.52,14.59,4.4,28.4,17.91,37.18,30.24,15.29,21.47,25.22,53.81,26.8,80.09,4.03,66.96-3.1,137.94-.04,205.3-10.2-.78-7.08,5.13-9.22,8.76-.32.55-2.52.97-3.66,2.83-2.51,4.12-2.79,15.77-1.68,20.44.86,3.61,3.82,4.75,4.36,6.63,1.12,3.86,4.8,18.68,5.18,21.87.19,1.6.17,11.48-.04,12.83-.49,3.11-3.17,4.71-3.73,7.25-2.54,11.54-2.93,28.7-3.58,40.58-.19,3.46-2.23,16.83-1.12,18.64.82,1.34,4.9,2.45,5.49,5-3.93.89-8.66,2.73-12.78,3.71-106.17,25.3-212.74,49.04-318.94,74.2-.43-2.23,1.03-4.36.99-6.49-2.31-123.67-.19-247.96-4.04-371.53-.34-10.89.51-20.6-.96-31.5-.35-2.58-.58-5.49-1-7.99Z"/>
      <path class="cls-5" d="M318.67,362.63l-2.04,15.44c.62,122.29-.1,244.66,2.09,366.58.15,8.49-.2,17.03-.06,25.51l-124.44-72.86c-1.63-1.16-1.33-2.81-1.5-4.49-1.89-19.06,2.12-41.6,1.14-61.06-4.22-3.53-.71-5.37-.39-9.04,1.35-15.71-.66-32.74-.73-48.86-.37-81.28.27-163.79.17-245.55,3.73-31.24,16.16-71.6,51.82-77.54-.67,11.74-1.68,23.64-.98,35.45.13,2.19.77,10.59,1.16,11.83.41,1.32,1.47,1.92,2.83,1.67v-48.94c34.25,4.63,53.31,38.13,61.97,68.4,3.23,11.28,6.08,24.07,7.98,35.48.41,2.5.65,5.41,1,7.99Z"/>
      <path class="cls-9" d="M662.37,549.41c.05,16.3-.06,32.64,0,48.94-4.9.43-5.09,13.57,0,13.98.08,14.62.73,28.86,1.04,43.41.26,12.29-.33,24.62.02,36.92-.21,1.24-7.6,1.25-9.05,1.58-.59-2.55-4.67-3.66-5.49-5-1.11-1.82.93-15.18,1.12-18.64.65-11.88,1.04-29.04,3.58-40.58.56-2.54,3.24-4.14,3.73-7.25.21-1.35.23-11.24.04-12.83-.38-3.2-4.06-18.01-5.18-21.87-.55-1.88-3.5-3.02-4.36-6.63-1.12-4.67-.83-16.32,1.68-20.44,1.13-1.86,3.33-2.28,3.66-2.83,2.15-3.63-.98-9.55,9.22-8.76Z"/>
      <path class="cls-2" d="M662.37,598.36c.02,4.65-.03,9.33,0,13.98-5.09-.41-4.9-13.56,0-13.98Z"/>
    </g>
  </g>
</svg>