<?xml version="1.0" encoding="UTF-8"?>
<svg id="Layer_1" data-name="Layer 1" xmlns="http://www.w3.org/2000/svg" viewBox="0 0 76.19 80.9">
  <defs>
    <style>
      .cls-1 {
        fill: #ff7bac;
      }

      .cls-2 {
        fill: #a52841;
      }
    </style>
  </defs>
  <rect class="cls-1" width="76.19" height="80.9" rx="26.01" ry="26.01"/>
  <path class="cls-2" d="M36.05,8.45c-4.29,4.92-6.64,9.07-6.07,12.86.49,4.27,3.88,8.18,9.34,23.85.29.02,3.74,12.07,5.33-.04.92-6.38,2.34-15.67,1.26-24.42-.94-8.42-4.37-16.3-9.86-12.25Z"/>
  <path class="cls-2" d="M41.74,54.18c-1.2,1.63-5.02,5.04-6.91,7.52-2.6,3.47-2.41,5.72,2.77,11.59.11.12.29.21.47.22,13.19.81,7.13-15.24,4.73-19.27-.22-.36-.82-.39-1.06-.06Z"/>
</svg>