<?xml version="1.0" encoding="UTF-8"?>
<svg id="Layer_1" data-name="Layer 1" xmlns="http://www.w3.org/2000/svg" viewBox="0 0 15.84 71.02">
  <defs>
    <style>
      .cls-1 {
        fill: #f2f2f2;
      }
    </style>
  </defs>
  <path class="cls-1" d="M11.44,50.25c-1.16,1.75-4.84,5.4-6.67,8.06-2.51,3.72-2.32,6.14,2.68,12.44.1.13.28.22.45.24,12.73.87,6.89-16.35,4.57-20.68-.21-.39-.79-.42-1.03-.06Z"/>
  <path class="cls-1" d="M5.94,1.18C1.8,6.46-.46,10.91.08,14.97c.47,4.58,3.75,8.78,9.02,25.59.28.03,3.61,12.95,5.15-.04.89-6.85,2.26-16.81,1.22-26.2C14.56,5.29,11.24-3.17,5.94,1.18Z"/>
</svg>