<?xml version="1.0" encoding="UTF-8"?>
<svg id="Layer_1" data-name="Layer 1" xmlns="http://www.w3.org/2000/svg" viewBox="0 0 222.56 97.93">
  <defs>
    <style>
      .cls-1 {
        fill: #ff7bac;
      }

      .cls-2 {
        fill: #a52841;
      }

      .cls-3 {
        fill: #f2f2f2;
      }
    </style>
  </defs>
  <path class="cls-1" d="M75.51,44.6c6.62,3.5,7.06,6.2,6.72,6.84-.29.53-1.76.59-2.44.54-.73-.05-1.61-.22-2.64-.48-1.03-.27-2.18-.63-3.44-1.1-1.26-.47-2.6-1.05-4.01-1.73-1.4-.69-2.79-1.47-4.11-2.36-13.06-8.87-18.74-17.74-17.05-26.6.33-1.59,5.05-2.78,13.78-3.4,5.24-.36,10.48-.67,15.73-.94.84-.04,1.61.51,1.81,1.33,0,.04.02.08.03.12.14.58.25,1.17.33,1.78.09.61.16,1.22.23,1.83.06.61.1,1.18.12,1.71.05,2.18-.18,3.85-.92,4.99-.73,1.15-2.06,1.73-4.09,1.77-3.34.06-6.68.12-10.02.2-.39,0-.64.1-.76.27-.12.17-.13.38-.04.64.01.04.04.11.08.21.04.1.08.17.14.21,3.95-.07,7.9-.13,11.85-.19.56,0,1.09.25,1.43.69.28.36.56.75.85,1.17.9,1.33,1.68,2.75,2.33,4.21.59,1.32,1.03,2.42,1.25,3.31,0,0,0,.02,0,.03.28,1.12-.59,2.2-1.75,2.19-3.44-.06-6.87-.12-10.31-.19,0,.14.09.31.26.49,0,0,.13.13.52.37h0"/>
  <path class="cls-1" d="M103.08,40.07c1.16-.35,5.19-1.24,6.86-1.24,1.72,0,1.16,0,2.05,0,.53,0,1.03.26,1.31.71.18.3.36.61.53.92.31.57.58,1.15.83,1.73.25.59.47,1.17.66,1.74.19.58.33,1.11.43,1.6.14.71.25,1.44.33,2.18.08.74.13,1.44.15,2.11.02.67.01,1.28-.02,1.85h0c-.05.8-.72,1.42-1.53,1.41-4.39-.08-8.78-.2-13.18-.37-1.43-.06-3.01-.65-4.79-1.78-1.76-1.13-3.68-2.85-5.35-5.17-6.49-9.11-9.32-18.34-8.49-27.7.04-.44.26-.85.61-1.1,1.02-.73,2.2-1.33,3.53-1.8,1.57-.55,3.14-.86,4.71-.92,1.09-.04,2.12.07,3.13.34,1,.27,1.87.7,2.63,1.29.76.59,1.35,1.36,1.8,2.3.45.94.67,2.04.68,3.31.06,5.51-.78,13.96.73,19.36"/>
  <path class="cls-1" d="M131.46,55.08c-1.08,0-2.13-.16-3.2-.5-1.07-.34-2.11-.87-3.16-1.58-1.05-.71-2.1-1.61-3.15-2.7-1.05-1.09-2.07-2.38-3.03-3.87-.96-1.49-1.84-3.19-2.57-5.1-.73-1.91-1.26-4.05-1.52-6.42-.38-3.51-.04-6.58.94-9.18.98-2.6,2.42-4.77,4.2-6.5,1.79-1.73,3.84-3.01,6.13-3.84,2.29-.83,4.66-1.24,7.13-1.22,2.94.02,5.6.56,8.01,1.62,2.4,1.05,4.49,2.51,6.17,4.34,1.68,1.84,2.95,4.02,3.65,6.55.7,2.52.78,5.27.18,8.26-.72,3.54-2.1,6.56-3.76,9.09-1.67,2.53-3.52,4.61-5.37,6.24-1.86,1.64-3.66,2.85-5.44,3.63-1.78.79-3.46,1.19-5.2,1.2ZM134.37,33.54c.05-.97.07-1.8.06-2.5-.01-.7-.06-1.28-.14-1.75-.08-.43-.21-.71-.37-.85-.16-.14-.35-.21-.56-.21-.21,0-.38.03-.5.11-.12.07-.22.14-.3.2.01.37.03.71.06,1.02.03.31.06.67.07,1.06.02.4.03.85.03,1.37,0,.52-.01,1.15-.04,1.89-.03.66-.05,1.31-.08,1.96-.03.74-.08,1.37-.12,1.88-.04.51-.09.96-.14,1.35-.05.39-.1.74-.15,1.05-.05.31-.1.65-.14,1.01.07.06.15.12.25.19.1.07.24.1.44.1.19,0,.36-.07.52-.21.16-.14.3-.42.42-.84.12-.46.23-1.04.32-1.73.09-.69.16-1.52.22-2.48.05-.87.1-1.75.15-2.63Z"/>
  <path class="cls-1" d="M152.81,19.61c-.12-.88.11-1.81.71-2.46.69-.75,1.53-1.37,2.51-1.85,1.45-.7,3.08-1.02,4.94-.95,1.36.05,2.61.23,3.75.55,1.15.31,2.15.75,3.01,1.32.86.57,1.55,1.25,2.04,2.04.5.79.77,1.7.78,2.72-.08,1.15-.2,2.39-.38,3.71-.18,1.32-.42,2.62-.72,3.9-.3,1.28-.64,2.51-1,3.67-.36,1.16-.72,2.16-1.04,2.99-.2.52-.34.99-.41,1.41-.07.42.09.62.5.62.14,0,.34-.03.58-.09.1-.27.22-.56.35-.87.13-.31.27-.65.42-1.01.49-1.23,1.01-2.66,1.49-4.29.48-1.63.88-3.27,1.19-4.95.31-1.67.51-3.28.63-4.83.05-.69.09-1.33.11-1.92.06-1.39,1.02-2.57,2.37-2.92.17-.04.35-.09.53-.12,1.11-.24,2.27-.32,3.5-.25.95.05,1.92.18,2.91.39.98.21,1.9.51,2.75.9.84.39,1.57.89,2.15,1.48.58.59.94,1.3,1.04,2.12-.01,1.01-.13,2.15-.41,3.42-.28,1.28-.69,2.61-1.26,4.01-.57,1.4-1.28,2.84-2.16,4.32-.87,1.48-1.85,2.93-2.91,4.35.12.07.27.11.45.11.25,0,.53-.09.84-.27.31-.18.76-.63,1.32-1.35,1.26-1.67,2.32-3.33,3.16-4.98.85-1.65,1.47-3.24,1.9-4.78.43-1.54.66-3,.73-4.39.03-.61.03-1.19.01-1.75-.06-1.45.9-2.76,2.31-3.11.01,0,.02,0,.03,0,1.06-.26,2.54-.32,4.44-.18,1.26.1,2.46.35,3.59.75,1.13.4,2.15.93,3.03,1.57.88.64,1.6,1.4,2.1,2.25.51.86.76,1.79.71,2.8-.02.33-.11.86-.33,1.58-.22.72-.55,1.57-1.05,2.55-.49.98-1.14,2.06-2,3.23-.85,1.17-1.86,2.38-3.04,3.63-1.18,1.25-2.49,2.49-3.93,3.73-1.43,1.24-2.91,2.4-4.38,3.49-1.47,1.09-2.9,2.07-4.23,2.95-1.33.88-2.47,1.58-3.36,2.11-1.63.96-3.19,1.78-4.61,2.45-1.42.67-2.76,1.23-3.98,1.68-1.22.45-2.34.79-3.36,1.02-1.02.23-1.97.38-2.87.44-.39.03-.76.01-1.11-.04-.35-.05-.66-.14-.93-.25-.28-.11-.5-.25-.69-.41-.18-.16-.3-.34-.35-.53.2-.31.45-.68.76-1.12.3-.44.62-.91.95-1.4.33-.49.64-.97.95-1.45.3-.47.58-.9.84-1.27-.38.03-.71.15-1.02.36-.3.21-.6.5-.92.85-.35.4-.71.88-1.12,1.46-.28.4-.58.81-.89,1.25-.28.39-.66.72-1.09.94-1.41.72-2.7,1.26-3.86,1.61-1.33.41-2.6.64-3.84.7-.51.02-1.01.02-1.52-.02-.5-.03-.95-.12-1.35-.26-.4-.14-.73-.34-1-.59-.27-.25-.42-.6-.47-1.03.09-2.67,1.44-4.36,1.99-6.43s1.03-3.68,1.49-6.4.31-3.43.21-4.9c-.2-3.02-2.05-10.46-2.52-13.98Z"/>
  <path class="cls-3" d="M54.91,50.47c.44.11.69.26.77.45.08.19.07.41,0,.66-1.03.21-1.7.42-2.04.64-.15.1-.24.2-.27.3-.03.1.06.19.26.25.63-.23,1.31-.43,2.03-.61.72-.18,1.47-.31,2.23-.41.76-.1,1.52-.15,2.27-.15.75,0,1.47.06,2.15.2.52.11.92.27,1.2.47.28.21.47.45.57.72.11.27.14.55.12.84-.03.29-.09.57-.2.84.63-.28,1.28-.52,1.93-.71.65-.19,1.27-.34,1.86-.44.59-.1,1.15-.16,1.68-.17.52-.01.99.01,1.4.08.96.17,1.62.48,2.01.95.39.48.53,1.1.46,1.89-.07.78-.33,1.71-.74,2.78-.41,1.07-.95,2.26-1.56,3.58-.28.61-.58,1.29-.86,2.02-.28.74-.5,1.45-.65,2.15-.23,1-.26,1.9-.16,2.67.1.78.41,1.45.89,2.01,0,.13.01.27.01.41,0,.14,0,.26,0,.36.02,1.13,0,2.12-.13,2.95-.12.83-.3,1.5-.56,1.99-.27.5-.62.81-1.08.94-.46.13-1,.07-1.62-.16-.66-.25-1.33-.63-2.02-1.15-.69-.52-1.37-1.19-2.01-2.02-.64-.82-1.22-1.79-1.68-2.89-.46-1.09-.76-2.32-.78-3.64-.04-2.37.39-4.52,1.25-6.51.37-.85.36-1.32-.13-1.48-.08-.02-.17-.03-.28-.03-.11,0-.19.02-.25.04-.38.93-.67,1.9-.86,2.91-.44,1.48-.65,3.05-.62,4.74.02.97.17,1.9.41,2.77.24.87.6,1.69,1.04,2.45-.31.66-.73,1.09-1.32,1.26-.59.17-1.25.09-2.02-.26-.56-.25-1.13-.61-1.73-1.08-.59-.47-1.2-1.08-1.78-1.81-.59-.74-1.14-1.62-1.6-2.61-.46-.99-.81-2.1-.93-3.29-.25-2.57.14-4.77,1.1-6.72.38-.74.38-1.18-.1-1.35-.08-.03-.17-.04-.27-.05-.1,0-.19,0-.25.01-.4.81-.69,1.67-.87,2.59-.5,1.56-.66,3.28-.45,5.21.09.79.25,1.53.46,2.19.21.67.51,1.37.91,2.1-.21.55-.56.91-1.08,1.03-.52.13-1.22-.04-2.12-.51-.47-.25-.99-.62-1.56-1.1-.57-.48-1.15-1.07-1.71-1.74-.56-.67-1.1-1.42-1.56-2.21-.46-.79-.82-1.62-1.02-2.45-.83-3.55-.39-6.2,1.22-8.3-.03-.5.09-1,.39-1.47.31-.48.78-.91,1.42-1.32.53-.34,1.24-.67,2.16-1.01.92-.33,1.91-.6,2.91-.81,1.25.34,2.51.66,3.77.97Z"/>
  <path class="cls-3" d="M82.03,83.14c-1.57-.42-3.09-1.18-4.54-2.25-1.44-1.07-2.76-2.41-3.87-3.96-1.1-1.55-1.96-3.28-2.43-5.12-.46-1.84-.49-3.74.05-5.68.57-2.04,1.63-3.68,2.95-5.04,1.33-1.36,2.83-2.45,4.37-3.31,1.54-.86,3.07-1.48,4.54-1.87,1.47-.38,2.79-.52,3.97-.39,1.26.14,2.22.52,2.93,1.18.71.66,1.19,1.51,1.48,2.58.29,1.07.38,2.29.32,3.69-.07,1.39-.3,2.86-.69,4.39-.37,1.45-.8,2.68-1.35,3.68-.55.99-1.18,1.77-1.92,2.33-.74.56-1.57.91-2.51,1.04-.94.14-1.94.08-3.01-.17-.81-.19-1.58-.51-2.32-.95-.74-.45-1.35-.95-1.84-1.52-.07.05-.11.12-.14.22-.03.1-.04.19-.05.27-.02.24.1.51.34.81.25.3.58.6.98.89.41.29.88.57,1.41.82.53.26,1.06.45,1.6.58.74.18,1.41.26,2.02.25.61,0,1.16-.06,1.65-.17.49-.11.92-.25,1.3-.43.37-.18.69-.36.95-.55.14.22.26.51.36.9.1.39.18.81.26,1.27.08.46.14.93.19,1.41.05.48.09.92.11,1.32.02.4.03.77.04,1.12,0,.35,0,.65-.02.9-.33.39-.68.76-1.07,1.09-.38.33-.85.59-1.39.78-.55.19-1.19.29-1.94.3-.75,0-1.66-.13-2.73-.41ZM82.15,66.29c.29.06.53.02.73-.11.2-.13.34-.33.42-.59.1-.31.1-.54-.03-.69-.12-.15-.3-.25-.53-.3-.32-.06-.62,0-.9.21-.28.2-.51.49-.69.87.09.12.21.23.37.36.16.12.37.21.62.26Z"/>
  <path class="cls-3" d="M98.57,57.33c.65.05,1.13.26,1.44.63.31.37.49.87.54,1.5-.22.23-.45.5-.69.83-.24.33-.46.65-.66.97-.2.32-.37.62-.52.91-.15.29-.25.52-.3.68-.06.2-.06.39,0,.56.06.17.19.27.41.29.57-1.22,1.19-2.24,1.84-3.06.65-.81,1.3-1.46,1.94-1.94.64-.48,1.26-.81,1.87-.99.61-.18,1.19-.26,1.74-.23.45.02.85.09,1.2.21.35.12.66.26.92.43.27.17.49.37.68.58.19.21.34.42.46.62,0,.75-.03,1.54-.11,2.38-.08.83-.19,1.65-.33,2.44-.25,1.43-.51,2.61-.81,3.55-.3.94-.59,1.71-.87,2.31-.21.13-.46.25-.77.36-.3.12-.63.21-.99.29-.35.07-.73.12-1.12.15-.39.02-.77.02-1.14-.02-.4-.04-.74-.09-1.04-.16-.3-.07-.57-.15-.81-.23-.24-.09-.46-.18-.66-.28-.2-.1-.4-.2-.6-.29-.12.13-.2.32-.24.58-.04.24.05.44.25.61.2.16.58.36,1.14.58-.56,4.34-.7,8.73-.28,13.18-.37.33-.76.59-1.15.77-.39.18-.78.3-1.16.37-.38.07-.75.1-1.11.08-.36-.02-.69-.05-1-.1-.67-.11-1.31-.32-1.92-.61-.61-.29-1.17-.67-1.66-1.14-.49-.46-.9-1.01-1.22-1.64-.32-.63-.51-1.35-.57-2.15-.29-4.48.18-8.8,1.25-13.03-.18-.74-.22-1.56-.12-2.44.1-.89.33-1.8.68-2.73.29-.78.71-1.62,1.26-2.54.55-.92,1.17-1.73,1.82-2.44.8.07,1.61.14,2.41.2Z"/>
  <path class="cls-3" d="M117.51,79.13s-.03.1-.04.19c-.01.09-.02.18-.02.27,0,.38.19.64.56.8.38.16.88.25,1.52.26.92.03,1.82-.07,2.7-.28.88-.21,1.63-.51,2.26-.88.74.29,1.37.72,1.88,1.3.51.58.93,1.23,1.25,1.96.32.73.55,1.51.68,2.35.13.84.19,1.67.18,2.49-.03,1.69-.33,3.2-.86,4.5-.53,1.31-1.24,2.4-2.12,3.29-.87.88-1.88,1.54-3.04,1.98-1.15.43-2.4.63-3.78.57-1.38-.06-2.6-.33-3.7-.82-1.1-.49-2.07-1.12-2.9-1.91-.83-.78-1.51-1.67-2.01-2.66-.5-.99-.83-2.03-.95-3.12-.05-.48-.06-.94-.02-1.37.04-.43.11-.83.21-1.19.1-.36.22-.67.37-.94.15-.26.31-.46.49-.58.61.76,1.53,1.43,2.72,2,1.2.56,2.63.89,4.29.97.92.04,1.56,0,1.91-.12.35-.12.52-.37.51-.75,0-.12-.02-.23-.04-.31-.03-.08-.05-.16-.08-.23-.29.08-.66.14-1.1.18-.44.04-.84.05-1.19.03-1.04-.05-2.05-.21-3.03-.5-.98-.28-1.85-.72-2.62-1.32-.77-.59-1.39-1.34-1.87-2.24-.47-.9-.72-1.99-.71-3.27,0-.87.15-1.7.42-2.48.27-.79.69-1.37,1.24-1.74-.27-.27-.54-.62-.8-1.06-.26-.44-.48-.97-.67-1.59-.18-.62-.31-1.32-.37-2.11-.06-.79-.03-1.68.1-2.67.23-1.73.7-3.26,1.36-4.6.66-1.34,1.46-2.47,2.36-3.38.9-.92,1.88-1.61,2.95-2.09,1.06-.48,2.16-.71,3.32-.69.66.01,1.27.12,1.83.34.56.22,1.04.45,1.45.71.02-.64.05-1.27.08-1.91.24-.16.56-.31.97-.43.4-.13.84-.19,1.31-.19.47,0,.91.06,1.32.19.41.13.76.36,1.07.71.31.34.56.83.76,1.44.2.62.32,1.42.36,2.4.02.45.02.89,0,1.32-.02.43-.06.85-.14,1.27-.1.6-.26,1.2-.47,1.8.16.58.29,1.21.39,1.9.09.69.16,1.54.18,2.55.04,1.64-.14,3.09-.53,4.35-.4,1.26-.98,2.31-1.73,3.16-.75.85-1.66,1.49-2.71,1.91-1.06.42-2.22.62-3.5.58-.4-.01-.79-.05-1.17-.12-.38-.07-.67-.13-.85-.19ZM119.16,68.51c.01-.31-.01-.55-.08-.72-.07-.17-.18-.26-.35-.27-.12,0-.22.05-.32.17-.09.11-.15.33-.17.63-.05.93-.1,1.85-.14,2.78.1.13.22.2.35.2.26,0,.43-.11.5-.35.07-.24.11-.62.14-1.15.02-.43.04-.86.06-1.3Z"/>
  <path class="cls-3" d="M139.71,88.06c-1.66.15-3.13-.1-4.45-.72-1.32-.62-2.44-1.58-3.39-2.87-.95-1.29-1.69-2.89-2.23-4.8-.54-1.9-.82-4.06-.87-6.47-.05-2.54.16-4.79.6-6.75.44-1.96,1.04-3.61,1.78-4.95.74-1.34,1.6-2.35,2.6-3.05,1-.69,2.06-1.06,3.24-1.1,1.25-.04,2.45.23,3.62.81,1.17.58,2.27,1.38,3.29,2.41,1.02,1.03,1.92,2.24,2.68,3.63.75,1.39,1.29,2.89,1.57,4.51.27,1.53.26,2.88,0,4.03-.26,1.15-.72,2.14-1.36,2.94-.64.8-1.43,1.43-2.37,1.88-.94.45-1.96.73-3.07.82-.84.07-1.65,0-2.44-.23-.79-.23-1.47-.56-2.04-1.01-.06.08-.1.17-.11.29-.02.12-.02.22-.02.31,0,.27.15.52.43.76.28.24.63.45,1.07.62.44.17.93.31,1.49.39.56.09,1.11.11,1.67.06.77-.07,1.46-.21,2.09-.42.63-.21,1.19-.46,1.68-.73.49-.27.92-.56,1.28-.87.36-.31.65-.6.89-.87.17.17.32.44.45.8.13.36.24.77.33,1.21.09.45.16.91.2,1.38.04.48.05.92.04,1.32-.01.41-.05.79-.09,1.16-.05.37-.11.69-.18.96-.42.53-.89,1.04-1.39,1.54-.5.49-1.08.95-1.74,1.35-.66.4-1.42.76-2.27,1.05-.85.29-1.83.49-2.96.59ZM139.24,70.03c.3-.02.51-.13.64-.32.13-.2.18-.44.14-.75-.04-.35-.16-.6-.35-.73-.19-.13-.4-.19-.63-.17-.33.02-.57.17-.74.46-.16.29-.25.66-.25,1.13.13.1.29.19.49.28.2.09.43.12.69.1Z"/>
  <path class="cls-3" d="M149.42,57.47c.44-.03.86.07,1.26.29.4.23.79.52,1.18.88-.2.72-.24,1.31-.08,1.76.07.2.18.37.32.52.14.15.32.21.53.19.02-.6.1-1.18.24-1.74.14-.56.36-1.06.65-1.49.29-.43.66-.79,1.1-1.07.45-.28.98-.45,1.62-.51.75-.07,1.59.01,2.54.22.95.21,1.95.64,3,1.28,1.05.63,2.12,1.52,3.17,2.67,1.04,1.15,1.98,2.63,2.65,4.5.25.68.49,1.46.71,2.33.22.87.39,1.68.54,2.44.2,1.09.4,1.98.64,2.66.24.68.61,1.18,1.11,1.48.02.13.03.29.03.47,0,.19,0,.33,0,.43,0,1.17-.21,2.26-.57,3.26-.36,1-.84,1.89-1.41,2.66-.56.77-1.19,1.39-1.84,1.87-.66.48-1.32.8-1.98.97-.7.17-1.33.18-1.91.04-.58-.15-1.05-.5-1.44-1.05-.39-.55-.67-1.33-.88-2.32-.21-.99-.3-2.24-.33-3.74-.02-.8-.04-1.55-.06-2.27-.02-.71-.04-1.38-.07-1.99-.03-.62-.07-1.18-.11-1.7-.04-.52-.11-.99-.2-1.42-.17-.78-.37-1.31-.56-1.57-.2-.27-.43-.38-.7-.34-.18.03-.32.12-.44.27.41,1.32.76,2.65,1.05,3.99.02.51.03,1.02.05,1.54.02.52.03,1.01.04,1.47.01.46.02.88.02,1.25,0,.38,0,.68.01.92.03,1.33.08,2.42.22,3.27.13.85.26,1.57.42,2.17-.63.92-1.41,1.71-2.33,2.36-.92.65-1.91,1.08-2.98,1.28-.53.1-1.06.08-1.58-.06-.52-.14-.97-.41-1.37-.8-.39-.4-.7-.93-.94-1.58-.24-.65-.33-1.46-.3-2.41.13-4.25-.25-8.43-1.03-12.57-.49-.68-.91-1.47-1.28-2.36-.37-.89-.67-1.84-.92-2.83-.21-.82-.37-1.74-.5-2.74-.13-1.01-.17-1.9-.11-2.69.93-.06,1.87-.12,2.81-.19Z"/>
  <path class="cls-3" d="M179.38,79.53c-1.46.51-2.66.57-3.64.19-.99-.37-1.77-1.11-2.45-2.18-.68-1.06-1.22-2.44-1.75-4.09-.53-1.65-1-3.51-1.51-5.56-.55-2.2-1.01-4.13-1.21-5.8-.2-1.67-.26-3.06-.06-4.19.2-1.13.6-1.99,1.29-2.62.68-.63,1.56-1,2.68-1.17,1.05-.15,2.19-.14,3.43.02,1.24.16,2.51.46,3.78.9,1.27.44,2.5,1,3.63,1.72,1.12.72,2.08,1.59,2.78,2.68.47.73.72,1.45.79,2.15.07.71-.04,1.37-.29,1.99-.25.62-.64,1.16-1.15,1.62-.51.46-1.11.81-1.81,1.03-.58.18-1.14.25-1.67.2-.53-.05-1.02-.21-1.48-.47-.46-.26-.88-.61-1.27-1.05-.4-.44-.75-.95-1.07-1.52-.22.06-.38.15-.48.27-.11.13-.1.32,0,.59.17.45.44.9.81,1.36.37.46.8.85,1.31,1.18.5.33,1.08.55,1.72.67.65.12,1.36.05,2.13-.2.83-.27,1.51-.62,2.03-1.03.52-.41.93-.83,1.23-1.24.34.36.64.83.88,1.43.24.6.38,1.36.36,2.31-.02.88-.25,1.83-.7,2.88-.45,1.05-1.1,2.09-1.92,3.12-.82,1.02-1.79,1.98-2.88,2.84-1.09.86-2.27,1.52-3.53,1.97Z"/>
  <path class="cls-3" d="M186.41,52.41c.74-.16,1.51-.19,2.28-.11.77.08,1.53.23,2.26.46.73.23,1.43.51,2.06.85.64.34,1.21.71,1.71,1.11.2.23.47.53.77.92.3.39.62.83.93,1.33.31.5.61,1.05.88,1.64.27.59.49,1.2.67,1.83.04.13.08.27.11.43.04.15.07.29.11.41.07,0,.14,0,.2,0,.06-.01.12-.03.17-.05.17-.07.28-.2.32-.38.04-.18.03-.39-.04-.62-.28-1-.66-1.94-1.15-2.82-.48-.88-1.05-1.67-1.66-2.39-.61-.71-1.24-1.34-1.85-1.88-.6-.55-1.15-.98-1.57-1.32.02-.39.21-.7.59-.95.38-.25.91-.45,1.6-.62.72-.18,1.47-.28,2.24-.31.78-.03,1.53-.02,2.25.04.72.06,1.4.17,2.01.32.61.15,1.12.34,1.53.57.07.04.29.18.62.43.33.25.74.59,1.16,1.05.42.46.84,1.01,1.2,1.71.35.7.6,1.52.7,2.49.1.97.04,2.09-.22,3.39-.26,1.3-.72,2.75-1.41,4.36-1.16,2.71-2.83,5.39-4.51,7.67-1.68,2.28-3.42,4.3-4.96,5.89-1.54,1.6-2.93,2.84-4.05,3.7-1.12.85-2.08,1.46-2.87,1.84-.81.38-1.33.46-1.59.27-.27-.2-.34-.6-.24-1.18.09-.59.32-1.32.65-2.19.33-.87.73-1.81,1.19-2.81.44-.96.88-1.89,1.34-2.78.46-.89.98-1.84,1.57-2.84.1-.07.22-.14.37-.22.15-.08.29-.15.42-.2.32-.14.64-.25.94-.33.31-.08.55-.14.72-.18.77-.13,1.52-.27,2.26-.41.1-.02.21-.04.31-.06.1-.02.21-.06.33-.11.18-.09.35-.22.51-.39.16-.18.32-.49.45-.92-1.12.22-2.28.43-3.46.62-.34-.07-.66-.3-1-.68-.34-.38-.64-.98-1-1.76-.36-.78-.75-1.78-1.31-2.94-.56-1.16-1.26-2.54-2.3-4.08-.53-.33-1.09-.77-1.72-1.31-.63-.54-1.24-1.19-1.87-1.92-.54-.63-1.05-1.26-1.54-1.9-.49-.64-.88-1.26-1.18-1.84,1.35-.26,2.7-.53,4.05-.81Z"/>
  <path class="cls-2" d="M218.17,50.25c-1.16,1.75-4.84,5.4-6.67,8.06-2.51,3.72-2.32,6.14,2.68,12.44.1.13.28.22.45.24,12.73.87,6.89-16.35,4.57-20.68-.21-.39-.79-.42-1.03-.06Z"/>
  <path class="cls-2" d="M212.67,1.18c-4.14,5.28-6.41,9.73-5.87,13.8.47,4.58,3.75,8.78,9.02,25.59.28.03,3.61,12.95,5.15-.04.89-6.85,2.26-16.81,1.22-26.2-.9-9.03-4.22-17.49-9.52-13.14Z"/>
  <path class="cls-2" d="M45.48,30.28c.03-.18-.13-.31-.3-.3-1.83.17-3.87-1.41-8.19-3.35-4.87-2.03-9.05-4.54-13.21-5.73C17.59,17.88,4.55,21.98.01,35.51c-.02.06-.02.13,0,.18,5.54,16.28,16.16,14,26.78,7.92,9.81-5.74,18.36-11.06,18.68-13.34Z"/>
  <path class="cls-2" d="M43.95,23.12c.14.1.33,0,.31-.17-.17-1.17-2.28-4.87-3.75-9.91-1.92-5.33-3.87-12.54-10.25-8.88-.02,0-.03.02-.05.04-6.85,6.72-5.78,12.66-.21,15.39,4.95,2.92,11.36,1.76,13.94,3.53Z"/>
  <path class="cls-2" d="M45.48,39.64c-2.48-1.96-10.58,4.4-19.61,8.38-7.92,3.49-3.96,16.04.95,18.77,9.89,2.25,16.58-26.64,18.66-27.16Z"/>
</svg>